{"glyphs":{"0":{"ha":512,"x_min":35,"x_max":479,"o":"m 255 -11 q 431 66 382 -11 q 479 284 479 143 q 431 502 479 424 q 255 581 382 581 q 77 494 125 581 q 35 284 35 418 q 145 10 35 64 q 255 -11 189 -11 m 173 284 q 190 469 173 413 q 256 525 206 525 q 323 469 305 525 q 340 284 340 413 q 255 43 340 43 q 173 284 173 43 z "},"1":{"ha":512,"x_min":84,"x_max":451,"o":"m 451 54 l 341 54 l 341 568 l 287 568 q 190 526 248 544 q 84 507 131 509 l 84 455 l 204 457 l 204 54 l 86 54 l 86 0 l 451 0 l 451 54 z "},"2":{"ha":512,"x_min":43,"x_max":451,"o":"m 167 379 q 187 489 169 455 q 242 524 205 524 q 313 432 313 524 q 297 340 313 378 q 231 258 280 303 l 43 88 l 43 0 l 451 0 l 451 106 l 189 106 l 356 258 q 431 347 411 308 q 451 432 451 387 q 395 541 451 502 q 242 580 340 580 q 48 398 59 580 l 167 379 z "},"3":{"ha":512,"x_min":38,"x_max":458,"o":"m 308 283 q 411 334 372 295 q 451 436 451 372 q 397 539 451 499 q 245 580 344 580 q 101 540 147 580 q 48 411 54 500 l 168 395 q 243 524 172 524 q 314 434 314 524 q 294 341 314 369 q 216 313 274 313 l 162 313 l 162 250 l 215 250 q 311 200 292 250 q 321 142 321 178 q 240 44 321 44 q 158 162 163 44 l 38 147 q 93 26 44 63 q 243 -11 142 -11 q 401 32 344 -11 q 458 141 458 75 q 308 283 458 259 z "},"4":{"ha":512,"x_min":14,"x_max":472,"o":"m 472 104 l 472 210 l 419 210 l 419 568 l 214 568 l 14 189 l 14 104 l 282 104 l 282 0 l 419 0 l 419 104 l 472 104 m 282 210 l 124 210 l 282 513 l 282 210 z "},"5":{"ha":512,"x_min":58,"x_max":472,"o":"m 58 173 q 255 -11 68 -11 q 415 40 358 -11 q 472 166 472 90 q 410 292 472 241 q 229 342 348 342 l 143 342 l 152 462 l 431 462 l 431 568 l 104 568 l 85 288 l 166 288 q 330 161 330 288 q 255 43 330 43 q 179 184 185 43 l 58 173 z "},"6":{"ha":512,"x_min":37,"x_max":472,"o":"m 173 320 q 193 477 175 429 q 259 525 210 525 q 340 395 336 525 l 458 407 q 259 580 450 580 q 86 495 136 580 q 37 274 37 410 q 258 -11 37 -11 q 472 173 472 -11 q 284 337 472 337 q 173 320 234 337 m 173 268 q 243 282 211 282 q 337 173 337 282 q 258 43 337 43 q 193 91 211 43 q 173 268 174 140 z "},"7":{"ha":512,"x_min":44,"x_max":452,"o":"m 344 462 l 96 0 l 219 0 l 452 482 l 452 568 l 44 568 l 44 462 l 344 462 z "},"8":{"ha":512,"x_min":37,"x_max":476,"o":"m 468 423 q 413 535 468 491 q 256 580 358 580 q 99 535 154 580 q 44 423 44 491 q 151 284 44 326 q 37 147 37 250 q 96 33 37 78 q 256 -11 156 -11 q 416 33 357 -11 q 476 147 476 78 q 376 287 476 245 q 468 423 468 327 m 184 423 q 256 525 184 525 q 329 429 329 525 q 289 311 329 334 l 278 313 l 258 316 q 200 347 215 320 q 184 423 184 374 m 177 147 q 229 266 177 251 l 238 263 l 258 262 q 314 224 292 256 q 336 146 336 192 q 315 72 336 100 q 256 43 294 43 q 197 72 217 43 q 177 147 177 101 z "},"9":{"ha":512,"x_min":35,"x_max":474,"o":"m 263 580 q 209 580 263 580 q 95 526 154 580 q 35 392 35 472 q 227 222 35 222 q 335 242 287 222 q 316 88 332 132 q 247 43 299 43 q 166 172 169 43 l 46 158 q 247 -11 53 -11 q 424 67 373 -11 q 474 316 474 145 q 423 509 474 439 q 263 580 371 580 m 175 400 q 175 427 175 400 q 197 489 175 453 q 262 525 219 525 q 320 469 305 525 q 335 292 335 413 q 259 277 299 277 q 197 311 219 277 q 175 400 175 346 z "}," ":{"ha":204,"x_min":0,"x_max":0,"o":""},"!":{"ha":266,"x_min":57,"x_max":206,"o":"m 206 414 l 206 568 l 57 568 l 57 414 l 93 175 l 173 175 l 206 414 m 206 67 q 184 118 206 96 q 132 140 162 140 q 81 119 103 140 q 59 68 59 98 q 81 16 59 38 q 132 -6 103 -6 q 184 15 162 -6 q 206 67 206 37 z "},"\"":{"ha":332,"x_min":21,"x_max":311,"o":"m 146 508 l 146 568 l 21 568 l 21 508 l 46 351 l 120 351 l 146 508 m 311 508 l 311 568 l 187 568 l 187 508 l 211 351 l 287 351 l 311 508 z "},"#":{"ha":664,"x_min":26,"x_max":639,"o":"m 545 353 l 620 353 l 639 458 l 563 458 l 596 628 l 456 628 l 425 458 l 302 458 l 332 628 l 194 628 l 162 458 l 91 458 l 72 353 l 143 353 l 117 214 l 46 214 l 26 109 l 99 109 l 69 -59 l 208 -59 l 238 109 l 362 109 l 331 -59 l 471 -59 l 500 109 l 575 109 l 596 214 l 519 214 l 545 353 m 407 353 l 381 214 l 257 214 l 283 353 l 407 353 z "},"$":{"ha":491,"x_min":42,"x_max":461,"o":"m 299 336 l 238 342 q 193 370 206 347 q 180 435 180 393 q 245 518 180 518 q 306 488 289 518 q 324 398 324 458 l 445 408 q 410 523 445 484 q 294 571 376 562 l 294 656 l 201 656 l 201 571 q 42 407 42 554 q 79 287 42 329 q 195 232 116 245 l 256 224 q 324 129 324 209 q 305 69 324 89 q 242 49 287 49 q 162 169 162 49 l 42 161 q 78 44 42 84 q 201 -5 115 4 l 201 -88 l 294 -88 l 294 -4 q 461 156 461 15 q 299 336 461 314 z "},"%":{"ha":785,"x_min":38,"x_max":746,"o":"m 177 253 q 216 253 177 253 q 287 296 256 253 q 318 416 318 339 q 287 537 318 494 q 177 580 256 580 q 69 537 99 580 q 38 416 38 494 q 68 296 38 339 q 177 253 98 253 m 496 568 l 439 568 l 289 0 l 345 0 l 496 568 m 141 418 q 148 514 141 487 q 177 541 156 541 q 207 514 199 541 q 215 418 215 487 q 178 294 215 294 q 141 418 141 294 m 606 -6 q 645 -6 606 -6 q 715 36 685 -6 q 746 156 746 78 q 715 276 746 234 q 606 319 685 319 q 497 277 528 319 q 467 156 467 235 q 497 36 467 78 q 606 -6 528 -6 m 570 157 q 576 255 570 229 q 606 282 583 282 q 636 254 629 282 q 644 157 644 226 q 607 33 644 33 q 570 157 570 33 z "},"&":{"ha":509,"x_min":22,"x_max":519,"o":"m 519 320 l 247 320 q 194 347 213 320 q 175 418 175 373 q 228 525 175 525 q 285 418 280 525 l 404 455 q 354 550 394 521 q 221 580 314 580 q 83 535 129 580 q 38 418 38 491 q 65 339 38 372 q 131 295 91 305 q 52 244 82 283 q 22 146 22 205 q 72 37 22 86 q 234 -12 121 -12 q 391 30 346 -12 q 436 148 436 72 l 436 250 l 519 250 l 519 320 m 315 250 l 315 157 q 297 70 315 98 q 240 42 279 42 q 180 72 200 42 q 161 148 161 101 q 253 250 161 250 l 315 250 z "},"'":{"ha":166,"x_min":21,"x_max":146,"o":"m 146 508 l 146 568 l 21 568 l 21 508 l 46 351 l 120 351 l 146 508 z "},"(":{"ha":261,"x_min":16,"x_max":252,"o":"m 252 27 q 182 106 205 27 q 159 284 159 184 q 182 462 159 384 q 252 540 205 540 l 252 596 q 134 568 183 596 q 61 492 85 540 q 26 394 36 444 q 16 284 16 344 q 26 174 16 225 q 61 75 36 124 q 134 -1 85 27 q 252 -28 183 -28 l 252 27 z "},")":{"ha":261,"x_min":7,"x_max":245,"o":"m 7 -28 q 126 -1 77 -28 q 200 75 175 27 q 234 174 224 124 q 245 284 245 225 q 234 394 245 344 q 200 492 224 444 q 126 568 175 540 q 7 596 77 596 l 7 540 q 78 462 56 540 q 101 284 101 384 q 78 106 101 184 q 7 27 56 27 l 7 -28 z "},"*":{"ha":437,"x_min":17,"x_max":419,"o":"m 280 524 l 280 607 l 156 607 l 156 524 l 198 450 l 238 450 l 280 524 m 130 497 l 51 523 l 17 423 l 96 397 l 178 407 l 189 442 l 130 497 m 340 397 l 419 423 l 384 523 l 305 497 l 247 442 l 258 405 l 340 397 m 106 362 l 58 292 l 151 221 l 201 293 l 211 373 l 182 395 l 106 362 m 235 293 l 284 221 l 379 292 l 329 362 l 256 395 l 224 373 l 235 293 z "},"+":{"ha":451,"x_min":63,"x_max":388,"o":"m 182 293 l 63 293 l 63 204 l 182 204 l 182 84 l 271 84 l 271 204 l 388 204 l 388 293 l 271 293 l 271 410 l 182 410 l 182 293 z "},",":{"ha":184,"x_min":19,"x_max":157,"o":"m 92 140 q 78 140 92 140 q 46 120 64 140 q 27 79 27 101 q 37 31 27 57 q 47 -6 47 5 q 19 -72 47 -42 l 43 -100 q 157 67 157 -36 q 138 119 157 99 q 92 140 120 140 z "},"-":{"ha":362,"x_min":44,"x_max":318,"o":"m 318 293 l 44 293 l 44 204 l 318 204 l 318 293 z "},".":{"ha":184,"x_min":20,"x_max":164,"o":"m 92 -6 q 107 -6 92 -6 q 143 15 122 -6 q 164 67 164 37 q 143 119 164 98 q 92 140 122 140 q 41 119 62 140 q 20 67 20 98 q 41 15 20 37 q 92 -6 62 -6 z "},"/":{"ha":334,"x_min":6,"x_max":329,"o":"m 329 604 l 190 604 l 6 -83 l 145 -83 l 329 604 z "},":":{"ha":184,"x_min":20,"x_max":164,"o":"m 92 290 q 107 290 92 290 q 143 312 122 290 q 164 364 164 334 q 143 416 164 394 q 92 437 122 437 q 41 416 62 437 q 20 365 20 395 q 41 312 20 334 q 92 290 62 290 m 92 -6 q 107 -6 92 -6 q 143 15 122 -6 q 164 67 164 37 q 143 119 164 98 q 92 140 122 140 q 41 119 62 140 q 20 67 20 98 q 41 15 20 37 q 92 -6 62 -6 z "},";":{"ha":184,"x_min":14,"x_max":159,"o":"m 86 290 q 101 290 86 290 q 138 312 116 290 q 159 365 159 334 q 138 416 159 395 q 86 437 116 437 q 35 416 56 437 q 14 364 14 394 q 35 312 14 334 q 86 290 56 290 m 92 140 q 78 140 92 140 q 46 120 64 140 q 27 79 27 101 q 37 31 27 57 q 47 -6 47 5 q 19 -72 47 -42 l 43 -100 q 157 67 157 -36 q 138 119 157 99 q 92 140 120 140 z "},"<":{"ha":451,"x_min":69,"x_max":383,"o":"m 383 340 l 383 439 l 69 303 l 69 192 l 383 56 l 383 152 l 150 247 l 383 340 z "},"=":{"ha":451,"x_min":63,"x_max":388,"o":"m 388 381 l 63 381 l 63 293 l 388 293 l 388 381 m 388 204 l 63 204 l 63 116 l 388 116 l 388 204 z "},">":{"ha":451,"x_min":69,"x_max":383,"o":"m 383 303 l 69 439 l 69 340 l 303 247 l 69 152 l 69 56 l 383 192 l 383 303 z "},"?":{"ha":404,"x_min":21,"x_max":390,"o":"m 140 403 q 204 525 142 525 q 246 510 232 525 q 259 437 259 496 q 232 334 259 378 q 132 257 204 290 l 140 175 l 225 175 l 234 257 q 347 318 303 276 q 390 425 390 361 q 342 534 390 489 q 204 580 294 580 q 21 418 32 580 l 140 403 m 185 -6 q 200 -6 185 -6 q 237 15 215 -6 q 258 67 258 37 q 237 119 258 98 q 185 140 215 140 q 133 119 154 140 q 112 67 112 98 q 133 15 112 37 q 185 -6 154 -6 z "},"@":{"ha":839,"x_min":49,"x_max":790,"o":"m 49 246 q 430 -79 49 -79 l 571 -79 l 571 -36 l 430 -36 q 177 246 177 -36 q 243 461 177 388 q 431 534 310 534 q 612 466 551 534 q 672 298 672 399 q 652 193 672 234 q 596 152 631 152 l 581 152 l 581 440 l 526 440 l 507 419 q 405 440 461 440 q 240 265 240 440 q 379 90 240 90 q 467 121 435 90 l 491 98 l 609 98 q 745 156 701 98 q 790 298 790 215 q 692 505 790 432 q 414 577 594 577 q 141 486 234 577 q 49 246 49 395 m 456 148 q 426 143 447 143 q 363 264 363 143 q 432 386 363 386 q 456 388 451 386 l 456 148 z "},"A":{"ha":520,"x_min":6,"x_max":517,"o":"m 335 157 l 382 0 l 517 0 l 341 568 l 179 568 l 6 0 l 84 0 l 131 157 l 335 157 m 315 224 l 151 224 l 234 499 l 315 224 z "},"B":{"ha":496,"x_min":64,"x_max":477,"o":"m 456 423 q 413 524 456 479 q 264 568 371 568 l 64 568 l 64 0 l 287 0 q 434 44 390 0 q 477 152 477 89 q 373 293 477 258 q 456 423 456 324 m 204 315 l 204 518 l 251 518 q 318 416 318 518 q 251 315 318 315 l 204 315 m 204 51 l 204 266 l 268 266 q 319 232 300 266 q 339 152 339 198 q 268 51 339 51 l 204 51 z "},"C":{"ha":478,"x_min":31,"x_max":473,"o":"m 472 414 q 420 538 463 497 q 273 580 377 580 q 84 508 137 580 q 31 284 31 436 q 84 61 31 132 q 261 -11 137 -11 q 425 38 384 -11 q 473 190 466 88 l 361 195 q 342 84 361 121 q 269 47 323 47 q 193 100 215 47 q 171 285 171 153 q 193 469 171 416 q 266 521 215 521 q 337 491 318 521 q 361 397 356 460 l 472 414 z "},"D":{"ha":544,"x_min":64,"x_max":505,"o":"m 64 568 l 64 0 l 269 0 q 455 74 405 0 q 505 284 505 148 q 437 514 505 450 q 269 568 381 568 l 64 568 m 204 51 l 204 518 l 247 518 q 321 484 294 518 q 356 402 347 450 q 365 284 365 355 q 356 166 365 214 q 321 85 347 119 q 247 51 294 51 l 204 51 z "},"E":{"ha":436,"x_min":64,"x_max":418,"o":"m 418 67 l 204 67 l 204 256 l 381 256 l 381 323 l 204 323 l 204 502 l 403 502 l 403 568 l 64 568 l 64 0 l 418 0 l 418 67 z "},"F":{"ha":395,"x_min":64,"x_max":387,"o":"m 204 491 l 387 491 l 387 568 l 64 568 l 64 0 l 204 0 l 204 251 l 355 251 l 355 327 l 204 327 l 204 491 z "},"G":{"ha":542,"x_min":31,"x_max":486,"o":"m 486 295 l 282 295 l 282 229 l 367 229 l 367 211 q 340 83 366 120 q 263 47 315 47 q 191 105 211 47 q 171 290 171 163 q 193 469 171 416 q 266 521 215 521 q 337 491 318 521 q 361 397 356 460 l 472 414 q 420 538 463 497 q 273 580 377 580 q 84 508 137 580 q 31 287 31 436 q 83 64 31 138 q 262 -11 136 -11 q 394 54 344 -11 l 419 0 l 486 0 l 486 295 z "},"H":{"ha":572,"x_min":64,"x_max":507,"o":"m 507 568 l 366 568 l 366 318 l 204 318 l 204 568 l 64 568 l 64 0 l 204 0 l 204 251 l 366 251 l 366 0 l 507 0 l 507 568 z "},"I":{"ha":268,"x_min":64,"x_max":204,"o":"m 204 0 l 204 568 l 64 568 l 64 0 l 204 0 z "},"J":{"ha":390,"x_min":-6,"x_max":337,"o":"m 337 568 l 198 568 l 198 142 q 157 47 198 47 q 116 173 116 47 l -6 173 q 32 21 -6 52 q 142 -11 70 -11 q 253 1 214 -11 q 309 37 292 14 q 337 142 337 78 l 337 568 z "},"K":{"ha":499,"x_min":64,"x_max":515,"o":"m 209 256 l 368 0 l 515 0 l 327 303 l 497 568 l 415 568 l 262 324 l 204 324 l 204 568 l 64 568 l 64 0 l 204 0 l 204 256 l 209 256 z "},"L":{"ha":376,"x_min":64,"x_max":382,"o":"m 382 67 l 204 67 l 204 568 l 64 568 l 64 0 l 382 0 l 382 67 z "},"M":{"ha":701,"x_min":52,"x_max":650,"o":"m 510 0 l 650 0 l 634 568 l 446 568 l 344 163 l 245 568 l 68 568 l 52 0 l 137 0 l 145 473 l 263 0 l 384 0 l 502 456 l 510 0 z "},"N":{"ha":593,"x_min":62,"x_max":529,"o":"m 529 568 l 446 568 l 446 146 l 208 568 l 62 568 l 62 0 l 145 0 l 145 423 l 383 0 l 529 0 l 529 568 z "},"O":{"ha":542,"x_min":31,"x_max":512,"o":"m 272 -11 q 459 66 407 -11 q 512 283 512 143 q 459 501 512 423 q 272 580 407 580 q 77 492 129 580 q 31 284 31 414 q 151 10 31 64 q 272 -11 200 -11 m 171 284 q 178 407 171 357 q 209 490 185 456 q 272 524 232 524 q 373 284 373 524 q 272 44 373 44 q 209 78 232 44 q 178 162 185 112 q 171 284 171 211 z "},"P":{"ha":471,"x_min":64,"x_max":473,"o":"m 64 568 l 64 0 l 204 0 l 204 194 l 287 194 q 430 247 387 194 q 473 381 473 299 q 430 516 473 463 q 287 568 387 568 l 64 568 m 204 245 l 204 518 l 261 518 q 335 381 335 518 q 261 245 335 245 l 204 245 z "},"Q":{"ha":535,"x_min":31,"x_max":512,"o":"m 80 497 q 55 455 80 497 q 31 283 31 414 q 77 76 31 152 q 241 -10 122 0 l 457 -129 l 504 -41 l 376 6 q 512 284 512 54 q 459 501 512 423 q 268 580 407 580 q 80 497 129 580 m 272 524 q 373 284 373 524 q 272 44 373 44 q 209 78 232 44 q 178 162 185 112 q 171 284 171 211 q 178 407 171 357 q 209 490 185 456 q 272 524 232 524 z "},"R":{"ha":526,"x_min":64,"x_max":508,"o":"m 508 0 l 420 211 q 383 250 410 234 q 484 393 484 280 q 447 510 484 460 q 285 568 403 568 l 64 568 l 64 0 l 204 0 l 204 236 l 227 236 q 260 230 252 236 q 277 203 268 224 l 360 0 l 508 0 m 204 285 l 204 518 l 266 518 q 324 481 303 518 q 345 397 345 444 q 324 318 345 350 q 266 285 303 285 l 204 285 z "},"S":{"ha":483,"x_min":26,"x_max":457,"o":"m 38 405 q 73 287 38 327 q 187 229 108 246 l 227 220 q 321 187 298 204 q 345 131 345 171 q 318 68 345 91 q 245 44 292 44 q 137 183 147 44 l 26 166 q 89 32 36 75 q 245 -11 142 -11 q 403 33 348 -11 q 457 158 457 78 q 423 277 457 237 q 308 336 388 318 l 261 348 q 172 382 194 365 q 150 438 150 399 q 174 500 150 477 q 243 524 199 524 q 314 488 288 524 q 342 387 340 452 l 453 403 q 391 536 442 493 q 243 580 340 580 q 38 405 38 580 z "},"T":{"ha":415,"x_min":-9,"x_max":424,"o":"m 424 568 l -9 568 l -9 502 l 140 502 l 140 0 l 278 0 l 278 502 l 424 502 l 424 568 z "},"U":{"ha":551,"x_min":53,"x_max":498,"o":"m 498 568 l 416 568 l 416 188 q 382 88 416 120 q 293 57 347 57 q 193 188 193 57 l 193 568 l 53 568 l 53 188 q 284 -11 53 -11 q 425 28 362 -11 q 498 188 498 74 l 498 568 z "},"V":{"ha":500,"x_min":-2,"x_max":503,"o":"m 503 568 l 420 568 l 279 69 l 137 568 l -2 568 l 171 0 l 331 0 l 503 568 z "},"W":{"ha":730,"x_min":14,"x_max":718,"o":"m 718 568 l 635 568 l 559 169 l 460 568 l 332 568 l 230 167 l 151 568 l 14 568 l 130 0 l 262 0 l 372 414 l 476 0 l 601 0 l 718 568 z "},"X":{"ha":479,"x_min":-20,"x_max":513,"o":"m 353 0 l 513 0 l 315 302 l 503 568 l 420 568 l 273 362 l 140 568 l -20 568 l 177 269 l -9 0 l 73 0 l 217 208 l 353 0 z "},"Y":{"ha":463,"x_min":-14,"x_max":476,"o":"m 302 196 l 476 568 l 395 568 l 256 273 l 126 568 l -14 568 l 162 195 l 162 0 l 302 0 l 302 196 z "},"Z":{"ha":446,"x_min":14,"x_max":432,"o":"m 432 67 l 154 67 l 425 481 l 425 568 l 28 568 l 28 502 l 284 502 l 14 88 l 14 0 l 432 0 l 432 67 z "},"[":{"ha":278,"x_min":52,"x_max":269,"o":"m 193 540 l 269 540 l 269 596 l 52 596 l 52 -28 l 269 -28 l 269 27 l 193 27 l 193 540 z "},"\\":{"ha":334,"x_min":6,"x_max":329,"o":"m 190 -83 l 329 -83 l 145 604 l 6 604 l 190 -83 z "},"]":{"ha":278,"x_min":9,"x_max":226,"o":"m 226 596 l 9 596 l 9 540 l 85 540 l 85 27 l 9 27 l 9 -28 l 226 -28 l 226 596 z "},"^":{"ha":451,"x_min":51,"x_max":402,"o":"m 305 246 l 402 246 l 282 482 l 171 482 l 51 246 l 150 246 l 226 413 l 305 246 z "},"_":{"ha":430,"x_min":44,"x_max":387,"o":"m 387 0 l 44 0 l 44 -89 l 387 -89 l 387 0 z "},"`":{"ha":294,"x_min":0,"x_max":0,"o":""},"a":{"ha":489,"x_min":40,"x_max":432,"o":"m 306 52 l 341 0 l 432 0 l 432 302 q 243 456 432 456 q 108 418 148 456 q 59 302 67 381 l 173 288 q 240 388 178 388 q 295 310 295 388 l 295 266 l 219 251 q 80 203 121 234 q 40 115 40 173 q 75 23 40 57 q 168 -11 110 -11 q 306 52 255 -11 m 162 119 q 240 199 162 182 l 295 210 l 295 100 q 225 61 258 61 q 162 119 162 61 z "},"b":{"ha":510,"x_min":64,"x_max":474,"o":"m 203 440 l 203 599 l 64 582 l 64 0 l 129 0 l 164 32 q 287 -11 219 -11 q 474 222 474 -11 q 287 456 474 456 q 203 440 245 456 m 203 77 l 203 382 q 246 388 227 388 q 316 347 295 388 q 337 222 337 306 q 245 67 337 67 q 203 77 225 67 z "},"c":{"ha":457,"x_min":37,"x_max":420,"o":"m 242 388 q 305 278 304 388 l 419 290 q 373 415 414 374 q 235 456 331 456 q 72 386 114 456 q 37 222 37 326 q 133 7 37 51 q 235 -11 174 -11 q 374 32 332 -11 q 420 163 415 75 l 305 168 q 242 57 304 57 q 190 93 205 57 q 174 223 174 129 q 189 353 174 318 q 242 388 204 388 z "},"d":{"ha":510,"x_min":37,"x_max":446,"o":"m 446 599 l 308 582 l 308 436 q 224 456 269 456 q 37 213 37 456 q 204 -11 37 -11 q 323 42 269 -11 l 352 0 l 446 0 l 446 599 m 243 57 q 174 217 174 57 q 266 378 174 378 q 308 368 288 378 l 308 88 q 243 57 282 57 z "},"e":{"ha":473,"x_min":37,"x_max":437,"o":"m 437 204 l 437 219 q 240 456 437 456 q 37 222 37 456 q 85 47 37 105 q 237 -11 132 -11 q 383 26 341 -11 q 431 127 425 63 l 318 130 q 251 57 318 57 q 193 88 211 57 q 174 204 174 120 l 437 204 m 304 272 l 177 272 q 196 364 182 340 q 242 388 210 388 q 287 360 273 388 q 304 272 302 332 z "},"f":{"ha":283,"x_min":4,"x_max":361,"o":"m 70 450 l 70 445 l 4 445 l 4 374 l 70 374 l 70 0 l 208 0 l 208 374 l 292 374 l 292 445 l 208 445 l 208 479 q 219 515 208 500 q 253 529 231 529 q 320 484 292 529 l 361 583 q 241 612 299 612 q 70 450 70 612 z "},"g":{"ha":491,"x_min":28,"x_max":466,"o":"m 466 392 l 466 445 l 327 445 q 243 456 288 456 q 101 408 142 456 q 59 290 59 361 q 99 177 59 220 l 74 153 q 37 75 37 117 q 93 4 37 17 q 48 -27 67 -4 q 28 -75 28 -51 q 234 -189 28 -189 q 458 -57 458 -189 q 419 34 458 -1 q 310 69 379 69 l 142 69 q 116 88 116 69 q 135 116 116 101 l 159 140 q 243 129 194 129 q 390 176 348 129 q 432 289 432 224 q 405 392 432 353 l 466 392 m 190 293 q 201 367 190 345 q 245 389 213 389 q 289 367 277 389 q 302 292 302 345 q 289 217 302 240 q 245 195 277 195 q 201 218 213 195 q 190 293 190 241 m 267 0 q 321 -17 302 0 q 340 -62 340 -33 q 234 -120 340 -120 q 147 -69 147 -120 q 180 0 147 -31 l 267 0 z "},"h":{"ha":521,"x_min":64,"x_max":465,"o":"m 203 423 l 203 599 l 64 582 l 64 0 l 203 0 l 203 355 q 271 378 237 378 q 316 359 305 378 q 327 295 327 340 l 327 0 l 465 0 l 465 313 q 429 416 465 376 q 329 456 394 456 q 203 423 264 456 z "},"i":{"ha":267,"x_min":51,"x_max":214,"o":"m 133 486 q 150 486 133 486 q 190 508 167 486 q 214 567 214 531 q 190 626 214 602 q 132 650 167 650 q 74 626 98 650 q 51 568 51 602 q 75 510 51 534 q 133 486 99 486 m 201 0 l 201 445 l 63 445 l 63 0 l 201 0 z "},"j":{"ha":268,"x_min":-88,"x_max":214,"o":"m 133 486 q 150 486 133 486 q 190 508 167 486 q 214 567 214 531 q 190 626 214 602 q 132 650 167 650 q 74 626 98 650 q 51 568 51 602 q 75 510 51 534 q 133 486 99 486 m -88 -138 q 32 -166 -26 -166 q 203 -5 203 -166 l 203 445 l 64 445 l 64 -22 q 53 -67 64 -49 q 22 -84 42 -84 q -47 -40 -19 -84 l -88 -138 z "},"k":{"ha":472,"x_min":64,"x_max":471,"o":"m 323 0 l 471 0 l 293 267 l 457 445 l 379 445 l 203 252 l 203 599 l 64 582 l 64 0 l 203 0 l 203 172 l 204 172 l 209 178 l 323 0 z "},"l":{"ha":268,"x_min":64,"x_max":203,"o":"m 203 0 l 203 599 l 64 582 l 64 0 l 203 0 z "},"m":{"ha":785,"x_min":64,"x_max":729,"o":"m 439 407 q 324 456 399 456 q 173 405 248 456 l 127 445 l 64 445 l 64 0 l 203 0 l 203 361 q 268 378 234 378 q 329 315 329 378 l 329 0 l 466 0 l 466 313 q 461 358 466 329 q 529 378 494 378 q 591 315 591 378 l 591 0 l 729 0 l 729 313 q 693 416 729 376 q 583 456 656 456 q 439 407 509 456 z "},"n":{"ha":521,"x_min":64,"x_max":465,"o":"m 173 405 l 127 445 l 64 445 l 64 0 l 203 0 l 203 355 q 271 378 237 378 q 316 358 305 378 q 327 295 327 339 l 327 0 l 465 0 l 465 313 q 429 416 465 376 q 321 456 394 456 q 173 405 248 456 z "},"o":{"ha":496,"x_min":37,"x_max":458,"o":"m 458 222 q 248 456 458 456 q 37 222 37 456 q 248 -11 37 -11 q 458 222 458 -11 m 174 222 q 189 348 174 309 q 248 388 204 388 q 306 349 292 388 q 320 222 320 310 q 306 96 320 135 q 248 57 292 57 q 189 96 204 57 q 174 222 174 136 z "},"p":{"ha":510,"x_min":64,"x_max":474,"o":"m 167 415 l 129 445 l 64 445 l 64 -188 l 203 -169 l 203 -2 q 285 -11 245 -11 q 474 222 474 -11 q 284 456 474 456 q 167 415 226 456 m 203 59 l 203 371 q 242 378 227 378 q 337 217 337 378 q 247 57 337 57 q 203 59 217 57 z "},"q":{"ha":510,"x_min":37,"x_max":446,"o":"m 446 445 l 384 445 l 347 413 q 224 456 293 456 q 37 222 37 456 q 224 -11 37 -11 q 308 6 267 -11 l 308 -167 l 446 -150 l 446 445 m 174 222 q 266 378 174 378 q 308 369 287 378 l 308 63 q 264 57 285 57 q 195 98 215 57 q 174 222 174 140 z "},"r":{"ha":320,"x_min":64,"x_max":324,"o":"m 127 445 l 64 445 l 64 0 l 203 0 l 203 276 q 229 332 203 314 q 324 351 256 351 l 324 449 q 183 367 234 449 l 127 445 z "},"s":{"ha":434,"x_min":27,"x_max":407,"o":"m 238 284 q 173 311 195 297 q 151 348 151 325 q 213 388 151 388 q 288 299 280 388 l 403 314 q 347 420 392 384 q 219 456 303 456 q 85 421 135 456 q 35 323 35 386 q 65 228 35 261 q 157 178 95 195 l 196 166 q 290 98 290 140 q 225 57 290 57 q 167 82 189 57 q 141 150 145 106 l 27 133 q 83 25 38 62 q 216 -11 129 -11 q 355 26 304 -11 q 407 125 407 63 q 373 220 407 188 q 276 271 340 252 l 238 284 z "},"t":{"ha":304,"x_min":10,"x_max":315,"o":"m 297 78 q 247 64 267 64 q 215 108 215 64 l 215 374 l 299 374 l 299 445 l 215 445 l 215 552 l 77 505 l 77 445 l 10 445 l 10 374 l 77 374 l 77 135 q 106 22 77 52 q 202 -11 140 -11 q 315 16 264 -11 l 297 78 z "},"u":{"ha":520,"x_min":57,"x_max":455,"o":"m 455 445 l 318 445 l 318 93 q 253 61 287 61 q 208 83 220 61 q 195 148 195 105 l 195 445 l 57 445 l 57 130 q 203 -11 57 -11 q 331 44 282 -11 l 367 0 l 455 0 l 455 445 z "},"v":{"ha":442,"x_min":1,"x_max":444,"o":"m 444 445 l 366 445 l 252 68 l 138 445 l 1 445 l 145 0 l 299 0 l 444 445 z "},"w":{"ha":614,"x_min":4,"x_max":610,"o":"m 610 445 l 533 445 l 460 105 l 398 445 l 276 445 l 204 108 l 143 445 l 4 445 l 95 0 l 250 0 l 304 231 l 351 0 l 504 0 l 610 445 z "},"x":{"ha":436,"x_min":-6,"x_max":429,"o":"m 279 0 l 429 0 l 273 251 l 424 445 l 347 445 l 240 306 l 152 445 l 1 445 l 152 204 l -6 0 l 70 0 l 184 151 l 279 0 z "},"y":{"ha":430,"x_min":1,"x_max":430,"o":"m 430 445 l 351 445 l 257 154 l 138 445 l 1 445 l 198 -15 l 117 -177 l 219 -188 l 430 445 z "},"z":{"ha":389,"x_min":20,"x_max":369,"o":"m 369 69 l 166 69 l 363 365 l 363 445 l 25 445 l 25 374 l 220 374 l 20 82 l 20 0 l 369 0 l 369 69 z "},"{":{"ha":363,"x_min":0,"x_max":0,"o":""},"|":{"ha":272,"x_min":62,"x_max":209,"o":"m 209 604 l 62 604 l 62 -83 l 209 -83 l 209 604 z "},"}":{"ha":363,"x_min":0,"x_max":0,"o":""},"~":{"ha":451,"x_min":63,"x_max":388,"o":"m 63 204 q 129 185 91 185 q 226 202 166 185 q 323 219 285 219 q 388 204 360 219 l 388 293 q 323 306 360 306 q 226 290 285 306 q 127 273 166 273 q 63 293 89 273 l 63 204 z "}," ":{"ha":204,"x_min":0,"x_max":0,"o":""},"¡":{"ha":266,"x_min":57,"x_max":206,"o":"m 132 457 q 117 457 132 457 q 81 435 103 457 q 59 383 59 413 q 81 332 59 353 q 132 310 103 310 q 184 332 162 310 q 206 384 206 353 q 184 436 206 414 q 132 457 162 457 m 57 -117 l 206 -117 l 206 37 l 173 274 l 93 274 l 57 37 l 57 -117 z "},"¢":{"ha":491,"x_min":40,"x_max":455,"o":"m 347 204 q 323 116 346 147 q 259 84 300 84 q 198 141 219 84 q 178 284 178 198 q 266 484 178 484 q 318 447 297 484 q 341 353 340 409 l 449 358 q 405 481 442 432 q 295 538 367 529 l 295 630 l 204 630 l 204 533 q 40 283 40 499 q 204 35 40 67 l 204 -63 l 295 -63 l 295 32 q 455 195 445 48 l 347 204 z "},"£":{"ha":491,"x_min":40,"x_max":470,"o":"m 470 106 l 187 106 q 220 141 210 125 q 230 187 230 157 l 230 221 l 377 221 l 377 314 l 230 314 l 230 404 q 242 494 230 463 q 287 525 253 525 q 345 390 345 525 l 465 400 q 425 534 465 489 q 287 580 386 580 q 90 404 90 580 l 90 314 l 44 314 l 44 221 l 90 221 l 90 162 q 77 116 90 140 q 40 80 64 93 l 40 0 l 470 0 l 470 106 z "},"¤":{"ha":491,"x_min":10,"x_max":482,"o":"m 413 386 l 482 456 l 418 519 l 350 452 q 249 473 310 473 q 146 449 188 473 l 73 519 l 10 456 l 84 383 q 63 284 63 335 q 84 187 63 232 l 10 112 l 73 49 l 145 119 q 243 95 185 95 q 348 117 302 95 l 418 49 l 482 112 l 411 183 q 435 284 435 224 q 413 386 435 345 m 185 284 q 253 419 185 419 q 314 284 314 419 q 243 150 314 150 q 185 284 185 150 z "},"¥":{"ha":491,"x_min":1,"x_max":489,"o":"m 398 373 l 489 568 l 409 568 l 271 272 l 140 568 l 1 568 l 93 373 l 38 373 l 38 293 l 131 293 l 153 243 l 38 243 l 38 162 l 175 162 l 175 0 l 316 0 l 316 162 l 453 162 l 453 243 l 337 243 l 360 293 l 453 293 l 453 373 l 398 373 z "},"¦":{"ha":272,"x_min":62,"x_max":209,"o":"m 209 604 l 62 604 l 62 316 l 209 316 l 209 604 m 209 206 l 62 206 l 62 -83 l 209 -83 l 209 206 z "},"§":{"ha":402,"x_min":10,"x_max":392,"o":"m 213 484 q 298 547 213 529 l 264 644 q 75 466 75 602 q 108 366 75 415 q 10 221 10 311 q 65 91 10 158 l 162 -22 q 184 -54 179 -43 q 189 -84 189 -64 q 104 -148 189 -130 l 136 -245 q 326 -67 326 -203 q 295 36 326 -10 q 392 172 392 88 q 331 311 392 256 l 229 435 q 213 484 213 456 m 177 280 l 226 224 q 249 191 245 201 q 253 158 253 180 q 224 117 253 136 l 163 190 q 148 237 148 210 q 177 280 148 263 z "},"¨":{"ha":347,"x_min":2,"x_max":346,"o":"m 75 493 q 90 493 75 493 q 127 515 105 493 q 148 567 148 536 q 127 618 148 597 q 74 640 105 640 q 23 618 43 640 q 2 567 2 597 q 23 515 2 538 q 75 493 44 493 m 272 493 q 288 493 272 493 q 324 515 303 493 q 346 567 346 536 q 324 618 346 597 q 272 640 303 640 q 221 618 242 640 q 199 567 199 597 q 221 515 199 538 q 272 493 242 493 z "},"©":{"ha":576,"x_min":28,"x_max":547,"o":"m 28 436 q 28 373 28 436 q 95 243 28 309 q 289 177 162 177 q 481 243 415 177 q 547 436 547 309 q 481 630 547 563 q 289 696 415 696 q 95 630 162 696 q 28 436 28 563 m 288 631 q 479 436 479 631 q 288 241 479 241 q 96 436 96 241 q 288 631 96 631 m 408 493 q 289 598 400 598 q 196 558 225 598 q 168 437 168 518 q 195 314 168 356 q 289 273 222 273 q 409 395 405 273 l 347 398 q 294 329 341 329 q 240 437 240 329 q 254 515 240 484 q 294 545 268 545 q 331 531 320 545 q 344 487 341 518 l 408 493 z "},"ª":{"ha":336,"x_min":17,"x_max":313,"o":"m 131 473 q 143 533 133 519 q 168 546 152 546 q 195 483 195 546 l 195 452 l 133 446 q 51 415 79 440 q 23 353 23 390 q 116 264 23 264 q 213 302 168 264 l 246 273 l 308 273 l 308 484 q 168 592 308 592 q 79 567 114 592 q 40 494 44 541 l 131 473 m 192 321 l 167 319 q 129 356 129 319 q 179 416 129 411 l 195 418 l 195 323 l 192 321 m 313 220 l 17 220 l 17 142 l 313 142 l 313 220 z "},"«":{"ha":418,"x_min":17,"x_max":399,"o":"m 208 127 l 125 246 l 208 363 l 166 407 l 17 268 l 17 222 l 166 84 l 208 127 m 399 127 l 315 246 l 399 363 l 356 407 l 209 268 l 209 222 l 356 84 l 399 127 z "},"¬":{"ha":451,"x_min":63,"x_max":388,"o":"m 388 293 l 63 293 l 63 204 l 304 204 l 304 95 l 388 95 l 388 293 z "},"®":{"ha":576,"x_min":28,"x_max":547,"o":"m 28 436 q 28 373 28 436 q 95 243 28 309 q 289 177 162 177 q 481 243 415 177 q 547 436 547 309 q 481 630 547 563 q 289 696 415 696 q 95 630 162 696 q 28 436 28 563 m 288 631 q 479 436 479 631 q 288 241 479 241 q 96 436 96 241 q 288 631 96 631 m 187 593 l 187 280 l 258 280 l 258 399 l 276 399 q 294 382 287 399 l 337 280 l 414 280 l 368 383 q 350 410 360 400 q 400 500 400 425 q 293 593 400 593 l 187 593 m 258 451 l 258 540 l 292 540 q 327 496 327 540 q 292 451 327 451 l 258 451 z "},"¯":{"ha":276,"x_min":17,"x_max":259,"o":"m 259 602 l 17 602 l 17 508 l 259 508 l 259 602 z "},"°":{"ha":330,"x_min":17,"x_max":313,"o":"m 166 292 q 201 292 166 292 q 274 331 236 292 q 313 437 313 369 q 272 542 313 504 q 162 580 231 580 q 55 541 93 580 q 17 434 17 502 q 57 329 17 366 q 166 292 96 292 m 163 347 q 124 436 124 347 q 163 525 124 525 q 208 436 208 525 q 163 347 208 347 z "},"±":{"ha":451,"x_min":63,"x_max":388,"o":"m 182 331 l 63 331 l 63 242 l 182 242 l 182 124 l 271 124 l 271 242 l 388 242 l 388 331 l 271 331 l 271 450 l 182 450 l 182 331 m 388 89 l 63 89 l 63 0 l 388 0 l 388 89 z "},"²":{"ha":356,"x_min":49,"x_max":306,"o":"m 140 510 q 175 589 141 589 q 205 552 205 589 q 196 494 205 514 q 159 452 188 473 l 49 374 l 49 311 l 305 311 l 305 388 l 158 388 l 251 452 q 306 539 306 492 q 175 629 306 629 q 85 604 115 629 q 51 523 56 578 l 140 510 z "},"³":{"ha":356,"x_min":46,"x_max":309,"o":"m 305 551 q 271 607 305 586 q 175 629 236 629 q 85 607 114 629 q 51 531 56 586 l 140 520 q 173 589 143 589 q 197 582 190 589 q 204 544 204 575 q 195 502 204 514 q 148 489 185 489 l 122 489 l 122 442 l 147 442 q 157 443 148 442 q 169 443 166 444 q 181 441 173 442 q 193 436 189 440 q 201 428 196 432 q 210 389 210 418 q 173 346 210 346 q 135 410 136 346 l 46 398 q 80 326 49 346 q 174 305 110 305 q 273 331 237 305 q 309 389 309 356 q 215 467 309 455 q 305 551 305 481 z "},"´":{"ha":224,"x_min":57,"x_max":241,"o":"m 162 685 l 57 518 l 84 487 l 241 593 l 162 685 z "},"µ":{"ha":478,"x_min":62,"x_max":458,"o":"m 458 445 l 320 445 l 320 161 q 264 93 320 93 q 200 105 227 93 l 200 445 l 62 445 l 62 -177 l 200 -177 l 200 11 q 325 -11 258 -11 q 425 29 392 -11 q 458 132 458 69 l 458 445 z "},"¶":{"ha":411,"x_min":2,"x_max":331,"o":"m 331 521 l 168 521 q 44 475 86 521 q 2 361 2 429 q 44 248 2 294 q 168 201 86 201 l 193 201 l 193 0 l 331 0 l 331 521 z "},"·":{"ha":184,"x_min":20,"x_max":164,"o":"m 92 200 q 107 200 92 200 q 143 222 122 200 q 164 274 164 243 q 143 326 164 304 q 92 347 122 347 q 41 326 62 347 q 20 274 20 305 q 41 222 20 243 q 92 200 62 200 z "},"¸":{"ha":209,"x_min":7,"x_max":201,"o":"m 129 5 l 73 5 l 53 -69 q 108 -89 94 -77 q 122 -126 122 -101 q 103 -151 122 -151 q 87 -138 94 -151 q 80 -105 80 -126 l 7 -114 q 105 -195 7 -195 q 178 -171 154 -195 q 201 -109 201 -146 q 117 -30 201 -42 l 129 5 z "},"¹":{"ha":347,"x_min":57,"x_max":290,"o":"m 290 351 l 229 351 l 229 624 l 187 624 q 57 587 119 591 l 57 551 l 127 552 l 127 351 l 58 351 l 58 311 l 290 311 l 290 351 z "},"º":{"ha":346,"x_min":17,"x_max":329,"o":"m 173 264 q 251 264 173 264 q 329 428 329 264 q 173 592 329 592 q 17 428 17 592 q 173 264 17 264 m 132 429 q 140 521 132 497 q 172 546 148 546 q 205 522 196 546 q 213 429 213 498 q 205 335 213 360 q 172 310 196 310 q 140 335 148 310 q 132 429 132 361 m 320 220 l 26 220 l 26 142 l 320 142 l 320 220 z "},"»":{"ha":418,"x_min":17,"x_max":399,"o":"m 17 363 l 104 246 l 17 127 l 62 84 l 208 222 l 208 268 l 62 407 l 17 363 m 210 363 l 293 246 l 210 127 l 251 84 l 399 222 l 399 268 l 251 407 l 210 363 z "},"¼":{"ha":807,"x_min":57,"x_max":765,"o":"m 229 299 l 229 573 l 187 573 q 57 536 124 541 l 57 499 l 127 502 l 127 299 l 58 299 l 58 261 l 290 261 l 290 299 l 229 299 m 515 568 l 458 568 l 308 0 l 363 0 l 515 568 m 765 49 l 765 125 l 740 125 l 740 313 l 588 313 l 481 112 l 481 49 l 640 49 l 640 0 l 740 0 l 740 49 l 765 49 m 640 125 l 561 125 l 640 274 l 640 125 z "},"½":{"ha":807,"x_min":70,"x_max":757,"o":"m 241 299 l 241 573 l 200 573 q 70 536 137 541 l 70 499 l 140 502 l 140 299 l 72 299 l 72 261 l 304 261 l 304 299 l 241 299 m 515 568 l 458 568 l 308 0 l 363 0 l 515 568 m 609 77 l 703 141 q 757 227 757 180 q 723 296 757 274 q 628 318 688 318 q 537 292 567 318 q 503 211 507 267 l 591 199 q 601 260 593 242 q 628 278 609 278 q 656 240 656 278 q 647 182 656 203 q 610 141 639 162 l 500 63 l 500 0 l 756 0 l 756 77 l 609 77 z "},"¾":{"ha":807,"x_min":46,"x_max":765,"o":"m 305 500 q 271 557 305 535 q 175 578 236 578 q 85 557 115 578 q 51 481 56 535 l 140 470 q 173 539 143 539 q 197 531 190 539 q 204 494 204 524 q 195 452 204 465 q 148 439 185 439 l 122 439 l 122 392 l 147 392 q 157 392 148 392 q 169 392 166 393 q 181 390 173 392 q 193 386 189 389 q 201 376 196 382 q 210 339 210 367 q 173 295 210 295 q 135 360 136 295 l 46 347 q 80 274 49 295 q 174 253 110 253 q 273 279 237 253 q 309 339 309 304 q 215 416 309 402 q 305 500 305 430 m 515 568 l 458 568 l 308 0 l 363 0 l 515 568 m 765 49 l 765 125 l 740 125 l 740 313 l 588 313 l 481 112 l 481 49 l 640 49 l 640 0 l 740 0 l 740 49 l 765 49 m 640 125 l 561 125 l 640 274 l 640 125 z "},"¿":{"ha":395,"x_min":6,"x_max":377,"o":"m 213 457 q 198 457 213 457 q 161 436 183 457 q 140 384 140 414 q 161 332 140 353 q 213 310 183 310 q 264 331 243 310 q 284 383 284 352 q 263 436 284 414 q 213 457 242 457 m 259 48 q 195 -74 256 -74 q 153 -59 167 -74 q 140 14 140 -44 q 167 117 140 73 q 266 194 194 161 l 257 274 l 173 274 l 163 194 q 50 133 94 175 q 6 26 6 90 q 55 -83 6 -38 q 195 -129 104 -129 q 377 33 367 -129 l 259 48 z "},"À":{"ha":520,"x_min":6,"x_max":517,"o":"m 294 610 l 320 641 l 215 807 l 136 717 l 294 610 m 335 157 l 382 0 l 517 0 l 341 568 l 179 568 l 6 0 l 84 0 l 131 157 l 335 157 m 315 224 l 151 224 l 234 499 l 315 224 z "},"Á":{"ha":520,"x_min":6,"x_max":517,"o":"m 225 610 l 383 717 l 304 807 l 198 641 l 225 610 m 335 157 l 382 0 l 517 0 l 341 568 l 179 568 l 6 0 l 84 0 l 131 157 l 335 157 m 315 224 l 151 224 l 234 499 l 315 224 z "},"Â":{"ha":520,"x_min":6,"x_max":517,"o":"m 175 607 l 259 682 l 345 607 l 382 638 l 293 785 l 229 785 l 138 638 l 175 607 m 335 157 l 382 0 l 517 0 l 341 568 l 179 568 l 6 0 l 84 0 l 131 157 l 335 157 m 315 224 l 151 224 l 234 499 l 315 224 z "},"Ã":{"ha":520,"x_min":6,"x_max":517,"o":"m 204 662 q 255 648 220 662 q 320 634 290 634 q 373 660 350 634 q 404 743 397 686 l 361 757 q 315 723 350 723 q 263 738 298 723 q 199 753 227 753 q 116 640 129 753 l 158 625 q 204 662 171 662 m 335 157 l 382 0 l 517 0 l 341 568 l 179 568 l 6 0 l 84 0 l 131 157 l 335 157 m 315 224 l 151 224 l 234 499 l 315 224 z "},"Ä":{"ha":520,"x_min":6,"x_max":517,"o":"m 161 617 q 176 617 161 617 q 213 638 192 617 q 235 690 235 660 q 213 742 235 720 q 161 764 192 764 q 110 742 131 764 q 89 690 89 720 q 110 638 89 660 q 161 617 131 617 m 359 617 q 374 617 359 617 q 411 638 389 617 q 432 690 432 660 q 411 742 432 720 q 359 764 389 764 q 307 742 329 764 q 285 691 285 720 q 307 639 285 661 q 359 617 329 617 m 335 157 l 382 0 l 517 0 l 341 568 l 179 568 l 6 0 l 84 0 l 131 157 l 335 157 m 315 224 l 151 224 l 234 499 l 315 224 z "},"Å":{"ha":520,"x_min":6,"x_max":517,"o":"m 356 696 q 335 761 356 733 q 259 788 314 788 q 164 694 164 788 q 260 601 164 601 q 356 696 356 601 m 289 696 q 259 646 289 646 q 230 696 230 646 q 259 745 230 745 q 289 696 289 745 m 335 157 l 382 0 l 517 0 l 341 568 l 179 568 l 6 0 l 84 0 l 131 157 l 335 157 m 315 224 l 151 224 l 234 499 l 315 224 z "},"Æ":{"ha":745,"x_min":12,"x_max":727,"o":"m 727 67 l 514 67 l 514 240 l 690 240 l 690 306 l 514 306 l 514 502 l 711 502 l 711 568 l 251 568 l 12 0 l 93 0 l 192 240 l 373 240 l 373 0 l 727 0 l 727 67 m 373 306 l 217 306 l 298 502 l 373 502 l 373 306 z "},"Ç":{"ha":478,"x_min":31,"x_max":473,"o":"m 361 195 q 342 84 361 121 q 269 47 323 47 q 193 100 215 47 q 171 285 171 153 q 193 469 171 416 q 266 521 215 521 q 337 491 318 521 q 361 397 356 460 l 472 414 q 420 538 463 497 q 273 580 377 580 q 84 508 137 580 q 31 290 31 436 q 75 74 31 145 q 229 -9 119 2 l 213 -69 q 268 -89 253 -77 q 282 -126 282 -101 q 262 -151 282 -151 q 247 -138 253 -151 q 240 -105 240 -126 l 167 -114 q 263 -195 167 -195 q 337 -171 314 -195 q 361 -109 361 -146 q 277 -30 361 -42 l 284 -11 q 427 41 388 -9 q 473 190 466 90 l 361 195 z "},"È":{"ha":436,"x_min":64,"x_max":418,"o":"m 267 610 l 294 641 l 188 807 l 109 717 l 267 610 m 418 67 l 204 67 l 204 256 l 381 256 l 381 323 l 204 323 l 204 502 l 403 502 l 403 568 l 64 568 l 64 0 l 418 0 l 418 67 z "},"É":{"ha":436,"x_min":64,"x_max":418,"o":"m 198 610 l 356 717 l 277 807 l 172 641 l 198 610 m 418 67 l 204 67 l 204 256 l 381 256 l 381 323 l 204 323 l 204 502 l 403 502 l 403 568 l 64 568 l 64 0 l 418 0 l 418 67 z "},"Ê":{"ha":436,"x_min":64,"x_max":418,"o":"m 150 607 l 232 682 l 318 607 l 355 638 l 266 785 l 203 785 l 111 638 l 150 607 m 418 67 l 204 67 l 204 256 l 381 256 l 381 323 l 204 323 l 204 502 l 403 502 l 403 568 l 64 568 l 64 0 l 418 0 l 418 67 z "},"Ë":{"ha":436,"x_min":62,"x_max":418,"o":"m 135 617 q 150 617 135 617 q 186 638 164 617 q 208 690 208 660 q 186 742 208 720 q 134 764 164 764 q 83 742 104 764 q 62 690 62 720 q 83 638 62 660 q 135 617 105 617 m 332 617 q 347 617 332 617 q 384 638 362 617 q 407 690 407 660 q 384 742 407 720 q 332 764 362 764 q 281 742 303 764 q 259 691 259 720 q 281 639 259 661 q 332 617 303 617 m 418 67 l 204 67 l 204 256 l 381 256 l 381 323 l 204 323 l 204 502 l 403 502 l 403 568 l 64 568 l 64 0 l 418 0 l 418 67 z "},"Ì":{"ha":268,"x_min":10,"x_max":204,"o":"m 168 610 l 195 641 l 89 807 l 10 717 l 168 610 m 204 0 l 204 568 l 64 568 l 64 0 l 204 0 z "},"Í":{"ha":268,"x_min":64,"x_max":257,"o":"m 178 807 l 73 641 l 99 610 l 257 717 l 178 807 m 204 0 l 204 568 l 64 568 l 64 0 l 204 0 z "},"Î":{"ha":268,"x_min":12,"x_max":256,"o":"m 104 785 l 12 638 l 51 607 l 133 682 l 219 607 l 256 638 l 167 785 l 104 785 m 204 0 l 204 568 l 64 568 l 64 0 l 204 0 z "},"Ï":{"ha":268,"x_min":-37,"x_max":306,"o":"m 35 617 q 50 617 35 617 q 87 638 65 617 q 109 690 109 660 q 87 742 109 720 q 35 764 65 764 q -16 742 5 764 q -37 690 -37 720 q -16 638 -37 660 q 35 617 5 617 m 234 617 q 248 617 234 617 q 285 638 263 617 q 306 690 306 660 q 285 742 306 720 q 234 764 263 764 q 182 742 204 764 q 161 691 161 720 q 182 639 161 661 q 234 617 204 617 m 204 0 l 204 568 l 64 568 l 64 0 l 204 0 z "},"Ð":{"ha":544,"x_min":37,"x_max":505,"o":"m 64 568 l 64 325 l 37 325 l 37 236 l 64 236 l 64 0 l 269 0 q 455 74 405 0 q 505 284 505 148 q 437 514 505 450 q 269 568 381 568 l 64 568 m 204 51 l 204 236 l 310 236 l 310 325 l 204 325 l 204 518 l 247 518 q 321 484 294 518 q 356 402 347 450 q 365 284 365 355 q 356 166 365 214 q 321 85 347 119 q 247 51 294 51 l 204 51 z "},"Ñ":{"ha":593,"x_min":62,"x_max":529,"o":"m 240 662 q 291 648 256 662 q 356 634 326 634 q 409 660 386 634 q 440 743 432 686 l 395 757 q 351 723 386 723 q 298 738 334 723 q 235 753 263 753 q 151 640 166 753 l 194 625 q 240 662 208 662 m 529 568 l 446 568 l 446 146 l 208 568 l 62 568 l 62 0 l 145 0 l 145 423 l 383 0 l 529 0 l 529 568 z "},"Ò":{"ha":542,"x_min":31,"x_max":512,"o":"m 306 610 l 332 641 l 227 807 l 148 717 l 306 610 m 272 -11 q 459 66 407 -11 q 512 283 512 143 q 459 501 512 423 q 272 580 407 580 q 77 492 129 580 q 31 284 31 414 q 151 10 31 64 q 272 -11 200 -11 m 171 284 q 178 407 171 357 q 209 490 185 456 q 272 524 232 524 q 373 284 373 524 q 272 44 373 44 q 209 78 232 44 q 178 162 185 112 q 171 284 171 211 z "},"Ó":{"ha":542,"x_min":31,"x_max":512,"o":"m 316 807 l 210 641 l 237 610 l 395 717 l 316 807 m 272 -11 q 459 66 407 -11 q 512 283 512 143 q 459 501 512 423 q 272 580 407 580 q 77 492 129 580 q 31 284 31 414 q 151 10 31 64 q 272 -11 200 -11 m 171 284 q 178 407 171 357 q 209 490 185 456 q 272 524 232 524 q 373 284 373 524 q 272 44 373 44 q 209 78 232 44 q 178 162 185 112 q 171 284 171 211 z "},"Ô":{"ha":542,"x_min":31,"x_max":512,"o":"m 241 785 l 151 638 l 188 607 l 272 682 l 357 607 l 394 638 l 305 785 l 241 785 m 272 -11 q 459 66 407 -11 q 512 283 512 143 q 459 501 512 423 q 272 580 407 580 q 77 492 129 580 q 31 284 31 414 q 151 10 31 64 q 272 -11 200 -11 m 171 284 q 178 407 171 357 q 209 490 185 456 q 272 524 232 524 q 373 284 373 524 q 272 44 373 44 q 209 78 232 44 q 178 162 185 112 q 171 284 171 211 z "},"Õ":{"ha":542,"x_min":31,"x_max":512,"o":"m 416 743 l 373 757 q 327 723 362 723 q 275 738 310 723 q 211 753 240 753 q 129 640 141 753 l 171 625 q 216 662 183 662 q 268 648 232 662 q 332 634 303 634 q 386 660 362 634 q 416 743 409 686 m 272 -11 q 459 66 407 -11 q 512 283 512 143 q 459 501 512 423 q 272 580 407 580 q 77 492 129 580 q 31 284 31 414 q 151 10 31 64 q 272 -11 200 -11 m 171 284 q 178 407 171 357 q 209 490 185 456 q 272 524 232 524 q 373 284 373 524 q 272 44 373 44 q 209 78 232 44 q 178 162 185 112 q 171 284 171 211 z "},"Ö":{"ha":542,"x_min":31,"x_max":512,"o":"m 172 617 q 188 617 172 617 q 224 638 203 617 q 246 690 246 660 q 224 742 246 720 q 172 764 203 764 q 121 742 142 764 q 100 690 100 720 q 121 638 100 660 q 172 617 142 617 m 370 617 q 385 617 370 617 q 422 638 400 617 q 444 690 444 660 q 422 742 444 720 q 370 764 400 764 q 318 742 340 764 q 297 691 297 720 q 318 639 297 661 q 370 617 340 617 m 272 -11 q 459 66 407 -11 q 512 283 512 143 q 459 501 512 423 q 272 580 407 580 q 77 492 129 580 q 31 284 31 414 q 151 10 31 64 q 272 -11 200 -11 m 171 284 q 178 407 171 357 q 209 490 185 456 q 272 524 232 524 q 373 284 373 524 q 272 44 373 44 q 209 78 232 44 q 178 162 185 112 q 171 284 171 211 z "},"×":{"ha":451,"x_min":65,"x_max":386,"o":"m 162 248 l 65 151 l 127 86 l 226 184 l 324 86 l 386 151 l 289 248 l 386 345 l 324 408 l 226 310 l 127 408 l 65 345 l 162 248 z "},"Ø":{"ha":542,"x_min":31,"x_max":512,"o":"m 374 610 l 318 610 l 310 577 q 272 580 285 580 q 77 492 129 580 q 31 293 31 414 q 64 99 31 172 q 178 1 96 27 l 168 -43 l 224 -43 l 231 -9 q 272 -11 256 -11 q 459 66 407 -11 q 512 269 512 143 q 479 468 512 395 q 365 566 446 540 l 374 610 m 272 524 q 297 519 287 524 l 199 93 q 171 253 171 148 q 178 407 171 357 q 209 490 185 456 q 272 524 232 524 m 245 49 l 344 474 q 373 284 373 416 q 272 44 373 44 q 245 49 255 44 z "},"Ù":{"ha":551,"x_min":53,"x_max":498,"o":"m 318 610 l 344 641 l 238 807 l 159 717 l 318 610 m 498 568 l 416 568 l 416 188 q 382 88 416 120 q 293 57 347 57 q 193 188 193 57 l 193 568 l 53 568 l 53 188 q 284 -11 53 -11 q 425 28 362 -11 q 498 188 498 74 l 498 568 z "},"Ú":{"ha":551,"x_min":53,"x_max":498,"o":"m 327 807 l 221 641 l 248 610 l 407 717 l 327 807 m 498 568 l 416 568 l 416 188 q 382 88 416 120 q 293 57 347 57 q 193 188 193 57 l 193 568 l 53 568 l 53 188 q 284 -11 53 -11 q 425 28 362 -11 q 498 188 498 74 l 498 568 z "},"Û":{"ha":551,"x_min":53,"x_max":498,"o":"m 252 785 l 162 638 l 199 607 l 283 682 l 368 607 l 405 638 l 316 785 l 252 785 m 498 568 l 416 568 l 416 188 q 382 88 416 120 q 293 57 347 57 q 193 188 193 57 l 193 568 l 53 568 l 53 188 q 284 -11 53 -11 q 425 28 362 -11 q 498 188 498 74 l 498 568 z "},"Ü":{"ha":551,"x_min":53,"x_max":498,"o":"m 185 617 q 200 617 185 617 q 237 638 215 617 q 258 690 258 660 q 237 742 258 720 q 184 764 215 764 q 133 742 153 764 q 112 690 112 720 q 133 638 112 660 q 185 617 154 617 m 382 617 q 398 617 382 617 q 434 638 413 617 q 456 690 456 660 q 434 742 456 720 q 382 764 413 764 q 331 742 352 764 q 309 691 309 720 q 331 639 309 661 q 382 617 352 617 m 498 568 l 416 568 l 416 188 q 382 88 416 120 q 293 57 347 57 q 193 188 193 57 l 193 568 l 53 568 l 53 188 q 284 -11 53 -11 q 425 28 362 -11 q 498 188 498 74 l 498 568 z "},"Ý":{"ha":463,"x_min":-14,"x_max":476,"o":"m 196 610 l 355 717 l 276 807 l 171 641 l 196 610 m 302 196 l 476 568 l 395 568 l 256 273 l 126 568 l -14 568 l 162 195 l 162 0 l 302 0 l 302 196 z "},"Þ":{"ha":471,"x_min":64,"x_max":473,"o":"m 204 473 l 204 576 l 64 576 l 64 0 l 204 0 l 204 101 l 287 101 q 430 153 387 101 q 473 287 473 205 q 287 473 473 473 l 204 473 m 204 152 l 204 424 l 261 424 q 335 288 335 424 q 261 152 335 152 l 204 152 z "},"ß":{"ha":526,"x_min":73,"x_max":524,"o":"m 386 90 q 366 43 386 43 q 343 66 347 43 q 340 157 339 89 l 229 157 q 371 -11 229 -11 q 485 30 446 -11 q 524 138 524 72 q 487 250 524 205 q 379 304 451 294 q 467 411 467 335 q 415 531 467 487 q 266 576 362 576 q 121 534 169 576 q 73 395 73 493 l 73 0 l 210 0 l 210 395 q 222 494 210 465 q 268 523 234 523 q 315 493 302 523 q 329 392 329 463 q 283 320 329 320 l 246 320 l 246 273 l 303 273 q 364 248 342 273 q 386 147 386 222 l 386 90 z "},"à":{"ha":489,"x_min":40,"x_max":432,"o":"m 285 487 l 313 518 l 206 685 l 129 593 l 285 487 m 306 52 l 341 0 l 432 0 l 432 302 q 243 456 432 456 q 108 418 148 456 q 59 302 67 381 l 173 288 q 240 388 178 388 q 295 310 295 388 l 295 266 l 219 251 q 80 203 121 234 q 40 115 40 173 q 75 23 40 57 q 168 -11 110 -11 q 306 52 255 -11 m 162 119 q 240 199 162 182 l 295 210 l 295 100 q 225 61 258 61 q 162 119 162 61 z "},"á":{"ha":489,"x_min":40,"x_max":432,"o":"m 295 685 l 190 518 l 217 487 l 374 593 l 295 685 m 306 52 l 341 0 l 432 0 l 432 302 q 243 456 432 456 q 108 418 148 456 q 59 302 67 381 l 173 288 q 240 388 178 388 q 295 310 295 388 l 295 266 l 219 251 q 80 203 121 234 q 40 115 40 173 q 75 23 40 57 q 168 -11 110 -11 q 306 52 255 -11 m 162 119 q 240 199 162 182 l 295 210 l 295 100 q 225 61 258 61 q 162 119 162 61 z "},"â":{"ha":489,"x_min":40,"x_max":432,"o":"m 221 662 l 130 514 l 168 484 l 251 559 l 337 484 l 373 514 l 284 662 l 221 662 m 306 52 l 341 0 l 432 0 l 432 302 q 243 456 432 456 q 108 418 148 456 q 59 302 67 381 l 173 288 q 240 388 178 388 q 295 310 295 388 l 295 266 l 219 251 q 80 203 121 234 q 40 115 40 173 q 75 23 40 57 q 168 -11 110 -11 q 306 52 255 -11 m 162 119 q 240 199 162 182 l 295 210 l 295 100 q 225 61 258 61 q 162 119 162 61 z "},"ã":{"ha":489,"x_min":40,"x_max":432,"o":"m 395 619 l 352 634 q 306 599 342 599 q 255 614 290 599 q 192 629 220 629 q 108 518 120 629 l 151 502 q 195 540 164 540 q 248 525 213 540 q 313 510 283 510 q 365 536 342 510 q 395 619 388 562 m 306 52 l 341 0 l 432 0 l 432 302 q 243 456 432 456 q 108 418 148 456 q 59 302 67 381 l 173 288 q 240 388 178 388 q 295 310 295 388 l 295 266 l 219 251 q 80 203 121 234 q 40 115 40 173 q 75 23 40 57 q 168 -11 110 -11 q 306 52 255 -11 m 162 119 q 240 199 162 182 l 295 210 l 295 100 q 225 61 258 61 q 162 119 162 61 z "},"ä":{"ha":489,"x_min":40,"x_max":432,"o":"m 154 493 q 169 493 154 493 q 206 515 184 493 q 227 567 227 536 q 206 618 227 597 q 153 640 184 640 q 102 618 122 640 q 82 567 82 597 q 103 515 82 538 q 154 493 124 493 m 352 493 q 367 493 352 493 q 403 515 382 493 q 425 567 425 536 q 403 618 425 597 q 352 640 382 640 q 300 618 321 640 q 278 567 278 597 q 300 515 278 538 q 352 493 321 493 m 306 52 l 341 0 l 432 0 l 432 302 q 243 456 432 456 q 108 418 148 456 q 59 302 67 381 l 173 288 q 240 388 178 388 q 295 310 295 388 l 295 266 l 219 251 q 80 203 121 234 q 40 115 40 173 q 75 23 40 57 q 168 -11 110 -11 q 306 52 255 -11 m 162 119 q 240 199 162 182 l 295 210 l 295 100 q 225 61 258 61 q 162 119 162 61 z "},"å":{"ha":489,"x_min":40,"x_max":432,"o":"m 348 572 q 327 637 348 609 q 251 665 305 665 q 157 571 157 665 q 253 477 157 477 q 348 572 348 477 m 222 572 q 252 622 222 622 q 282 572 282 622 q 252 523 282 523 q 222 572 222 523 m 306 52 l 341 0 l 432 0 l 432 302 q 243 456 432 456 q 108 418 148 456 q 59 302 67 381 l 173 288 q 240 388 178 388 q 295 310 295 388 l 295 266 l 219 251 q 80 203 121 234 q 40 115 40 173 q 75 23 40 57 q 168 -11 110 -11 q 306 52 255 -11 m 162 119 q 240 199 162 182 l 295 210 l 295 100 q 225 61 258 61 q 162 119 162 61 z "},"æ":{"ha":715,"x_min":40,"x_max":678,"o":"m 678 204 l 678 219 q 483 456 678 456 q 362 428 413 456 q 232 456 316 456 q 108 418 148 456 q 59 302 67 381 l 173 288 q 240 388 178 388 q 294 332 282 388 q 280 263 283 304 l 219 256 q 82 209 125 243 q 40 116 40 174 q 75 23 40 57 q 168 -11 110 -11 q 316 61 262 -11 q 486 -11 363 -11 q 672 127 661 -11 l 560 130 q 493 57 557 57 q 434 88 452 57 q 416 204 416 119 l 678 204 m 544 272 l 418 272 q 436 364 421 340 q 482 388 451 388 q 544 272 539 388 m 216 61 q 177 77 192 61 q 162 124 162 93 q 183 176 162 154 q 240 203 205 198 l 278 208 q 295 100 280 141 q 216 61 269 61 z "},"ç":{"ha":457,"x_min":37,"x_max":420,"o":"m 305 168 q 242 57 304 57 q 190 93 205 57 q 174 223 174 129 q 189 353 174 318 q 242 388 204 388 q 305 278 304 388 l 419 290 q 373 415 414 374 q 235 456 331 456 q 72 386 114 456 q 37 222 37 326 q 116 17 37 68 q 198 -9 148 -4 l 182 -69 q 237 -89 222 -77 q 251 -126 251 -101 q 230 -151 251 -151 q 214 -138 221 -151 q 208 -105 208 -126 l 136 -114 q 232 -195 136 -195 q 306 -171 283 -195 q 329 -109 329 -146 q 246 -30 329 -42 l 252 -11 q 377 36 339 -7 q 420 163 415 79 l 305 168 z "},"è":{"ha":473,"x_min":37,"x_max":437,"o":"m 268 487 l 295 518 l 189 685 l 110 593 l 268 487 m 437 204 l 437 219 q 240 456 437 456 q 37 222 37 456 q 85 47 37 105 q 237 -11 132 -11 q 383 26 341 -11 q 431 127 425 63 l 318 130 q 251 57 318 57 q 193 88 211 57 q 174 204 174 120 l 437 204 m 304 272 l 177 272 q 196 364 182 340 q 242 388 210 388 q 287 360 273 388 q 304 272 302 332 z "},"é":{"ha":473,"x_min":37,"x_max":437,"o":"m 199 487 l 357 593 l 278 685 l 173 518 l 199 487 m 437 204 l 437 219 q 240 456 437 456 q 37 222 37 456 q 85 47 37 105 q 237 -11 132 -11 q 383 26 341 -11 q 431 127 425 63 l 318 130 q 251 57 318 57 q 193 88 211 57 q 174 204 174 120 l 437 204 m 304 272 l 177 272 q 196 364 182 340 q 242 388 210 388 q 287 360 273 388 q 304 272 302 332 z "},"ê":{"ha":473,"x_min":37,"x_max":437,"o":"m 151 484 l 234 559 l 319 484 l 356 514 l 267 662 l 204 662 l 112 514 l 151 484 m 437 204 l 437 219 q 240 456 437 456 q 37 222 37 456 q 85 47 37 105 q 237 -11 132 -11 q 383 26 341 -11 q 431 127 425 63 l 318 130 q 251 57 318 57 q 193 88 211 57 q 174 204 174 120 l 437 204 m 304 272 l 177 272 q 196 364 182 340 q 242 388 210 388 q 287 360 273 388 q 304 272 302 332 z "},"ë":{"ha":473,"x_min":37,"x_max":437,"o":"m 135 493 q 150 493 135 493 q 186 515 164 493 q 208 567 208 536 q 186 618 208 597 q 134 640 164 640 q 83 618 104 640 q 62 567 62 597 q 83 515 62 538 q 135 493 105 493 m 332 493 q 347 493 332 493 q 384 515 362 493 q 407 567 407 536 q 384 618 407 597 q 332 640 362 640 q 281 618 303 640 q 259 567 259 597 q 281 515 259 538 q 332 493 303 493 m 437 204 l 437 219 q 240 456 437 456 q 37 222 37 456 q 85 47 37 105 q 237 -11 132 -11 q 383 26 341 -11 q 431 127 425 63 l 318 130 q 251 57 318 57 q 193 88 211 57 q 174 204 174 120 l 437 204 m 304 272 l 177 272 q 196 364 182 340 q 242 388 210 388 q 287 360 273 388 q 304 272 302 332 z "},"ì":{"ha":268,"x_min":9,"x_max":203,"o":"m 167 487 l 194 518 l 88 685 l 9 593 l 167 487 m 203 0 l 203 445 l 64 445 l 64 0 l 203 0 z "},"í":{"ha":268,"x_min":64,"x_max":255,"o":"m 175 685 l 70 518 l 96 487 l 255 593 l 175 685 m 203 0 l 203 445 l 64 445 l 64 0 l 203 0 z "},"î":{"ha":268,"x_min":10,"x_max":253,"o":"m 101 662 l 10 514 l 48 484 l 131 559 l 217 484 l 253 514 l 164 662 l 101 662 m 203 0 l 203 445 l 64 445 l 64 0 l 203 0 z "},"ï":{"ha":268,"x_min":-40,"x_max":305,"o":"m 33 493 q 48 493 33 493 q 85 515 63 493 q 106 567 106 536 q 85 618 106 597 q 33 640 63 640 q -19 618 2 640 q -40 567 -40 597 q -18 515 -40 538 q 33 493 4 493 m 231 493 q 246 493 231 493 q 283 515 261 493 q 305 567 305 536 q 283 618 305 597 q 231 640 261 640 q 180 618 201 640 q 158 567 158 597 q 180 515 158 538 q 231 493 201 493 m 203 0 l 203 445 l 64 445 l 64 0 l 203 0 z "},"ð":{"ha":503,"x_min":37,"x_max":458,"o":"m 428 510 l 428 596 l 331 557 q 269 618 314 577 l 205 547 q 219 534 209 544 q 236 518 230 524 l 192 500 l 192 418 l 289 456 q 340 362 324 408 q 247 394 313 394 q 87 334 137 394 q 37 191 37 274 q 86 48 37 108 q 247 -11 136 -11 q 408 57 357 -11 q 458 209 458 125 q 382 493 458 372 l 428 510 m 174 192 q 251 340 174 340 q 302 316 284 340 q 324 264 320 293 q 329 192 329 236 q 251 43 329 43 q 174 192 174 43 z "},"ñ":{"ha":521,"x_min":64,"x_max":465,"o":"m 205 540 q 256 525 221 540 q 321 510 292 510 q 374 536 351 510 q 405 619 398 562 l 362 634 q 316 599 351 599 q 264 614 299 599 q 200 629 229 629 q 117 518 130 629 l 159 502 q 205 540 173 540 m 173 405 l 127 445 l 64 445 l 64 0 l 203 0 l 203 355 q 271 378 237 378 q 316 358 305 378 q 327 295 327 339 l 327 0 l 465 0 l 465 313 q 429 416 465 376 q 321 456 394 456 q 173 405 248 456 z "},"ò":{"ha":496,"x_min":37,"x_max":458,"o":"m 282 487 l 308 518 l 203 685 l 124 593 l 282 487 m 458 222 q 248 456 458 456 q 37 222 37 456 q 248 -11 37 -11 q 458 222 458 -11 m 174 222 q 189 348 174 309 q 248 388 204 388 q 306 349 292 388 q 320 222 320 310 q 306 96 320 135 q 248 57 292 57 q 189 96 204 57 q 174 222 174 136 z "},"ó":{"ha":496,"x_min":37,"x_max":458,"o":"m 290 685 l 184 518 l 211 487 l 369 593 l 290 685 m 458 222 q 248 456 458 456 q 37 222 37 456 q 248 -11 37 -11 q 458 222 458 -11 m 174 222 q 189 348 174 309 q 248 388 204 388 q 306 349 292 388 q 320 222 320 310 q 306 96 320 135 q 248 57 292 57 q 189 96 204 57 q 174 222 174 136 z "},"ô":{"ha":496,"x_min":37,"x_max":458,"o":"m 216 662 l 125 514 l 162 484 l 246 559 l 331 484 l 368 514 l 279 662 l 216 662 m 458 222 q 248 456 458 456 q 37 222 37 456 q 248 -11 37 -11 q 458 222 458 -11 m 174 222 q 189 348 174 309 q 248 388 204 388 q 306 349 292 388 q 320 222 320 310 q 306 96 320 135 q 248 57 292 57 q 189 96 204 57 q 174 222 174 136 z "},"õ":{"ha":496,"x_min":37,"x_max":458,"o":"m 392 619 l 348 634 q 303 599 337 599 q 250 614 285 599 q 187 629 215 629 q 104 518 116 629 l 146 502 q 192 540 159 540 q 243 525 208 540 q 308 510 278 510 q 361 536 337 510 q 392 619 384 562 m 458 222 q 248 456 458 456 q 37 222 37 456 q 248 -11 37 -11 q 458 222 458 -11 m 174 222 q 189 348 174 309 q 248 388 204 388 q 306 349 292 388 q 320 222 320 310 q 306 96 320 135 q 248 57 292 57 q 189 96 204 57 q 174 222 174 136 z "},"ö":{"ha":496,"x_min":37,"x_max":458,"o":"m 148 493 q 163 493 148 493 q 200 515 178 493 q 221 567 221 536 q 200 618 221 597 q 148 640 178 640 q 96 618 117 640 q 75 567 75 597 q 96 515 75 538 q 148 493 117 493 m 346 493 q 361 493 346 493 q 397 515 376 493 q 419 567 419 536 q 397 618 419 597 q 346 640 376 640 q 295 618 316 640 q 273 567 273 597 q 295 515 273 538 q 346 493 316 493 m 458 222 q 248 456 458 456 q 37 222 37 456 q 248 -11 37 -11 q 458 222 458 -11 m 174 222 q 189 348 174 309 q 248 388 204 388 q 306 349 292 388 q 320 222 320 310 q 306 96 320 135 q 248 57 292 57 q 189 96 204 57 q 174 222 174 136 z "},"÷":{"ha":451,"x_min":63,"x_max":388,"o":"m 284 392 q 282 424 284 411 q 265 447 279 436 q 220 458 251 458 q 178 441 189 458 q 167 398 167 423 q 169 361 167 373 q 186 337 172 348 q 226 326 200 326 q 265 337 251 326 q 282 360 279 348 q 284 392 284 372 m 388 293 l 63 293 l 63 204 l 388 204 l 388 293 m 284 95 q 282 127 284 115 q 265 151 279 140 q 220 162 251 162 q 178 144 189 162 q 167 101 167 126 q 169 64 167 75 q 185 41 172 52 q 225 30 199 30 q 265 41 251 30 q 282 64 279 52 q 284 95 284 75 z "},"ø":{"ha":496,"x_min":37,"x_max":458,"o":"m 351 507 l 295 507 l 280 455 q 247 456 271 456 q 37 222 37 456 q 162 1 37 41 l 145 -62 l 200 -62 l 214 -10 q 247 -11 225 -11 q 458 222 458 -11 q 335 444 458 402 l 351 507 m 247 388 q 262 387 258 388 l 188 101 q 174 222 174 135 q 189 348 174 309 q 247 388 204 388 m 232 58 l 308 344 q 320 222 320 310 q 306 96 320 135 q 247 57 292 57 q 232 58 237 57 z "},"ù":{"ha":520,"x_min":57,"x_max":455,"o":"m 294 487 l 320 518 l 215 685 l 136 593 l 294 487 m 455 445 l 318 445 l 318 93 q 253 61 287 61 q 208 83 220 61 q 195 148 195 105 l 195 445 l 57 445 l 57 130 q 203 -11 57 -11 q 331 44 282 -11 l 367 0 l 455 0 l 455 445 z "},"ú":{"ha":520,"x_min":57,"x_max":455,"o":"m 225 487 l 383 593 l 304 685 l 198 518 l 225 487 m 455 445 l 318 445 l 318 93 q 253 61 287 61 q 208 83 220 61 q 195 148 195 105 l 195 445 l 57 445 l 57 130 q 203 -11 57 -11 q 331 44 282 -11 l 367 0 l 455 0 l 455 445 z "},"û":{"ha":520,"x_min":57,"x_max":455,"o":"m 175 484 l 259 559 l 345 484 l 382 514 l 293 662 l 229 662 l 138 514 l 175 484 m 455 445 l 318 445 l 318 93 q 253 61 287 61 q 208 83 220 61 q 195 148 195 105 l 195 445 l 57 445 l 57 130 q 203 -11 57 -11 q 331 44 282 -11 l 367 0 l 455 0 l 455 445 z "},"ü":{"ha":520,"x_min":57,"x_max":455,"o":"m 161 493 q 176 493 161 493 q 213 515 192 493 q 235 567 235 536 q 213 618 235 597 q 161 640 192 640 q 110 618 131 640 q 89 567 89 597 q 110 515 89 538 q 161 493 131 493 m 359 493 q 374 493 359 493 q 411 515 389 493 q 432 567 432 536 q 411 618 432 597 q 359 640 389 640 q 307 618 329 640 q 285 567 285 597 q 307 515 285 538 q 359 493 329 493 m 455 445 l 318 445 l 318 93 q 253 61 287 61 q 208 83 220 61 q 195 148 195 105 l 195 445 l 57 445 l 57 130 q 203 -11 57 -11 q 331 44 282 -11 l 367 0 l 455 0 l 455 445 z "},"ý":{"ha":430,"x_min":1,"x_max":430,"o":"m 209 487 l 367 593 l 288 685 l 183 518 l 209 487 m 430 445 l 351 445 l 257 154 l 138 445 l 1 445 l 198 -15 l 117 -177 l 219 -188 l 430 445 z "},"þ":{"ha":510,"x_min":64,"x_max":474,"o":"m 203 436 l 203 573 l 64 568 l 64 -150 l 203 -150 l 203 -2 q 285 -11 245 -11 q 474 222 474 -11 q 284 456 474 456 q 203 436 245 456 m 203 59 l 203 371 q 242 378 227 378 q 337 217 337 378 q 247 57 337 57 q 203 59 217 57 z "},"ÿ":{"ha":430,"x_min":1,"x_max":430,"o":"m 146 493 q 161 493 146 493 q 197 515 175 493 q 219 567 219 536 q 197 618 219 597 q 145 640 175 640 q 94 618 115 640 q 73 567 73 597 q 95 515 73 538 q 146 493 116 493 m 344 493 q 358 493 344 493 q 395 515 373 493 q 418 567 418 536 q 395 618 418 597 q 344 640 373 640 q 292 618 314 640 q 271 567 271 597 q 292 515 271 538 q 344 493 314 493 m 430 445 l 351 445 l 257 154 l 138 445 l 1 445 l 198 -15 l 117 -177 l 219 -188 l 430 445 z "},"Ā":{"ha":520,"x_min":6,"x_max":517,"o":"m 382 631 l 382 725 l 140 725 l 140 631 l 382 631 m 335 157 l 382 0 l 517 0 l 341 568 l 179 568 l 6 0 l 84 0 l 131 157 l 335 157 m 315 224 l 151 224 l 234 499 l 315 224 z "},"ā":{"ha":489,"x_min":40,"x_max":432,"o":"m 373 602 l 131 602 l 131 508 l 373 508 l 373 602 m 306 52 l 341 0 l 432 0 l 432 302 q 243 456 432 456 q 108 418 148 456 q 59 302 67 381 l 173 288 q 240 388 178 388 q 295 310 295 388 l 295 266 l 219 251 q 80 203 121 234 q 40 115 40 173 q 75 23 40 57 q 168 -11 110 -11 q 306 52 255 -11 m 162 119 q 240 199 162 182 l 295 210 l 295 100 q 225 61 258 61 q 162 119 162 61 z "},"Ă":{"ha":520,"x_min":6,"x_max":517,"o":"m 384 761 l 326 761 q 258 696 326 696 q 190 761 190 696 l 136 761 q 260 615 136 615 q 384 761 384 615 m 335 157 l 382 0 l 517 0 l 341 568 l 179 568 l 6 0 l 84 0 l 131 157 l 335 157 m 315 224 l 151 224 l 234 499 l 315 224 z "},"ă":{"ha":489,"x_min":40,"x_max":432,"o":"m 318 638 q 250 572 318 572 q 183 638 183 572 l 129 638 q 252 492 129 492 q 376 638 376 492 l 318 638 m 306 52 l 341 0 l 432 0 l 432 302 q 243 456 432 456 q 108 418 148 456 q 59 302 67 381 l 173 288 q 240 388 178 388 q 295 310 295 388 l 295 266 l 219 251 q 80 203 121 234 q 40 115 40 173 q 75 23 40 57 q 168 -11 110 -11 q 306 52 255 -11 m 162 119 q 240 199 162 182 l 295 210 l 295 100 q 225 61 258 61 q 162 119 162 61 z "},"Ą":{"ha":520,"x_min":6,"x_max":517,"o":"m 374 -77 q 418 -21 374 -49 l 453 0 l 517 0 l 341 568 l 179 568 l 6 0 l 84 0 l 131 157 l 335 157 l 382 0 l 384 0 l 379 -4 q 309 -96 309 -43 q 332 -150 309 -130 q 392 -171 356 -171 q 460 -145 429 -171 q 508 -89 491 -120 l 466 -62 q 407 -106 437 -106 q 384 -98 393 -106 q 374 -77 374 -90 m 315 224 l 151 224 l 234 499 l 315 224 z "},"ą":{"ha":489,"x_min":40,"x_max":487,"o":"m 445 -62 q 386 -106 416 -106 q 363 -98 372 -106 q 353 -77 353 -90 q 395 -21 353 -49 l 432 0 l 432 302 q 243 456 432 456 q 108 418 148 456 q 59 302 67 381 l 173 288 q 240 388 178 388 q 295 310 295 388 l 295 266 l 219 251 q 80 203 121 234 q 40 115 40 173 q 75 23 40 57 q 168 -11 110 -11 q 306 52 255 -11 l 341 0 l 362 0 l 358 -4 q 288 -96 288 -43 q 311 -150 288 -130 q 371 -171 335 -171 q 439 -145 408 -171 q 487 -89 470 -120 l 445 -62 m 295 210 l 295 100 q 225 61 258 61 q 162 119 162 61 q 240 199 162 182 l 295 210 z "},"Ć":{"ha":478,"x_min":31,"x_max":473,"o":"m 284 807 l 178 641 l 205 610 l 362 717 l 284 807 m 472 414 q 420 538 463 497 q 273 580 377 580 q 84 508 137 580 q 31 284 31 436 q 84 61 31 132 q 261 -11 137 -11 q 425 38 384 -11 q 473 190 466 88 l 361 195 q 342 84 361 121 q 269 47 323 47 q 193 100 215 47 q 171 285 171 153 q 193 469 171 416 q 266 521 215 521 q 337 491 318 521 q 361 397 356 460 l 472 414 z "},"ć":{"ha":457,"x_min":37,"x_max":420,"o":"m 267 685 l 162 518 l 188 487 l 346 593 l 267 685 m 242 388 q 305 278 304 388 l 419 290 q 373 415 414 374 q 235 456 331 456 q 72 386 114 456 q 37 222 37 326 q 133 7 37 51 q 235 -11 174 -11 q 374 32 332 -11 q 420 163 415 75 l 305 168 q 242 57 304 57 q 190 93 205 57 q 174 223 174 129 q 189 353 174 318 q 242 388 204 388 z "},"Ĉ":{"ha":478,"x_min":31,"x_max":473,"o":"m 209 785 l 117 638 l 156 607 l 240 682 l 325 607 l 362 638 l 273 785 l 209 785 m 472 414 q 420 538 463 497 q 273 580 377 580 q 84 508 137 580 q 31 284 31 436 q 84 61 31 132 q 261 -11 137 -11 q 425 38 384 -11 q 473 190 466 88 l 361 195 q 342 84 361 121 q 269 47 323 47 q 193 100 215 47 q 171 285 171 153 q 193 469 171 416 q 266 521 215 521 q 337 491 318 521 q 361 397 356 460 l 472 414 z "},"ĉ":{"ha":457,"x_min":37,"x_max":420,"o":"m 193 662 l 101 514 l 140 484 l 222 559 l 308 484 l 345 514 l 256 662 l 193 662 m 242 388 q 305 278 304 388 l 419 290 q 373 415 414 374 q 235 456 331 456 q 72 386 114 456 q 37 222 37 326 q 133 7 37 51 q 235 -11 174 -11 q 374 32 332 -11 q 420 163 415 75 l 305 168 q 242 57 304 57 q 190 93 205 57 q 174 223 174 129 q 189 353 174 318 q 242 388 204 388 z "},"Ċ":{"ha":478,"x_min":31,"x_max":473,"o":"m 240 609 q 257 609 240 609 q 298 633 274 609 q 321 691 321 657 q 298 749 321 725 q 240 774 274 774 q 183 749 206 774 q 159 691 159 725 q 183 633 159 657 q 240 609 206 609 m 472 414 q 420 538 463 497 q 273 580 377 580 q 84 508 137 580 q 31 284 31 436 q 84 61 31 132 q 261 -11 137 -11 q 425 38 384 -11 q 473 190 466 88 l 361 195 q 342 84 361 121 q 269 47 323 47 q 193 100 215 47 q 171 285 171 153 q 193 469 171 416 q 266 521 215 521 q 337 491 318 521 q 361 397 356 460 l 472 414 z "},"ċ":{"ha":457,"x_min":37,"x_max":420,"o":"m 224 486 q 241 486 224 486 q 282 508 258 486 q 305 567 305 531 q 282 626 305 602 q 224 650 258 650 q 166 626 189 650 q 142 568 142 602 q 166 510 142 534 q 224 486 190 486 m 242 388 q 305 278 304 388 l 419 290 q 373 415 414 374 q 235 456 331 456 q 72 386 114 456 q 37 222 37 326 q 133 7 37 51 q 235 -11 174 -11 q 374 32 332 -11 q 420 163 415 75 l 305 168 q 242 57 304 57 q 190 93 205 57 q 174 223 174 129 q 189 353 174 318 q 242 388 204 388 z "},"Č":{"ha":478,"x_min":31,"x_max":473,"o":"m 157 785 l 119 753 l 210 607 l 273 607 l 362 753 l 326 785 l 240 709 l 157 785 m 472 414 q 420 538 463 497 q 273 580 377 580 q 84 508 137 580 q 31 284 31 436 q 84 61 31 132 q 261 -11 137 -11 q 425 38 384 -11 q 473 190 466 88 l 361 195 q 342 84 361 121 q 269 47 323 47 q 193 100 215 47 q 171 285 171 153 q 193 469 171 416 q 266 521 215 521 q 337 491 318 521 q 361 397 356 460 l 472 414 z "},"č":{"ha":457,"x_min":37,"x_max":420,"o":"m 140 662 l 103 629 l 194 484 l 257 484 l 346 629 l 309 662 l 224 586 l 140 662 m 242 388 q 305 278 304 388 l 419 290 q 373 415 414 374 q 235 456 331 456 q 72 386 114 456 q 37 222 37 326 q 133 7 37 51 q 235 -11 174 -11 q 374 32 332 -11 q 420 163 415 75 l 305 168 q 242 57 304 57 q 190 93 205 57 q 174 223 174 129 q 189 353 174 318 q 242 388 204 388 z "},"Ď":{"ha":544,"x_min":64,"x_max":505,"o":"m 241 607 l 305 607 l 394 753 l 357 785 l 272 709 l 188 785 l 151 753 l 241 607 m 64 568 l 64 0 l 269 0 q 455 74 405 0 q 505 284 505 148 q 437 514 505 450 q 269 568 381 568 l 64 568 m 204 51 l 204 518 l 247 518 q 321 484 294 518 q 356 402 347 450 q 365 284 365 355 q 356 166 365 214 q 321 85 347 119 q 247 51 294 51 l 204 51 z "},"ď":{"ha":578,"x_min":37,"x_max":618,"o":"m 552 696 q 539 696 552 696 q 506 676 525 696 q 487 634 487 656 q 497 586 487 612 q 507 549 507 560 q 479 484 507 513 l 504 455 q 618 622 618 520 q 599 675 618 654 q 552 696 580 696 m 308 582 l 308 436 q 224 456 269 456 q 37 213 37 456 q 204 -11 37 -11 q 323 42 269 -11 l 352 0 l 446 0 l 446 599 l 308 582 m 243 57 q 174 217 174 57 q 266 378 174 378 q 308 368 288 378 l 308 88 q 243 57 282 57 z "},"Đ":{"ha":544,"x_min":20,"x_max":505,"o":"m 64 568 l 64 324 l 20 324 l 20 237 l 64 237 l 64 0 l 269 0 q 455 74 405 0 q 505 284 505 148 q 437 514 505 450 q 269 568 381 568 l 64 568 m 204 51 l 204 237 l 330 237 l 330 324 l 204 324 l 204 518 l 247 518 q 321 484 294 518 q 356 402 347 450 q 365 284 365 355 q 356 166 365 214 q 321 85 347 119 q 247 51 294 51 l 204 51 z "},"đ":{"ha":510,"x_min":37,"x_max":458,"o":"m 458 471 l 458 556 l 446 556 l 446 599 l 308 582 l 308 556 l 205 556 l 205 471 l 308 471 l 308 436 q 224 456 269 456 q 37 213 37 456 q 204 -11 37 -11 q 323 42 269 -11 l 352 0 l 446 0 l 446 471 l 458 471 m 243 57 q 174 217 174 57 q 266 378 174 378 q 308 368 288 378 l 308 88 q 243 57 282 57 z "},"Ē":{"ha":436,"x_min":64,"x_max":418,"o":"m 355 631 l 355 725 l 112 725 l 112 631 l 355 631 m 418 67 l 204 67 l 204 256 l 381 256 l 381 323 l 204 323 l 204 502 l 403 502 l 403 568 l 64 568 l 64 0 l 418 0 l 418 67 z "},"ē":{"ha":473,"x_min":37,"x_max":437,"o":"m 356 508 l 356 602 l 114 602 l 114 508 l 356 508 m 437 204 l 437 219 q 240 456 437 456 q 37 222 37 456 q 85 47 37 105 q 237 -11 132 -11 q 383 26 341 -11 q 431 127 425 63 l 318 130 q 251 57 318 57 q 193 88 211 57 q 174 204 174 120 l 437 204 m 304 272 l 177 272 q 196 364 182 340 q 242 388 210 388 q 287 360 273 388 q 304 272 302 332 z "},"Ĕ":{"ha":436,"x_min":64,"x_max":418,"o":"m 357 761 l 299 761 q 231 696 299 696 q 163 761 163 696 l 109 761 q 233 615 109 615 q 357 761 357 615 m 418 67 l 204 67 l 204 256 l 381 256 l 381 323 l 204 323 l 204 502 l 403 502 l 403 568 l 64 568 l 64 0 l 418 0 l 418 67 z "},"ĕ":{"ha":473,"x_min":37,"x_max":437,"o":"m 358 638 l 300 638 q 232 572 300 572 q 164 638 164 572 l 110 638 q 234 492 110 492 q 358 638 358 492 m 437 204 l 437 219 q 240 456 437 456 q 37 222 37 456 q 85 47 37 105 q 237 -11 132 -11 q 383 26 341 -11 q 431 127 425 63 l 318 130 q 251 57 318 57 q 193 88 211 57 q 174 204 174 120 l 437 204 m 304 272 l 177 272 q 196 364 182 340 q 242 388 210 388 q 287 360 273 388 q 304 272 302 332 z "},"Ė":{"ha":436,"x_min":64,"x_max":418,"o":"m 234 609 q 251 609 234 609 q 292 633 268 609 q 315 691 315 657 q 292 749 315 725 q 234 774 268 774 q 175 749 199 774 q 152 691 152 725 q 175 633 152 657 q 234 609 199 609 m 418 67 l 204 67 l 204 256 l 381 256 l 381 323 l 204 323 l 204 502 l 403 502 l 403 568 l 64 568 l 64 0 l 418 0 l 418 67 z "},"ė":{"ha":473,"x_min":37,"x_max":437,"o":"m 235 486 q 252 486 235 486 q 293 508 269 486 q 316 567 316 531 q 293 626 316 602 q 235 650 269 650 q 177 626 200 650 q 153 568 153 602 q 177 510 153 534 q 235 486 200 486 m 437 204 l 437 219 q 240 456 437 456 q 37 222 37 456 q 85 47 37 105 q 237 -11 132 -11 q 383 26 341 -11 q 431 127 425 63 l 318 130 q 251 57 318 57 q 193 88 211 57 q 174 204 174 120 l 437 204 m 304 272 l 177 272 q 196 364 182 340 q 242 388 210 388 q 287 360 273 388 q 304 272 302 332 z "},"Ę":{"ha":436,"x_min":64,"x_max":473,"o":"m 430 -62 q 372 -106 404 -106 q 340 -77 340 -106 q 382 -21 340 -48 l 418 0 l 418 67 l 204 67 l 204 256 l 381 256 l 381 323 l 204 323 l 204 502 l 403 502 l 403 568 l 64 568 l 64 0 l 348 0 l 344 -4 q 273 -96 273 -44 q 297 -150 273 -130 q 356 -171 320 -171 q 424 -145 393 -171 q 473 -89 455 -120 l 430 -62 z "},"ę":{"ha":473,"x_min":37,"x_max":437,"o":"m 437 204 l 437 219 q 240 456 437 456 q 37 222 37 456 q 79 53 37 111 q 220 -10 121 -5 q 162 -96 162 -48 q 185 -150 162 -130 q 244 -171 208 -171 q 311 -145 280 -171 q 361 -89 342 -120 l 318 -62 q 259 -106 292 -106 q 227 -77 227 -106 q 269 -21 227 -48 l 292 -9 q 395 36 363 1 q 431 127 426 72 l 318 130 q 251 57 318 57 q 193 88 211 57 q 174 204 174 120 l 437 204 m 304 272 l 177 272 q 196 364 182 340 q 242 388 210 388 q 287 360 273 388 q 304 272 302 332 z "},"Ě":{"ha":436,"x_min":64,"x_max":418,"o":"m 204 607 l 267 607 l 356 753 l 319 785 l 234 709 l 151 785 l 112 753 l 204 607 m 418 67 l 204 67 l 204 256 l 381 256 l 381 323 l 204 323 l 204 502 l 403 502 l 403 568 l 64 568 l 64 0 l 418 0 l 418 67 z "},"ě":{"ha":473,"x_min":37,"x_max":437,"o":"m 205 484 l 268 484 l 357 629 l 320 662 l 235 586 l 151 662 l 114 629 l 205 484 m 437 204 l 437 219 q 240 456 437 456 q 37 222 37 456 q 85 47 37 105 q 237 -11 132 -11 q 383 26 341 -11 q 431 127 425 63 l 318 130 q 251 57 318 57 q 193 88 211 57 q 174 204 174 120 l 437 204 m 304 272 l 177 272 q 196 364 182 340 q 242 388 210 388 q 287 360 273 388 q 304 272 302 332 z "},"Ĝ":{"ha":542,"x_min":31,"x_max":486,"o":"m 188 607 l 272 682 l 357 607 l 394 638 l 305 785 l 241 785 l 151 638 l 188 607 m 486 295 l 282 295 l 282 229 l 367 229 l 367 211 q 340 83 366 120 q 263 47 315 47 q 191 105 211 47 q 171 290 171 163 q 193 469 171 416 q 266 521 215 521 q 337 491 318 521 q 361 397 356 460 l 472 414 q 420 538 463 497 q 273 580 377 580 q 84 508 137 580 q 31 287 31 436 q 83 64 31 138 q 262 -11 136 -11 q 394 54 344 -11 l 419 0 l 486 0 l 486 295 z "},"ĝ":{"ha":491,"x_min":28,"x_max":466,"o":"m 164 484 l 248 559 l 334 484 l 371 514 l 282 662 l 217 662 l 127 514 l 164 484 m 466 392 l 466 445 l 327 445 q 243 456 288 456 q 101 408 142 456 q 59 290 59 361 q 99 177 59 220 l 74 153 q 37 75 37 117 q 93 4 37 17 q 48 -27 67 -4 q 28 -75 28 -51 q 234 -189 28 -189 q 458 -57 458 -189 q 419 34 458 -1 q 310 69 379 69 l 142 69 q 116 88 116 69 q 135 116 116 101 l 159 140 q 243 129 194 129 q 390 176 348 129 q 432 289 432 224 q 405 392 432 353 l 466 392 m 190 293 q 201 367 190 345 q 245 389 213 389 q 289 367 277 389 q 302 292 302 345 q 289 217 302 240 q 245 195 277 195 q 201 218 213 195 q 190 293 190 241 m 267 0 q 321 -17 302 0 q 340 -62 340 -33 q 234 -120 340 -120 q 147 -69 147 -120 q 180 0 147 -31 l 267 0 z "},"Ğ":{"ha":542,"x_min":31,"x_max":486,"o":"m 395 761 l 339 761 q 271 696 339 696 q 203 761 203 696 l 148 761 q 272 615 148 615 q 395 761 395 615 m 486 295 l 282 295 l 282 229 l 367 229 l 367 211 q 340 83 366 120 q 263 47 315 47 q 191 105 211 47 q 171 290 171 163 q 193 469 171 416 q 266 521 215 521 q 337 491 318 521 q 361 397 356 460 l 472 414 q 420 538 463 497 q 273 580 377 580 q 84 508 137 580 q 31 287 31 436 q 83 64 31 138 q 262 -11 136 -11 q 394 54 344 -11 l 419 0 l 486 0 l 486 295 z "},"ğ":{"ha":491,"x_min":28,"x_max":466,"o":"m 373 638 l 315 638 q 247 572 315 572 q 179 638 179 572 l 125 638 q 249 492 125 492 q 373 638 373 492 m 466 392 l 466 445 l 327 445 q 243 456 288 456 q 101 408 142 456 q 59 290 59 361 q 99 177 59 220 l 74 153 q 37 75 37 117 q 93 4 37 17 q 48 -27 67 -4 q 28 -75 28 -51 q 234 -189 28 -189 q 458 -57 458 -189 q 419 34 458 -1 q 310 69 379 69 l 142 69 q 116 88 116 69 q 135 116 116 101 l 159 140 q 243 129 194 129 q 390 176 348 129 q 432 289 432 224 q 405 392 432 353 l 466 392 m 190 293 q 201 367 190 345 q 245 389 213 389 q 289 367 277 389 q 302 292 302 345 q 289 217 302 240 q 245 195 277 195 q 201 218 213 195 q 190 293 190 241 m 267 0 q 321 -17 302 0 q 340 -62 340 -33 q 234 -120 340 -120 q 147 -69 147 -120 q 180 0 147 -31 l 267 0 z "},"Ġ":{"ha":542,"x_min":31,"x_max":486,"o":"m 272 609 q 289 609 272 609 q 330 633 306 609 q 353 691 353 657 q 330 749 353 725 q 272 774 306 774 q 215 749 238 774 q 192 691 192 725 q 215 633 192 657 q 272 609 238 609 m 486 295 l 282 295 l 282 229 l 367 229 l 367 211 q 340 83 366 120 q 263 47 315 47 q 191 105 211 47 q 171 290 171 163 q 193 469 171 416 q 266 521 215 521 q 337 491 318 521 q 361 397 356 460 l 472 414 q 420 538 463 497 q 273 580 377 580 q 84 508 137 580 q 31 287 31 436 q 83 64 31 138 q 262 -11 136 -11 q 394 54 344 -11 l 419 0 l 486 0 l 486 295 z "},"ġ":{"ha":491,"x_min":28,"x_max":466,"o":"m 331 566 q 308 625 331 601 q 250 650 284 650 q 193 626 216 650 q 169 568 169 602 q 193 510 169 534 q 251 486 217 486 q 308 508 284 486 q 331 566 331 531 m 466 392 l 466 445 l 327 445 q 243 456 288 456 q 101 408 142 456 q 59 290 59 361 q 99 177 59 220 l 74 153 q 37 75 37 117 q 93 4 37 17 q 48 -27 67 -4 q 28 -75 28 -51 q 234 -189 28 -189 q 458 -57 458 -189 q 419 34 458 -1 q 310 69 379 69 l 142 69 q 116 88 116 69 q 135 116 116 101 l 159 140 q 243 129 194 129 q 390 176 348 129 q 432 289 432 224 q 405 392 432 353 l 466 392 m 190 293 q 201 367 190 345 q 245 389 213 389 q 289 367 277 389 q 302 292 302 345 q 289 217 302 240 q 245 195 277 195 q 201 218 213 195 q 190 293 190 241 m 267 0 q 321 -17 302 0 q 340 -62 340 -33 q 234 -120 340 -120 q 147 -69 147 -120 q 180 0 147 -31 l 267 0 z "},"Ģ":{"ha":542,"x_min":31,"x_max":486,"o":"m 486 295 l 282 295 l 282 229 l 367 229 l 367 211 q 340 83 366 120 q 263 47 315 47 q 191 105 211 47 q 171 290 171 163 q 193 469 171 416 q 266 521 215 521 q 337 491 318 521 q 361 397 356 460 l 472 414 q 420 538 463 497 q 273 580 377 580 q 84 508 137 580 q 31 287 31 436 q 83 64 31 138 q 262 -11 136 -11 q 394 54 344 -11 l 419 0 l 486 0 l 486 295 m 272 -40 q 258 -40 272 -40 q 226 -58 245 -40 q 206 -99 206 -77 q 216 -148 206 -122 q 226 -185 226 -174 q 198 -251 226 -221 l 222 -279 q 336 -114 336 -214 q 318 -61 336 -82 q 272 -40 299 -40 z "},"ģ":{"ha":491,"x_min":28,"x_max":466,"o":"m 251 484 q 264 484 251 484 q 297 504 278 484 q 316 545 316 523 q 306 593 316 567 q 295 630 295 619 q 324 696 295 666 l 299 724 q 185 559 185 659 q 205 505 185 526 q 251 484 224 484 m 466 392 l 466 445 l 327 445 q 243 456 288 456 q 101 408 142 456 q 59 290 59 361 q 99 177 59 220 l 74 153 q 37 75 37 117 q 93 4 37 17 q 48 -27 67 -4 q 28 -75 28 -51 q 234 -189 28 -189 q 458 -57 458 -189 q 419 34 458 -1 q 310 69 379 69 l 142 69 q 116 88 116 69 q 135 116 116 101 l 159 140 q 243 129 194 129 q 390 176 348 129 q 432 289 432 224 q 405 392 432 353 l 466 392 m 190 293 q 201 367 190 345 q 245 389 213 389 q 289 367 277 389 q 302 292 302 345 q 289 217 302 240 q 245 195 277 195 q 201 218 213 195 q 190 293 190 241 m 267 0 q 321 -17 302 0 q 340 -62 340 -33 q 234 -120 340 -120 q 147 -69 147 -120 q 180 0 147 -31 l 267 0 z "},"Ĥ":{"ha":572,"x_min":64,"x_max":507,"o":"m 201 607 l 284 682 l 371 607 l 407 638 l 318 785 l 255 785 l 163 638 l 201 607 m 507 568 l 366 568 l 366 318 l 204 318 l 204 568 l 64 568 l 64 0 l 204 0 l 204 251 l 366 251 l 366 0 l 507 0 l 507 568 z "},"ĥ":{"ha":521,"x_min":12,"x_max":465,"o":"m 133 682 l 219 607 l 256 638 l 167 785 l 104 785 l 12 638 l 51 607 l 133 682 m 203 423 l 203 599 l 64 582 l 64 0 l 203 0 l 203 355 q 271 378 237 378 q 316 359 305 378 q 327 295 327 340 l 327 0 l 465 0 l 465 313 q 429 416 465 376 q 329 456 394 456 q 203 423 264 456 z "},"Ħ":{"ha":572,"x_min":15,"x_max":551,"o":"m 551 382 l 551 468 l 507 468 l 507 568 l 366 568 l 366 468 l 204 468 l 204 568 l 64 568 l 64 468 l 15 468 l 15 382 l 64 382 l 64 0 l 204 0 l 204 251 l 366 251 l 366 0 l 507 0 l 507 382 l 551 382 m 366 382 l 366 318 l 204 318 l 204 382 l 366 382 z "},"ħ":{"ha":521,"x_min":28,"x_max":465,"o":"m 203 423 l 203 471 l 282 471 l 282 556 l 203 556 l 203 599 l 64 582 l 64 556 l 28 556 l 28 471 l 64 471 l 64 0 l 203 0 l 203 355 q 271 378 237 378 q 316 359 305 378 q 327 295 327 340 l 327 0 l 465 0 l 465 313 q 429 416 465 376 q 329 456 394 456 q 203 423 264 456 z "},"Ĩ":{"ha":268,"x_min":-10,"x_max":278,"o":"m 278 743 l 235 757 q 189 723 224 723 q 137 738 172 723 q 73 753 103 753 q -10 640 2 753 l 32 625 q 78 662 47 662 q 130 648 95 662 q 194 634 164 634 q 248 660 224 634 q 278 743 272 686 m 204 0 l 204 568 l 64 568 l 64 0 l 204 0 z "},"ĩ":{"ha":268,"x_min":-11,"x_max":277,"o":"m 277 619 l 234 634 q 188 599 224 599 q 137 614 172 599 q 73 629 101 629 q -11 518 1 629 l 31 502 q 77 540 44 540 q 129 525 94 540 q 194 510 164 510 q 247 536 224 510 q 277 619 269 562 m 203 0 l 203 445 l 64 445 l 64 0 l 203 0 z "},"Ī":{"ha":268,"x_min":14,"x_max":256,"o":"m 256 725 l 14 725 l 14 631 l 256 631 l 256 725 m 204 0 l 204 568 l 64 568 l 64 0 l 204 0 z "},"ī":{"ha":268,"x_min":11,"x_max":253,"o":"m 253 602 l 11 602 l 11 508 l 253 508 l 253 602 m 203 0 l 203 445 l 64 445 l 64 0 l 203 0 z "},"Ĭ":{"ha":268,"x_min":10,"x_max":258,"o":"m 200 761 q 132 696 200 696 q 64 761 64 696 l 10 761 q 134 615 10 615 q 258 761 258 615 l 200 761 m 204 0 l 204 568 l 64 568 l 64 0 l 204 0 z "},"ĭ":{"ha":268,"x_min":7,"x_max":256,"o":"m 198 638 q 130 572 198 572 q 62 638 62 572 l 7 638 q 132 492 7 492 q 256 638 256 492 l 198 638 m 203 0 l 203 445 l 64 445 l 64 0 l 203 0 z "},"Į":{"ha":268,"x_min":59,"x_max":258,"o":"m 216 -62 q 157 -106 188 -106 q 134 -98 143 -106 q 125 -77 125 -90 q 167 -21 125 -48 l 204 0 l 204 568 l 64 568 l 64 0 l 133 0 l 129 -4 q 59 -96 59 -44 q 83 -150 59 -130 q 142 -171 106 -171 q 209 -145 178 -171 q 258 -89 241 -120 l 216 -62 z "},"į":{"ha":268,"x_min":52,"x_max":258,"o":"m 133 486 q 151 486 133 486 q 192 508 168 486 q 215 567 215 531 q 192 626 215 602 q 133 650 168 650 q 75 626 99 650 q 52 568 52 602 q 75 510 52 534 q 133 486 99 486 m 216 -62 q 157 -106 188 -106 q 134 -98 143 -106 q 125 -77 125 -90 q 167 -21 125 -48 l 204 0 l 203 0 l 203 445 l 64 445 l 64 0 l 133 0 l 129 -4 q 59 -96 59 -44 q 83 -150 59 -130 q 142 -171 106 -171 q 209 -145 178 -171 q 258 -89 241 -120 l 216 -62 z "},"İ":{"ha":268,"x_min":53,"x_max":216,"o":"m 135 609 q 152 609 135 609 q 193 633 169 609 q 216 691 216 657 q 193 749 216 725 q 135 774 169 774 q 77 749 100 774 q 53 691 53 725 q 77 633 53 657 q 135 609 100 609 m 204 0 l 204 568 l 64 568 l 64 0 l 204 0 z "},"ı":{"ha":268,"x_min":64,"x_max":203,"o":"m 203 0 l 203 445 l 64 445 l 64 0 l 203 0 z "},"Ĳ":{"ha":660,"x_min":64,"x_max":605,"o":"m 204 0 l 204 568 l 64 568 l 64 0 l 204 0 m 605 568 l 466 568 l 466 142 q 425 47 466 47 q 394 75 403 47 q 384 173 384 104 l 262 173 q 299 21 262 52 q 410 -11 339 -11 q 521 1 482 -11 q 577 37 560 14 q 605 142 605 78 l 605 568 z "},"ĳ":{"ha":534,"x_min":51,"x_max":481,"o":"m 133 486 q 150 486 133 486 q 190 508 167 486 q 214 567 214 531 q 190 626 214 602 q 132 650 167 650 q 74 626 98 650 q 51 568 51 602 q 75 510 51 534 q 133 486 99 486 m 400 486 q 417 486 400 486 q 457 508 434 486 q 481 567 481 531 q 457 626 481 602 q 399 650 434 650 q 341 626 365 650 q 318 568 318 602 q 342 510 318 534 q 400 486 366 486 m 201 0 l 201 445 l 63 445 l 63 0 l 201 0 m 179 -138 q 299 -166 241 -166 q 470 -5 470 -166 l 470 445 l 331 445 l 331 -22 q 320 -67 331 -49 q 289 -84 309 -84 q 220 -40 248 -84 l 179 -138 z "},"Ĵ":{"ha":390,"x_min":-6,"x_max":388,"o":"m 236 785 l 145 638 l 183 607 l 266 682 l 351 607 l 388 638 l 299 785 l 236 785 m 337 568 l 198 568 l 198 142 q 157 47 198 47 q 116 173 116 47 l -6 173 q 32 21 -6 52 q 142 -11 70 -11 q 253 1 214 -11 q 309 37 292 14 q 337 142 337 78 l 337 568 z "},"ĵ":{"ha":268,"x_min":-88,"x_max":253,"o":"m 101 662 l 10 514 l 48 484 l 131 559 l 217 484 l 253 514 l 164 662 l 101 662 m -88 -138 q 32 -166 -26 -166 q 203 -5 203 -166 l 203 445 l 64 445 l 64 -22 q 53 -67 64 -49 q 22 -84 42 -84 q -47 -40 -19 -84 l -88 -138 z "},"Ķ":{"ha":499,"x_min":64,"x_max":515,"o":"m 515 0 l 327 303 l 497 568 l 415 568 l 262 324 l 204 324 l 204 568 l 64 568 l 64 0 l 204 0 l 204 256 l 209 256 l 368 0 l 515 0 m 250 -40 q 236 -40 250 -40 q 203 -59 222 -40 q 184 -100 184 -78 q 195 -148 184 -122 q 205 -185 205 -174 q 177 -251 205 -221 l 201 -279 q 315 -114 315 -214 q 296 -61 315 -82 q 250 -40 277 -40 z "},"ķ":{"ha":472,"x_min":64,"x_max":471,"o":"m 471 0 l 293 267 l 457 445 l 379 445 l 203 252 l 203 599 l 64 582 l 64 0 l 203 0 l 203 172 l 204 172 l 209 178 l 323 0 l 471 0 m 252 -40 q 238 -40 252 -40 q 206 -59 225 -40 q 187 -100 187 -78 q 196 -148 187 -122 q 206 -185 206 -174 q 179 -251 206 -222 l 204 -279 q 318 -114 318 -214 q 298 -61 318 -82 q 252 -40 279 -40 z "},"ĸ":{"ha":471,"x_min":64,"x_max":481,"o":"m 332 0 l 481 0 l 318 232 l 467 445 l 318 445 l 208 284 l 203 284 l 203 445 l 64 445 l 64 0 l 203 0 l 203 189 l 332 0 z "},"Ĺ":{"ha":376,"x_min":64,"x_max":382,"o":"m 99 610 l 257 717 l 178 807 l 73 641 l 99 610 m 382 67 l 204 67 l 204 568 l 64 568 l 64 0 l 382 0 l 382 67 z "},"ĺ":{"ha":268,"x_min":64,"x_max":255,"o":"m 175 807 l 70 641 l 96 610 l 255 717 l 175 807 m 203 0 l 203 599 l 64 582 l 64 0 l 203 0 z "},"Ļ":{"ha":376,"x_min":64,"x_max":382,"o":"m 382 67 l 204 67 l 204 568 l 64 568 l 64 0 l 382 0 l 382 67 m 210 -40 q 196 -40 210 -40 q 164 -58 183 -40 q 145 -99 145 -77 q 154 -148 145 -122 q 164 -185 164 -174 q 137 -251 164 -222 l 162 -279 q 274 -114 274 -214 q 256 -61 274 -82 q 210 -40 237 -40 z "},"ļ":{"ha":268,"x_min":58,"x_max":203,"o":"m 203 0 l 203 599 l 64 582 l 64 0 l 203 0 m 131 -40 q 117 -40 131 -40 q 85 -59 104 -40 q 65 -100 65 -78 q 75 -148 65 -122 q 85 -185 85 -174 q 58 -251 85 -222 l 83 -279 q 195 -114 195 -214 q 177 -61 195 -82 q 131 -40 158 -40 z "},"Ľ":{"ha":376,"x_min":64,"x_max":416,"o":"m 303 369 q 416 536 416 435 q 397 589 416 568 q 351 609 378 609 q 305 590 324 609 q 285 549 285 571 q 296 500 285 526 q 306 462 306 474 q 278 398 306 428 l 303 369 m 204 67 l 204 568 l 64 568 l 64 0 l 382 0 l 382 67 l 204 67 z "},"ľ":{"ha":335,"x_min":64,"x_max":373,"o":"m 308 696 q 295 696 308 696 q 263 676 282 696 q 243 634 243 656 q 253 586 243 612 q 263 549 263 560 q 236 484 263 513 l 261 455 q 373 622 373 520 q 354 675 373 654 q 308 696 335 696 m 203 0 l 203 599 l 64 582 l 64 0 l 203 0 z "},"Ŀ":{"ha":376,"x_min":64,"x_max":382,"o":"m 382 67 l 204 67 l 204 568 l 64 568 l 64 0 l 382 0 l 382 67 m 379 314 q 358 366 379 345 q 306 387 337 387 q 255 366 276 387 q 235 314 235 345 q 256 262 235 284 q 307 240 277 240 q 358 261 337 240 q 379 314 379 283 z "},"ŀ":{"ha":329,"x_min":64,"x_max":367,"o":"m 203 0 l 203 599 l 64 582 l 64 0 l 203 0 m 295 240 q 310 240 295 240 q 346 262 325 240 q 367 314 367 284 q 346 366 367 345 q 295 387 325 387 q 243 366 264 387 q 222 314 222 345 q 243 262 222 284 q 295 240 264 240 z "},"Ł":{"ha":376,"x_min":20,"x_max":382,"o":"m 382 67 l 204 67 l 204 279 l 256 300 l 256 386 l 204 365 l 204 568 l 64 568 l 64 308 l 20 290 l 20 206 l 64 225 l 64 0 l 382 0 l 382 67 z "},"ł":{"ha":268,"x_min":16,"x_max":251,"o":"m 251 300 l 251 386 l 203 366 l 203 599 l 64 582 l 64 310 l 16 290 l 16 206 l 64 226 l 64 0 l 203 0 l 203 282 l 251 300 z "},"Ń":{"ha":593,"x_min":62,"x_max":529,"o":"m 261 610 l 418 717 l 340 807 l 234 641 l 261 610 m 529 568 l 446 568 l 446 146 l 208 568 l 62 568 l 62 0 l 145 0 l 145 423 l 383 0 l 529 0 l 529 568 z "},"ń":{"ha":521,"x_min":64,"x_max":465,"o":"m 226 487 l 384 593 l 305 685 l 199 518 l 226 487 m 173 405 l 127 445 l 64 445 l 64 0 l 203 0 l 203 355 q 271 378 237 378 q 316 358 305 378 q 327 295 327 339 l 327 0 l 465 0 l 465 313 q 429 416 465 376 q 321 456 394 456 q 173 405 248 456 z "},"Ņ":{"ha":593,"x_min":62,"x_max":529,"o":"m 529 568 l 446 568 l 446 146 l 208 568 l 62 568 l 62 0 l 145 0 l 145 423 l 383 0 l 529 0 l 529 568 m 294 -40 q 280 -40 294 -40 q 248 -59 267 -40 q 229 -100 229 -78 q 239 -148 229 -122 q 250 -185 250 -174 q 221 -251 250 -221 l 246 -279 q 360 -114 360 -214 q 340 -61 360 -82 q 294 -40 321 -40 z "},"ņ":{"ha":521,"x_min":64,"x_max":465,"o":"m 173 405 l 127 445 l 64 445 l 64 0 l 203 0 l 203 355 q 271 378 237 378 q 316 358 305 378 q 327 295 327 339 l 327 0 l 465 0 l 465 313 q 429 416 465 376 q 321 456 394 456 q 173 405 248 456 m 260 -40 q 246 -40 260 -40 q 214 -58 232 -40 q 195 -99 195 -77 q 205 -148 195 -122 q 215 -185 215 -174 q 187 -251 215 -221 l 211 -279 q 325 -114 325 -214 q 306 -61 325 -82 q 260 -40 288 -40 z "},"Ň":{"ha":593,"x_min":62,"x_max":529,"o":"m 266 607 l 329 607 l 418 753 l 382 785 l 295 709 l 213 785 l 174 753 l 266 607 m 529 568 l 446 568 l 446 146 l 208 568 l 62 568 l 62 0 l 145 0 l 145 423 l 383 0 l 529 0 l 529 568 z "},"ň":{"ha":521,"x_min":64,"x_max":465,"o":"m 231 484 l 295 484 l 384 629 l 347 662 l 262 586 l 178 662 l 140 629 l 231 484 m 173 405 l 127 445 l 64 445 l 64 0 l 203 0 l 203 355 q 271 378 237 378 q 316 358 305 378 q 327 295 327 339 l 327 0 l 465 0 l 465 313 q 429 416 465 376 q 321 456 394 456 q 173 405 248 456 z "},"ŉ":{"ha":521,"x_min":64,"x_max":465,"o":"m 173 405 l 127 445 l 64 445 l 64 0 l 203 0 l 203 355 q 271 378 237 378 q 316 358 305 378 q 327 295 327 339 l 327 0 l 465 0 l 465 313 q 429 416 465 376 q 321 456 394 456 q 173 405 248 456 m 260 -40 q 246 -40 260 -40 q 214 -58 232 -40 q 195 -99 195 -77 q 205 -148 195 -122 q 215 -185 215 -174 q 187 -251 215 -221 l 211 -279 q 325 -114 325 -214 q 306 -61 325 -82 q 260 -40 288 -40 z "},"Ŋ":{"ha":593,"x_min":62,"x_max":529,"o":"m 529 568 l 446 568 l 446 146 l 208 568 l 62 568 l 62 0 l 145 0 l 145 423 l 383 0 l 390 -16 l 390 -33 q 378 -70 390 -56 q 336 -84 366 -84 q 278 -40 306 -84 l 238 -138 q 356 -166 300 -166 q 529 -5 529 -166 l 529 568 z "},"ŋ":{"ha":521,"x_min":64,"x_max":465,"o":"m 173 405 l 127 445 l 64 445 l 64 0 l 203 0 l 203 355 q 271 378 237 378 q 316 358 305 378 q 327 295 327 339 l 327 -33 q 279 -84 327 -84 q 216 -40 241 -84 l 174 -138 q 295 -166 237 -166 q 465 -5 465 -166 l 465 313 q 429 416 465 376 q 321 456 394 456 q 173 405 248 456 z "},"Ō":{"ha":542,"x_min":31,"x_max":512,"o":"m 394 725 l 151 725 l 151 631 l 394 631 l 394 725 m 272 -11 q 459 66 407 -11 q 512 283 512 143 q 459 501 512 423 q 272 580 407 580 q 77 492 129 580 q 31 284 31 414 q 151 10 31 64 q 272 -11 200 -11 m 171 284 q 178 407 171 357 q 209 490 185 456 q 272 524 232 524 q 373 284 373 524 q 272 44 373 44 q 209 78 232 44 q 178 162 185 112 q 171 284 171 211 z "},"ō":{"ha":496,"x_min":37,"x_max":458,"o":"m 368 602 l 126 602 l 126 508 l 368 508 l 368 602 m 458 222 q 248 456 458 456 q 37 222 37 456 q 248 -11 37 -11 q 458 222 458 -11 m 174 222 q 189 348 174 309 q 248 388 204 388 q 306 349 292 388 q 320 222 320 310 q 306 96 320 135 q 248 57 292 57 q 189 96 204 57 q 174 222 174 136 z "},"Ŏ":{"ha":542,"x_min":31,"x_max":512,"o":"m 339 761 q 271 696 339 696 q 203 761 203 696 l 148 761 q 272 615 148 615 q 395 761 395 615 l 339 761 m 272 -11 q 459 66 407 -11 q 512 283 512 143 q 459 501 512 423 q 272 580 407 580 q 77 492 129 580 q 31 284 31 414 q 151 10 31 64 q 272 -11 200 -11 m 171 284 q 178 407 171 357 q 209 490 185 456 q 272 524 232 524 q 373 284 373 524 q 272 44 373 44 q 209 78 232 44 q 178 162 185 112 q 171 284 171 211 z "},"ŏ":{"ha":496,"x_min":37,"x_max":458,"o":"m 313 638 q 245 572 313 572 q 177 638 177 572 l 122 638 q 247 492 122 492 q 371 638 371 492 l 313 638 m 458 222 q 248 456 458 456 q 37 222 37 456 q 248 -11 37 -11 q 458 222 458 -11 m 174 222 q 189 348 174 309 q 248 388 204 388 q 306 349 292 388 q 320 222 320 310 q 306 96 320 135 q 248 57 292 57 q 189 96 204 57 q 174 222 174 136 z "},"Ő":{"ha":542,"x_min":31,"x_max":512,"o":"m 221 807 l 116 641 l 142 610 l 300 717 l 221 807 m 395 807 l 289 641 l 316 610 l 473 717 l 395 807 m 272 -11 q 459 66 407 -11 q 512 283 512 143 q 459 501 512 423 q 272 580 407 580 q 77 492 129 580 q 31 284 31 414 q 151 10 31 64 q 272 -11 200 -11 m 171 284 q 178 407 171 357 q 209 490 185 456 q 272 524 232 524 q 373 284 373 524 q 272 44 373 44 q 209 78 232 44 q 178 162 185 112 q 171 284 171 211 z "},"ő":{"ha":496,"x_min":37,"x_max":458,"o":"m 196 685 l 91 518 l 117 487 l 276 593 l 196 685 m 371 685 l 264 518 l 292 487 l 450 593 l 371 685 m 458 222 q 248 456 458 456 q 37 222 37 456 q 248 -11 37 -11 q 458 222 458 -11 m 174 222 q 189 348 174 309 q 248 388 204 388 q 306 349 292 388 q 320 222 320 310 q 306 96 320 135 q 248 57 292 57 q 189 96 204 57 q 174 222 174 136 z "},"Œ":{"ha":727,"x_min":31,"x_max":708,"o":"m 708 67 l 445 67 q 504 256 498 130 l 671 256 l 671 323 l 503 323 q 444 502 497 442 l 693 502 l 693 568 l 269 568 q 77 482 130 568 q 31 284 31 407 q 101 54 31 124 q 268 0 158 0 l 708 0 l 708 67 m 269 502 q 365 284 365 502 q 268 67 365 67 q 171 284 171 67 q 269 502 171 502 z "},"œ":{"ha":759,"x_min":37,"x_max":723,"o":"m 723 204 l 723 219 q 526 456 723 456 q 389 414 439 456 q 247 456 337 456 q 37 222 37 456 q 247 -11 37 -11 q 387 30 334 -11 q 533 -11 439 -11 q 668 26 626 -11 q 718 127 711 63 l 603 130 q 536 57 601 57 q 478 88 497 57 q 460 204 460 120 l 723 204 m 174 222 q 189 348 174 309 q 248 388 204 388 q 306 349 292 388 q 320 222 320 310 q 306 96 320 135 q 248 57 292 57 q 189 96 204 57 q 174 222 174 136 m 589 272 l 462 272 q 481 363 466 339 q 528 388 497 388 q 572 360 559 388 q 589 272 586 332 z "},"Ŕ":{"ha":526,"x_min":64,"x_max":508,"o":"m 229 610 l 386 717 l 306 807 l 201 641 l 229 610 m 508 0 l 420 211 q 383 250 410 234 q 484 393 484 280 q 447 510 484 460 q 285 568 403 568 l 64 568 l 64 0 l 204 0 l 204 236 l 227 236 q 260 230 252 236 q 277 203 268 224 l 360 0 l 508 0 m 204 285 l 204 518 l 266 518 q 324 481 303 518 q 345 397 345 444 q 324 318 345 350 q 266 285 303 285 l 204 285 z "},"ŕ":{"ha":320,"x_min":64,"x_max":324,"o":"m 147 487 l 305 593 l 226 685 l 120 518 l 147 487 m 127 445 l 64 445 l 64 0 l 203 0 l 203 276 q 229 332 203 314 q 324 351 256 351 l 324 449 q 183 367 234 449 l 127 445 z "},"Ŗ":{"ha":526,"x_min":64,"x_max":508,"o":"m 508 0 l 420 211 q 383 250 410 234 q 484 393 484 280 q 447 510 484 460 q 285 568 403 568 l 64 568 l 64 0 l 204 0 l 204 236 l 227 236 q 260 230 252 236 q 277 203 268 224 l 360 0 l 508 0 m 204 285 l 204 518 l 266 518 q 324 481 303 518 q 345 397 345 444 q 324 318 345 350 q 266 285 303 285 l 204 285 m 262 -40 q 248 -40 262 -40 q 216 -59 235 -40 q 196 -100 196 -78 q 207 -148 196 -122 q 217 -185 217 -174 q 189 -251 217 -221 l 214 -279 q 327 -114 327 -214 q 308 -61 327 -82 q 262 -40 289 -40 z "},"ŗ":{"ha":320,"x_min":58,"x_max":324,"o":"m 127 445 l 64 445 l 64 0 l 203 0 l 203 276 q 229 332 203 314 q 324 351 256 351 l 324 449 q 183 367 234 449 l 127 445 m 131 -40 q 117 -40 131 -40 q 85 -59 104 -40 q 65 -100 65 -78 q 75 -148 65 -122 q 85 -185 85 -174 q 58 -251 85 -222 l 83 -279 q 195 -114 195 -214 q 177 -61 195 -82 q 131 -40 158 -40 z "},"Ř":{"ha":526,"x_min":64,"x_max":508,"o":"m 234 607 l 297 607 l 386 753 l 350 785 l 263 709 l 180 785 l 142 753 l 234 607 m 508 0 l 420 211 q 383 250 410 234 q 484 393 484 280 q 447 510 484 460 q 285 568 403 568 l 64 568 l 64 0 l 204 0 l 204 236 l 227 236 q 260 230 252 236 q 277 203 268 224 l 360 0 l 508 0 m 204 285 l 204 518 l 266 518 q 324 481 303 518 q 345 397 345 444 q 324 318 345 350 q 266 285 303 285 l 204 285 z "},"ř":{"ha":320,"x_min":62,"x_max":324,"o":"m 152 484 l 216 484 l 305 629 l 268 662 l 183 586 l 99 662 l 62 629 l 152 484 m 127 445 l 64 445 l 64 0 l 203 0 l 203 276 q 229 332 203 314 q 324 351 256 351 l 324 449 q 183 367 234 449 l 127 445 z "},"Ś":{"ha":483,"x_min":26,"x_max":457,"o":"m 284 807 l 179 641 l 206 610 l 363 717 l 284 807 m 38 405 q 73 287 38 327 q 187 229 108 246 l 227 220 q 321 187 298 204 q 345 131 345 171 q 318 68 345 91 q 245 44 292 44 q 137 183 147 44 l 26 166 q 89 32 36 75 q 245 -11 142 -11 q 403 33 348 -11 q 457 158 457 78 q 423 277 457 237 q 308 336 388 318 l 261 348 q 172 382 194 365 q 150 438 150 399 q 174 500 150 477 q 243 524 199 524 q 314 488 288 524 q 342 387 340 452 l 453 403 q 391 536 442 493 q 243 580 340 580 q 38 405 38 580 z "},"ś":{"ha":434,"x_min":27,"x_max":407,"o":"m 261 685 l 154 518 l 182 487 l 340 593 l 261 685 m 238 284 q 173 311 195 297 q 151 348 151 325 q 213 388 151 388 q 288 299 280 388 l 403 314 q 347 420 392 384 q 219 456 303 456 q 85 421 135 456 q 35 323 35 386 q 65 228 35 261 q 157 178 95 195 l 196 166 q 290 98 290 140 q 225 57 290 57 q 167 82 189 57 q 141 150 145 106 l 27 133 q 83 25 38 62 q 216 -11 129 -11 q 355 26 304 -11 q 407 125 407 63 q 373 220 407 188 q 276 271 340 252 l 238 284 z "},"Ŝ":{"ha":483,"x_min":26,"x_max":457,"o":"m 210 785 l 119 638 l 157 607 l 240 682 l 326 607 l 362 638 l 273 785 l 210 785 m 38 405 q 73 287 38 327 q 187 229 108 246 l 227 220 q 321 187 298 204 q 345 131 345 171 q 318 68 345 91 q 245 44 292 44 q 137 183 147 44 l 26 166 q 89 32 36 75 q 245 -11 142 -11 q 403 33 348 -11 q 457 158 457 78 q 423 277 457 237 q 308 336 388 318 l 261 348 q 172 382 194 365 q 150 438 150 399 q 174 500 150 477 q 243 524 199 524 q 314 488 288 524 q 342 387 340 452 l 453 403 q 391 536 442 493 q 243 580 340 580 q 38 405 38 580 z "},"ŝ":{"ha":434,"x_min":27,"x_max":407,"o":"m 185 662 l 95 514 l 132 484 l 216 559 l 302 484 l 339 514 l 250 662 l 185 662 m 238 284 q 173 311 195 297 q 151 348 151 325 q 213 388 151 388 q 288 299 280 388 l 403 314 q 347 420 392 384 q 219 456 303 456 q 85 421 135 456 q 35 323 35 386 q 65 228 35 261 q 157 178 95 195 l 196 166 q 290 98 290 140 q 225 57 290 57 q 167 82 189 57 q 141 150 145 106 l 27 133 q 83 25 38 62 q 216 -11 129 -11 q 355 26 304 -11 q 407 125 407 63 q 373 220 407 188 q 276 271 340 252 l 238 284 z "},"Ş":{"ha":483,"x_min":26,"x_max":457,"o":"m 308 336 l 261 348 q 172 382 194 365 q 150 438 150 399 q 174 500 150 477 q 243 524 199 524 q 314 488 288 524 q 342 387 340 452 l 453 403 q 391 536 442 493 q 243 580 340 580 q 38 405 38 580 q 73 287 38 327 q 187 229 108 246 l 227 220 q 321 187 298 204 q 345 131 345 171 q 318 68 345 91 q 245 44 292 44 q 137 183 147 44 l 26 166 q 82 38 36 82 q 214 -10 127 -5 l 198 -69 q 253 -89 238 -77 q 267 -126 267 -101 q 247 -151 267 -151 q 232 -138 238 -151 q 225 -105 225 -126 l 152 -114 q 250 -195 152 -195 q 323 -171 299 -195 q 346 -109 346 -146 q 262 -30 346 -42 l 269 -10 q 457 162 457 0 q 423 277 457 237 q 308 336 388 318 z "},"ş":{"ha":434,"x_min":27,"x_max":407,"o":"m 276 271 l 238 284 q 173 311 195 297 q 151 348 151 325 q 213 388 151 388 q 288 299 280 388 l 403 314 q 347 420 392 384 q 219 456 303 456 q 85 421 135 456 q 35 323 35 386 q 65 228 35 261 q 157 178 95 195 l 196 166 q 290 98 290 140 q 225 57 290 57 q 167 82 189 57 q 141 150 145 106 l 27 133 q 77 32 37 68 q 198 -10 116 -5 l 183 -69 q 237 -89 222 -77 q 251 -126 251 -101 q 231 -151 251 -151 q 216 -138 222 -151 q 209 -105 209 -126 l 137 -114 q 234 -195 137 -195 q 307 -171 284 -195 q 330 -109 330 -146 q 247 -30 330 -42 l 253 -10 q 364 34 321 -2 q 407 129 407 70 q 373 220 407 188 q 276 271 340 252 z "},"Š":{"ha":483,"x_min":26,"x_max":457,"o":"m 158 785 l 120 753 l 211 607 l 274 607 l 363 753 l 327 785 l 241 709 l 158 785 m 38 405 q 73 287 38 327 q 187 229 108 246 l 227 220 q 321 187 298 204 q 345 131 345 171 q 318 68 345 91 q 245 44 292 44 q 137 183 147 44 l 26 166 q 89 32 36 75 q 245 -11 142 -11 q 403 33 348 -11 q 457 158 457 78 q 423 277 457 237 q 308 336 388 318 l 261 348 q 172 382 194 365 q 150 438 150 399 q 174 500 150 477 q 243 524 199 524 q 314 488 288 524 q 342 387 340 452 l 453 403 q 391 536 442 493 q 243 580 340 580 q 38 405 38 580 z "},"š":{"ha":434,"x_min":27,"x_max":407,"o":"m 133 662 l 95 629 l 187 484 l 251 484 l 340 629 l 303 662 l 217 586 l 133 662 m 238 284 q 173 311 195 297 q 151 348 151 325 q 213 388 151 388 q 288 299 280 388 l 403 314 q 347 420 392 384 q 219 456 303 456 q 85 421 135 456 q 35 323 35 386 q 65 228 35 261 q 157 178 95 195 l 196 166 q 290 98 290 140 q 225 57 290 57 q 167 82 189 57 q 141 150 145 106 l 27 133 q 83 25 38 62 q 216 -11 129 -11 q 355 26 304 -11 q 407 125 407 63 q 373 220 407 188 q 276 271 340 252 l 238 284 z "},"Ţ":{"ha":415,"x_min":-9,"x_max":424,"o":"m 240 0 l 278 0 l 278 502 l 424 502 l 424 568 l -9 568 l -9 502 l 140 502 l 140 0 l 184 0 l 164 -69 q 219 -89 205 -77 q 234 -126 234 -101 q 214 -151 234 -151 q 198 -138 205 -151 q 192 -105 192 -126 l 119 -114 q 216 -195 119 -195 q 289 -171 266 -195 q 313 -109 313 -146 q 229 -30 313 -42 l 240 0 z "},"ţ":{"ha":304,"x_min":10,"x_max":315,"o":"m 184 -10 q 208 -11 192 -11 q 315 16 264 -11 l 297 78 q 247 64 267 64 q 215 108 215 64 l 215 374 l 299 374 l 299 445 l 215 445 l 215 552 l 77 505 l 77 445 l 10 445 l 10 374 l 77 374 l 77 135 q 133 4 77 30 l 114 -69 q 169 -89 154 -77 q 183 -126 183 -101 q 162 -151 183 -151 q 146 -138 153 -151 q 140 -105 140 -126 l 68 -114 q 164 -195 68 -195 q 238 -171 215 -195 q 262 -109 262 -146 q 178 -30 262 -42 l 184 -10 z "},"Ť":{"ha":415,"x_min":-9,"x_max":424,"o":"m 178 607 l 241 607 l 330 753 l 294 785 l 208 709 l 125 785 l 86 753 l 178 607 m 424 568 l -9 568 l -9 502 l 140 502 l 140 0 l 278 0 l 278 502 l 424 502 l 424 568 z "},"ť":{"ha":327,"x_min":10,"x_max":374,"o":"m 310 696 q 296 696 310 696 q 264 677 283 696 q 245 635 245 657 q 255 586 245 612 q 264 549 264 560 q 237 484 264 513 l 262 455 q 374 622 374 520 q 355 675 374 654 q 310 696 336 696 m 215 108 l 215 374 l 299 374 l 299 445 l 215 445 l 215 552 l 77 505 l 77 445 l 10 445 l 10 374 l 77 374 l 77 135 q 106 22 77 52 q 202 -11 140 -11 q 315 16 264 -11 l 297 78 q 247 64 267 64 q 215 108 215 64 z "},"Ŧ":{"ha":415,"x_min":-9,"x_max":424,"o":"m 278 502 l 424 502 l 424 568 l -9 568 l -9 502 l 140 502 l 140 302 l 22 302 l 22 215 l 140 215 l 140 0 l 278 0 l 278 215 l 394 215 l 394 302 l 278 302 l 278 502 z "},"ŧ":{"ha":304,"x_min":-6,"x_max":315,"o":"m 297 78 q 247 64 267 64 q 215 108 215 64 l 215 193 l 273 193 l 273 279 l 215 279 l 215 374 l 299 374 l 299 445 l 215 445 l 215 552 l 77 505 l 77 445 l 10 445 l 10 374 l 77 374 l 77 279 l -6 279 l -6 193 l 77 193 l 77 135 q 106 22 77 52 q 202 -11 140 -11 q 315 16 264 -11 l 297 78 z "},"Ũ":{"ha":551,"x_min":53,"x_max":498,"o":"m 428 743 l 384 757 q 339 723 371 723 q 286 738 321 723 q 222 753 251 753 q 140 640 152 753 l 182 625 q 227 662 196 662 q 279 648 243 662 q 344 634 314 634 q 397 660 373 634 q 428 743 420 686 m 498 568 l 416 568 l 416 188 q 382 88 416 120 q 293 57 347 57 q 193 188 193 57 l 193 568 l 53 568 l 53 188 q 284 -11 53 -11 q 425 28 362 -11 q 498 188 498 74 l 498 568 z "},"ũ":{"ha":520,"x_min":57,"x_max":455,"o":"m 204 540 q 255 525 220 540 q 320 510 290 510 q 373 536 350 510 q 404 619 397 562 l 361 634 q 315 599 350 599 q 263 614 298 599 q 199 629 227 629 q 116 518 129 629 l 158 502 q 204 540 172 540 m 455 445 l 318 445 l 318 93 q 253 61 287 61 q 208 83 220 61 q 195 148 195 105 l 195 445 l 57 445 l 57 130 q 203 -11 57 -11 q 331 44 282 -11 l 367 0 l 455 0 l 455 445 z "},"Ū":{"ha":551,"x_min":53,"x_max":498,"o":"m 405 725 l 162 725 l 162 631 l 405 631 l 405 725 m 498 568 l 416 568 l 416 188 q 382 88 416 120 q 293 57 347 57 q 193 188 193 57 l 193 568 l 53 568 l 53 188 q 284 -11 53 -11 q 425 28 362 -11 q 498 188 498 74 l 498 568 z "},"ū":{"ha":520,"x_min":57,"x_max":455,"o":"m 382 508 l 382 602 l 140 602 l 140 508 l 382 508 m 455 445 l 318 445 l 318 93 q 253 61 287 61 q 208 83 220 61 q 195 148 195 105 l 195 445 l 57 445 l 57 130 q 203 -11 57 -11 q 331 44 282 -11 l 367 0 l 455 0 l 455 445 z "},"Ŭ":{"ha":551,"x_min":53,"x_max":498,"o":"m 350 761 q 282 696 350 696 q 214 761 214 696 l 159 761 q 283 615 159 615 q 407 761 407 615 l 350 761 m 498 568 l 416 568 l 416 188 q 382 88 416 120 q 293 57 347 57 q 193 188 193 57 l 193 568 l 53 568 l 53 188 q 284 -11 53 -11 q 425 28 362 -11 q 498 188 498 74 l 498 568 z "},"ŭ":{"ha":520,"x_min":57,"x_max":455,"o":"m 384 638 l 326 638 q 258 572 326 572 q 190 638 190 572 l 136 638 q 260 492 136 492 q 384 638 384 492 m 455 445 l 318 445 l 318 93 q 253 61 287 61 q 208 83 220 61 q 195 148 195 105 l 195 445 l 57 445 l 57 130 q 203 -11 57 -11 q 331 44 282 -11 l 367 0 l 455 0 l 455 445 z "},"Ů":{"ha":551,"x_min":53,"x_max":498,"o":"m 379 696 q 358 761 379 733 q 283 788 337 788 q 188 694 188 788 q 284 601 188 601 q 379 696 379 601 m 253 696 q 283 745 253 745 q 313 696 313 745 q 283 646 313 646 q 253 696 253 646 m 498 568 l 416 568 l 416 188 q 382 88 416 120 q 293 57 347 57 q 193 188 193 57 l 193 568 l 53 568 l 53 188 q 284 -11 53 -11 q 425 28 362 -11 q 498 188 498 74 l 498 568 z "},"ů":{"ha":520,"x_min":57,"x_max":455,"o":"m 356 572 q 335 637 356 609 q 259 665 314 665 q 164 571 164 665 q 260 477 164 477 q 356 572 356 477 m 289 572 q 259 523 289 523 q 230 572 230 523 q 259 622 230 622 q 289 572 289 622 m 455 445 l 318 445 l 318 93 q 253 61 287 61 q 208 83 220 61 q 195 148 195 105 l 195 445 l 57 445 l 57 130 q 203 -11 57 -11 q 331 44 282 -11 l 367 0 l 455 0 l 455 445 z "},"Ű":{"ha":551,"x_min":53,"x_max":498,"o":"m 234 807 l 129 641 l 154 610 l 313 717 l 234 807 m 407 807 l 302 641 l 329 610 l 486 717 l 407 807 m 498 568 l 416 568 l 416 188 q 382 88 416 120 q 293 57 347 57 q 193 188 193 57 l 193 568 l 53 568 l 53 188 q 284 -11 53 -11 q 425 28 362 -11 q 498 188 498 74 l 498 568 z "},"ű":{"ha":520,"x_min":57,"x_max":462,"o":"m 131 487 l 289 593 l 210 685 l 105 518 l 131 487 m 278 518 l 305 487 l 462 593 l 384 685 l 278 518 m 318 445 l 318 93 q 253 61 287 61 q 208 83 220 61 q 195 148 195 105 l 195 445 l 57 445 l 57 130 q 203 -11 57 -11 q 331 44 282 -11 l 367 0 l 455 0 l 455 445 l 318 445 z "},"Ų":{"ha":551,"x_min":53,"x_max":498,"o":"m 498 568 l 416 568 l 416 188 q 382 88 416 120 q 293 57 347 57 q 193 188 193 57 l 193 568 l 53 568 l 53 188 q 272 -11 53 -4 q 214 -96 214 -48 q 237 -150 214 -130 q 297 -171 261 -171 q 364 -145 332 -171 q 413 -89 395 -120 l 371 -62 q 311 -106 342 -106 q 289 -98 298 -106 q 279 -77 279 -90 q 321 -21 279 -48 l 352 -4 q 498 188 498 32 l 498 568 z "},"ų":{"ha":520,"x_min":57,"x_max":510,"o":"m 468 -62 q 409 -106 440 -106 q 386 -98 395 -106 q 377 -77 377 -90 q 419 -21 377 -48 l 456 0 l 455 0 l 455 445 l 318 445 l 318 93 q 253 61 287 61 q 208 83 220 61 q 195 148 195 105 l 195 445 l 57 445 l 57 130 q 203 -11 57 -11 q 331 44 282 -11 l 367 0 l 386 0 l 382 -4 q 311 -96 311 -43 q 335 -150 311 -130 q 395 -171 358 -171 q 462 -145 431 -171 q 510 -89 493 -120 l 468 -62 z "},"Ŵ":{"ha":730,"x_min":14,"x_max":718,"o":"m 313 607 l 395 682 l 482 607 l 518 638 l 429 785 l 366 785 l 274 638 l 313 607 m 718 568 l 635 568 l 559 169 l 460 568 l 332 568 l 230 167 l 151 568 l 14 568 l 130 0 l 262 0 l 372 414 l 476 0 l 601 0 l 718 568 z "},"ŵ":{"ha":614,"x_min":4,"x_max":610,"o":"m 226 484 l 309 559 l 395 484 l 431 514 l 342 662 l 279 662 l 188 514 l 226 484 m 610 445 l 533 445 l 460 105 l 398 445 l 276 445 l 204 108 l 143 445 l 4 445 l 95 0 l 250 0 l 304 231 l 351 0 l 504 0 l 610 445 z "},"Ŷ":{"ha":463,"x_min":-14,"x_max":476,"o":"m 148 607 l 231 682 l 318 607 l 353 638 l 264 785 l 201 785 l 110 638 l 148 607 m 302 196 l 476 568 l 395 568 l 256 273 l 126 568 l -14 568 l 162 195 l 162 0 l 302 0 l 302 196 z "},"ŷ":{"ha":430,"x_min":1,"x_max":430,"o":"m 161 484 l 243 559 l 329 484 l 366 514 l 277 662 l 214 662 l 122 514 l 161 484 m 430 445 l 351 445 l 257 154 l 138 445 l 1 445 l 198 -15 l 117 -177 l 219 -188 l 430 445 z "},"Ÿ":{"ha":463,"x_min":-14,"x_max":476,"o":"m 133 617 q 148 617 133 617 q 185 638 163 617 q 206 690 206 660 q 185 742 206 720 q 133 764 163 764 q 82 742 103 764 q 62 690 62 720 q 83 638 62 660 q 133 617 104 617 m 331 617 q 346 617 331 617 q 383 638 361 617 q 405 690 405 660 q 383 742 405 720 q 331 764 361 764 q 280 742 302 764 q 258 691 258 720 q 280 639 258 661 q 331 617 302 617 m 302 196 l 476 568 l 395 568 l 256 273 l 126 568 l -14 568 l 162 195 l 162 0 l 302 0 l 302 196 z "},"Ź":{"ha":446,"x_min":14,"x_max":432,"o":"m 187 610 l 345 717 l 266 807 l 161 641 l 187 610 m 432 67 l 154 67 l 425 481 l 425 568 l 28 568 l 28 502 l 284 502 l 14 88 l 14 0 l 432 0 l 432 67 z "},"ź":{"ha":389,"x_min":20,"x_max":369,"o":"m 159 487 l 318 593 l 238 685 l 132 518 l 159 487 m 369 69 l 166 69 l 363 365 l 363 445 l 25 445 l 25 374 l 220 374 l 20 82 l 20 0 l 369 0 l 369 69 z "},"Ż":{"ha":446,"x_min":14,"x_max":432,"o":"m 224 609 q 241 609 224 609 q 282 633 258 609 q 305 691 305 657 q 282 749 305 725 q 224 774 258 774 q 166 749 189 774 q 142 691 142 725 q 166 633 142 657 q 224 609 189 609 m 432 67 l 154 67 l 425 481 l 425 568 l 28 568 l 28 502 l 284 502 l 14 88 l 14 0 l 432 0 l 432 67 z "},"ż":{"ha":389,"x_min":20,"x_max":369,"o":"m 276 566 q 252 625 276 601 q 195 650 229 650 q 137 626 161 650 q 114 568 114 602 q 137 510 114 534 q 195 486 161 486 q 252 508 229 486 q 276 566 276 531 m 369 69 l 166 69 l 363 365 l 363 445 l 25 445 l 25 374 l 220 374 l 20 82 l 20 0 l 369 0 l 369 69 z "},"Ž":{"ha":446,"x_min":14,"x_max":432,"o":"m 193 607 l 256 607 l 345 753 l 308 785 l 222 709 l 140 785 l 101 753 l 193 607 m 432 67 l 154 67 l 425 481 l 425 568 l 28 568 l 28 502 l 284 502 l 14 88 l 14 0 l 432 0 l 432 67 z "},"ž":{"ha":389,"x_min":20,"x_max":369,"o":"m 164 484 l 229 484 l 318 629 l 280 662 l 195 586 l 111 662 l 73 629 l 164 484 m 369 69 l 166 69 l 363 365 l 363 445 l 25 445 l 25 374 l 220 374 l 20 82 l 20 0 l 369 0 l 369 69 z "},"ƒ":{"ha":491,"x_min":64,"x_max":444,"o":"m 292 314 l 292 447 q 303 483 292 468 q 336 497 315 497 q 404 452 376 497 l 444 551 q 326 580 383 580 q 153 418 153 580 l 153 314 l 82 314 l 82 221 l 153 221 l 153 33 q 138 -86 153 -56 q 64 -116 122 -116 l 73 -171 q 249 -127 206 -171 q 292 32 292 -83 l 292 221 l 405 221 l 405 314 l 292 314 z "},"Ǻ":{"ha":520,"x_min":6,"x_max":517,"o":"m 356 696 q 345 745 356 724 l 407 778 l 346 848 l 298 783 q 259 788 276 788 q 164 694 164 788 q 260 601 164 601 q 356 696 356 601 m 289 696 q 259 646 289 646 q 230 696 230 646 q 259 745 230 745 q 289 696 289 745 m 335 157 l 382 0 l 517 0 l 341 568 l 179 568 l 6 0 l 84 0 l 131 157 l 335 157 m 315 224 l 151 224 l 234 499 l 315 224 z "},"ǻ":{"ha":489,"x_min":40,"x_max":432,"o":"m 348 572 q 337 622 348 601 l 399 655 l 339 724 l 290 660 q 251 665 268 665 q 157 571 157 665 q 253 477 157 477 q 348 572 348 477 m 282 572 q 252 523 282 523 q 222 572 222 523 q 252 622 222 622 q 282 572 282 622 m 59 302 l 173 288 q 240 388 178 388 q 295 310 295 388 l 295 266 l 219 251 q 80 203 121 234 q 40 115 40 173 q 75 23 40 57 q 168 -11 110 -11 q 306 52 255 -11 l 341 0 l 432 0 l 432 302 q 243 456 432 456 q 108 418 148 456 q 59 302 67 381 m 295 210 l 295 100 q 225 61 258 61 q 162 119 162 61 q 240 199 162 182 l 295 210 z "},"Ǽ":{"ha":745,"x_min":12,"x_max":727,"o":"m 430 610 l 588 717 l 509 807 l 404 641 l 430 610 m 727 67 l 514 67 l 514 240 l 690 240 l 690 306 l 514 306 l 514 502 l 711 502 l 711 568 l 251 568 l 12 0 l 93 0 l 192 240 l 373 240 l 373 0 l 727 0 l 727 67 m 373 306 l 217 306 l 298 502 l 373 502 l 373 306 z "},"ǽ":{"ha":683,"x_min":40,"x_max":678,"o":"m 361 487 l 518 593 l 440 685 l 334 518 l 361 487 m 678 204 l 678 219 q 483 456 678 456 q 362 428 413 456 q 232 456 316 456 q 108 418 148 456 q 59 302 67 381 l 173 288 q 240 388 178 388 q 294 332 282 388 q 280 263 283 304 l 219 256 q 82 209 125 243 q 40 116 40 174 q 75 23 40 57 q 168 -11 110 -11 q 316 61 262 -11 q 486 -11 363 -11 q 672 127 661 -11 l 560 130 q 493 57 557 57 q 434 88 452 57 q 416 204 416 119 l 678 204 m 544 272 l 418 272 q 436 364 421 340 q 482 388 451 388 q 544 272 539 388 m 216 61 q 177 77 192 61 q 162 124 162 93 q 183 176 162 154 q 240 203 205 198 l 278 208 q 295 100 280 141 q 216 61 269 61 z "},"Ǿ":{"ha":542,"x_min":31,"x_max":512,"o":"m 259 612 l 418 718 l 339 808 l 232 643 l 259 612 m 374 610 l 318 610 l 310 577 q 272 580 285 580 q 77 492 129 580 q 31 293 31 414 q 64 99 31 172 q 178 1 96 27 l 168 -43 l 224 -43 l 231 -9 q 272 -11 256 -11 q 459 66 407 -11 q 512 269 512 143 q 479 468 512 395 q 365 566 446 540 l 374 610 m 272 524 q 297 519 287 524 l 199 93 q 171 253 171 148 q 178 407 171 357 q 209 490 185 456 q 272 524 232 524 m 245 49 l 344 474 q 373 284 373 416 q 272 44 373 44 q 245 49 255 44 z "},"ǿ":{"ha":452,"x_min":37,"x_max":458,"o":"m 227 487 l 384 593 l 306 685 l 200 518 l 227 487 m 351 507 l 295 507 l 280 455 q 247 456 271 456 q 37 222 37 456 q 162 1 37 41 l 145 -62 l 200 -62 l 214 -10 q 247 -11 225 -11 q 458 222 458 -11 q 335 444 458 402 l 351 507 m 247 388 q 262 387 258 388 l 188 101 q 174 222 174 135 q 189 348 174 309 q 247 388 204 388 m 232 58 l 308 344 q 320 222 320 310 q 306 96 320 135 q 247 57 292 57 q 232 58 237 57 z "},"Ș":{"ha":483,"x_min":26,"x_max":457,"o":"m 38 405 q 73 287 38 327 q 187 229 108 246 l 227 220 q 321 187 298 204 q 345 131 345 171 q 318 68 345 91 q 245 44 292 44 q 137 183 147 44 l 26 166 q 89 32 36 75 q 245 -11 142 -11 q 403 33 348 -11 q 457 158 457 78 q 423 277 457 237 q 308 336 388 318 l 261 348 q 172 382 194 365 q 150 438 150 399 q 174 500 150 477 q 243 524 199 524 q 314 488 288 524 q 342 387 340 452 l 453 403 q 391 536 442 493 q 243 580 340 580 q 38 405 38 580 m 240 -40 q 226 -40 240 -40 q 193 -59 213 -40 q 174 -100 174 -78 q 185 -148 174 -122 q 195 -185 195 -174 q 167 -251 195 -221 l 192 -279 q 305 -114 305 -214 q 286 -61 305 -82 q 240 -40 267 -40 z "},"ș":{"ha":434,"x_min":27,"x_max":407,"o":"m 238 284 q 173 311 195 297 q 151 348 151 325 q 213 388 151 388 q 288 299 280 388 l 403 314 q 347 420 392 384 q 219 456 303 456 q 85 421 135 456 q 35 323 35 386 q 65 228 35 261 q 157 178 95 195 l 196 166 q 290 98 290 140 q 225 57 290 57 q 167 82 189 57 q 141 150 145 106 l 27 133 q 83 25 38 62 q 216 -11 129 -11 q 355 26 304 -11 q 407 125 407 63 q 373 220 407 188 q 276 271 340 252 l 238 284 m 225 -40 q 211 -40 225 -40 q 179 -58 198 -40 q 159 -99 159 -77 q 169 -148 159 -122 q 179 -185 179 -174 q 151 -251 179 -222 l 175 -279 q 289 -114 289 -215 q 271 -61 289 -82 q 225 -40 252 -40 z "},"Ț":{"ha":415,"x_min":-9,"x_max":424,"o":"m 424 568 l -9 568 l -9 502 l 140 502 l 140 0 l 278 0 l 278 502 l 424 502 l 424 568 m 206 -40 q 193 -40 206 -40 q 160 -59 179 -40 q 141 -100 141 -78 q 151 -148 141 -122 q 162 -185 162 -174 q 133 -251 162 -221 l 158 -279 q 272 -114 272 -214 q 253 -61 272 -82 q 206 -40 234 -40 z "},"ț":{"ha":304,"x_min":10,"x_max":315,"o":"m 315 16 l 297 78 q 247 64 267 64 q 215 108 215 64 l 215 374 l 299 374 l 299 445 l 215 445 l 215 552 l 77 505 l 77 445 l 10 445 l 10 374 l 77 374 l 77 135 q 106 22 77 52 q 202 -11 140 -11 q 315 16 264 -11 m 154 -40 q 140 -40 154 -40 q 108 -58 126 -40 q 89 -99 89 -77 q 99 -148 89 -122 q 109 -185 109 -174 q 82 -251 109 -222 l 106 -279 q 219 -114 219 -214 q 200 -61 219 -82 q 154 -40 182 -40 z "},"ȷ":{"ha":268,"x_min":-88,"x_max":203,"o":"m -88 -138 q 32 -166 -26 -166 q 203 -5 203 -166 l 203 445 l 64 445 l 64 -22 q 53 -67 64 -49 q 22 -84 42 -84 q -47 -40 -19 -84 l -88 -138 z "},"ˆ":{"ha":295,"x_min":26,"x_max":269,"o":"m 117 662 l 26 514 l 63 484 l 147 559 l 232 484 l 269 514 l 180 662 l 117 662 z "},"ˇ":{"ha":295,"x_min":26,"x_max":269,"o":"m 63 662 l 26 629 l 117 484 l 180 484 l 269 629 l 232 662 l 147 586 l 63 662 z "},"˘":{"ha":310,"x_min":31,"x_max":279,"o":"m 221 638 q 153 572 221 572 q 85 638 85 572 l 31 638 q 155 492 31 492 q 279 638 279 492 l 221 638 z "},"˙":{"ha":267,"x_min":52,"x_max":215,"o":"m 133 486 q 151 486 133 486 q 192 508 168 486 q 215 567 215 531 q 192 626 215 602 q 133 650 168 650 q 75 626 99 650 q 52 568 52 602 q 75 510 52 534 q 133 486 99 486 z "},"˚":{"ha":217,"x_min":14,"x_max":205,"o":"m 205 572 q 183 637 205 609 q 108 665 162 665 q 14 571 14 665 q 109 477 14 477 q 205 572 205 477 m 79 572 q 109 622 79 622 q 138 572 138 622 q 109 523 138 523 q 79 572 79 523 z "},"˛":{"ha":237,"x_min":43,"x_max":242,"o":"m 242 -89 l 200 -62 q 141 -106 172 -106 q 118 -98 127 -106 q 109 -77 109 -90 q 151 -21 109 -49 l 188 0 l 147 20 l 114 -4 q 43 -96 43 -43 q 67 -150 43 -130 q 127 -171 90 -171 q 194 -145 163 -171 q 242 -89 225 -120 z "},"˜":{"ha":298,"x_min":6,"x_max":294,"o":"m 294 619 l 251 634 q 205 599 240 599 q 153 614 188 599 q 89 629 117 629 q 6 518 19 629 l 48 502 q 94 540 62 540 q 145 525 110 540 q 210 510 180 510 q 263 536 240 510 q 294 619 287 562 z "},"˝":{"ha":407,"x_min":47,"x_max":405,"o":"m 152 685 l 47 518 l 73 487 l 231 593 l 152 685 m 326 685 l 220 518 l 247 487 l 405 593 l 326 685 z "},"̦":{"ha":0,"x_min":28,"x_max":166,"o":"m 101 -40 q 88 -40 101 -40 q 56 -58 74 -40 q 37 -99 37 -77 q 46 -148 37 -121 q 56 -185 56 -174 q 28 -251 56 -222 l 52 -279 q 166 -112 166 -213 q 147 -60 166 -80 q 101 -40 129 -40 z "},"Δ":{"ha":544,"x_min":1,"x_max":544,"o":"m 544 0 l 348 568 l 195 568 l 1 0 l 544 0 m 377 88 l 112 88 l 245 496 l 377 88 z "},"Ω":{"ha":612,"x_min":30,"x_max":583,"o":"m 458 88 l 458 132 q 552 226 521 168 q 583 340 583 284 q 518 512 583 442 q 306 581 452 581 q 95 512 161 581 q 30 340 30 442 q 61 226 30 284 q 154 132 91 168 l 154 88 l 53 88 l 53 0 l 256 0 l 256 150 q 159 339 159 208 q 306 525 159 525 q 452 339 452 525 q 357 150 452 206 l 357 0 l 559 0 l 559 88 l 458 88 z "},"μ":{"ha":478,"x_min":62,"x_max":458,"o":"m 458 445 l 320 445 l 320 161 q 264 93 320 93 q 200 105 227 93 l 200 445 l 62 445 l 62 -177 l 200 -177 l 200 11 q 325 -11 258 -11 q 425 29 392 -11 q 458 132 458 69 l 458 445 z "},"π":{"ha":517,"x_min":23,"x_max":493,"o":"m 493 374 l 493 445 l 23 445 l 23 374 l 70 374 l 70 0 l 208 0 l 208 374 l 308 374 l 308 0 l 446 0 l 446 374 l 493 374 z "},"़":{"ha":0,"x_min":161,"x_max":935,"o":"m 827 1267 q 765 1210 827 1210 q 704 1267 704 1210 q 722 1309 704 1293 q 767 1325 740 1325 q 811 1309 795 1325 q 827 1267 827 1294 m 757 1368 q 645 1343 693 1368 q 597 1273 597 1318 q 615 1210 597 1228 l 161 1210 l 161 1137 l 782 1137 q 891 1166 846 1137 q 935 1248 935 1195 q 757 1368 935 1368 z "},"ॐ":{"ha":934,"x_min":44,"x_max":884,"o":"m 431 819 l 489 757 l 549 814 l 489 875 l 431 819 m 324 764 q 521 638 405 638 q 673 719 598 638 l 597 783 q 476 715 547 715 q 352 783 405 715 l 324 764 m 624 477 q 725 541 655 541 q 809 496 776 541 q 841 375 841 450 q 806 250 841 300 q 717 200 770 200 q 654 303 654 200 l 654 404 q 624 477 654 462 m 481 206 q 444 114 481 152 q 351 75 407 75 q 245 106 295 75 q 163 187 195 136 q 77 416 96 288 l 44 408 q 154 115 59 232 q 379 -1 251 -1 q 508 44 460 -1 q 556 172 556 90 q 483 353 556 255 q 571 389 538 389 q 612 313 612 389 l 612 271 q 635 152 612 187 q 713 117 659 117 q 837 189 791 117 q 884 383 884 261 q 735 624 884 624 q 597 487 623 624 q 578 489 580 489 q 435 416 512 489 l 419 432 q 432 494 432 462 q 384 625 432 575 q 268 675 336 675 q 147 647 200 675 l 187 555 q 310 589 251 589 q 390 524 390 589 q 258 398 390 437 l 298 305 q 399 390 356 332 q 481 206 481 306 z "},"॑":{"ha":0,"x_min":348,"x_max":451,"o":"m 451 1149 l 451 1599 l 348 1599 l 348 1149 l 451 1149 z "},"॒":{"ha":0,"x_min":150,"x_max":646,"o":"m 150 -638 l 646 -638 l 646 -525 l 150 -525 l 150 -638 z "},"॓":{"ha":744,"x_min":12,"x_max":757,"o":"m 339 662 q 306 673 321 662 q 292 700 292 683 q 310 728 292 717 q 350 739 327 739 l 757 739 l 757 809 l 247 809 q 167 780 201 809 q 133 701 133 750 q 185 623 133 651 q 145 600 161 622 q 129 547 129 578 q 157 491 129 515 q 224 467 185 467 l 403 467 l 403 526 l 345 526 q 308 538 324 526 q 292 564 292 549 q 308 589 292 580 q 341 598 324 598 l 582 598 l 582 662 l 339 662 m 360 332 q 183 384 183 332 q 226 449 183 432 q 329 465 269 465 q 444 440 389 465 q 499 374 499 415 l 662 374 q 580 481 657 435 q 350 526 503 526 q 131 494 226 526 q 50 446 80 478 q 20 371 20 414 q 74 282 20 305 q 222 258 127 258 l 350 258 q 489 238 461 258 q 519 165 519 217 q 474 90 519 112 q 347 67 429 67 q 226 96 266 67 q 185 198 185 126 l 12 198 q 96 41 12 82 q 340 0 179 0 q 612 49 531 0 q 681 175 681 93 q 615 295 681 257 q 442 332 549 332 l 360 332 z "},"।":{"ha":300,"x_min":154,"x_max":230,"o":"m 230 -46 l 230 563 l 154 563 l 154 -46 l 230 -46 z "},"॥":{"ha":540,"x_min":154,"x_max":470,"o":"m 470 -46 l 470 563 l 394 563 l 394 -46 l 470 -46 m 230 -46 l 230 563 l 154 563 l 154 -46 l 230 -46 z "},"ఁ":{"ha":394,"x_min":12,"x_max":381,"o":"m 351 65 q 221 122 267 65 q 174 272 174 178 q 215 414 174 367 q 346 461 256 461 q 381 458 363 461 l 381 525 q 332 530 360 530 q 97 461 182 530 q 12 261 12 392 q 88 65 12 130 q 297 0 163 0 q 381 11 341 0 l 381 67 q 351 65 373 65 z "},"ం":{"ha":715,"x_min":12,"x_max":686,"o":"m 174 260 q 174 312 174 260 q 214 413 174 363 q 350 463 255 463 q 484 418 445 463 q 523 273 523 372 q 344 61 523 61 q 214 109 253 61 q 174 260 174 157 m 352 525 q 277 525 352 525 q 107 462 201 525 q 12 265 12 398 q 101 66 12 132 q 340 0 190 0 q 586 70 491 0 q 683 266 681 140 q 594 458 686 392 q 352 525 503 525 z "},"ః":{"ha":430,"x_min":12,"x_max":394,"o":"m 201 346 q 135 414 135 346 q 202 482 135 482 q 269 420 269 482 q 254 363 269 381 q 201 346 238 346 m 12 413 q 12 382 12 413 q 66 322 12 352 q 200 292 120 292 q 337 322 280 292 q 394 412 394 352 q 337 504 394 472 q 201 535 279 535 q 68 504 124 535 q 12 413 12 473 m 201 53 q 135 121 135 53 q 202 189 135 189 q 269 127 269 189 q 254 70 269 88 q 201 53 238 53 m 12 119 q 12 89 12 119 q 65 28 12 58 q 200 -1 119 -1 q 338 28 282 -1 q 394 119 394 58 q 337 210 394 179 q 201 241 279 241 q 67 211 122 241 q 12 119 12 180 z "},"అ":{"ha":866,"x_min":12,"x_max":838,"o":"m 224 329 q 166 399 166 329 q 224 470 166 470 q 283 405 283 470 q 271 347 283 365 q 224 329 258 329 m 12 292 q 115 64 12 129 q 410 0 217 0 q 717 72 603 0 q 834 294 830 145 q 770 468 838 404 q 588 531 703 531 q 462 488 507 531 q 418 372 418 445 q 467 245 418 299 l 288 245 l 288 184 l 591 184 l 591 246 q 546 276 561 246 q 530 352 530 305 q 546 432 530 398 q 597 467 562 467 q 672 306 672 467 q 613 120 672 174 q 423 65 554 65 q 217 116 292 65 q 143 271 143 167 q 147 314 143 297 q 233 272 163 272 q 342 307 303 272 q 382 405 382 342 q 343 501 382 467 q 236 535 304 535 q 71 469 130 535 q 12 292 12 403 z "},"ఆ":{"ha":865,"x_min":12,"x_max":823,"o":"m 162 393 q 222 470 162 470 q 283 405 283 470 q 271 347 283 365 q 226 329 258 329 q 162 393 162 329 m 635 470 q 711 380 711 470 q 635 290 711 290 q 579 317 598 290 q 560 386 560 344 q 578 449 560 429 q 635 470 596 470 m 236 535 q 71 469 130 535 q 12 292 12 403 q 110 68 12 136 q 415 0 204 0 q 678 32 559 0 q 782 83 743 49 q 822 158 822 117 q 798 228 822 198 q 745 264 774 258 q 823 372 823 289 q 610 529 823 529 q 439 387 439 529 q 461 307 439 340 q 520 263 483 274 l 289 263 l 289 190 l 655 190 q 660 166 660 179 q 598 92 660 122 q 419 62 536 62 q 222 114 302 62 q 143 271 143 167 q 147 314 143 297 q 233 272 163 272 q 342 307 303 272 q 382 405 382 342 q 343 501 382 467 q 236 535 304 535 z "},"ఇ":{"ha":859,"x_min":12,"x_max":839,"o":"m 605 208 q 548 122 598 153 q 428 91 498 91 q 251 111 308 91 q 195 171 195 130 q 238 232 195 213 q 420 251 280 251 q 605 208 559 251 m 261 529 q 12 376 12 529 q 14 346 12 352 l 171 346 l 174 388 q 201 444 174 421 q 269 467 229 467 q 328 452 310 467 q 346 394 346 436 l 346 365 l 455 365 l 455 390 q 526 462 455 462 q 596 426 573 462 q 619 331 619 389 q 617 283 619 320 q 363 321 540 321 q 109 284 185 321 q 32 156 32 246 q 63 79 32 111 q 146 31 94 47 q 346 0 247 0 q 547 27 445 0 q 687 104 649 54 q 709 45 709 78 q 706 -15 709 12 l 839 -15 l 839 6 q 814 118 839 57 q 757 204 788 179 q 782 321 782 284 q 726 475 782 421 q 556 529 670 529 q 407 471 442 529 q 261 529 381 529 z "},"ఈ":{"ha":1248,"x_min":12,"x_max":1216,"o":"m 1024 252 q 1092 183 1092 252 q 1078 119 1092 140 q 1024 99 1063 99 q 956 168 956 99 q 1024 252 956 252 m 269 325 q 327 431 283 398 q 453 463 371 463 q 576 429 535 463 q 629 325 618 395 l 269 325 m 630 253 q 445 61 630 61 q 307 108 350 61 q 264 253 264 154 l 630 253 m 605 717 q 400 542 492 542 q 309 624 309 542 l 142 624 q 226 479 142 519 q 106 325 129 425 l 12 325 l 12 253 l 103 253 q 196 62 103 125 q 442 0 289 0 q 690 65 594 0 q 791 253 786 130 l 887 253 q 833 168 833 235 q 884 75 833 101 q 1014 48 934 48 q 1216 189 1216 48 q 1194 265 1216 234 q 1134 309 1171 297 q 1190 405 1190 347 q 1141 497 1190 463 q 1008 531 1092 531 q 880 504 924 531 q 835 399 837 477 l 950 399 q 947 420 947 407 q 1012 476 947 476 q 1072 460 1053 476 q 1091 405 1091 444 q 984 325 1091 325 l 785 325 q 708 453 770 404 q 555 518 646 502 q 772 680 667 576 l 605 717 z "},"ఉ":{"ha":945,"x_min":12,"x_max":934,"o":"m 865 325 q 896 252 896 287 l 934 252 l 934 325 l 865 325 m 635 285 q 678 334 635 334 q 722 294 722 334 q 710 259 722 272 q 678 246 698 246 q 647 256 659 246 q 635 285 635 267 m 488 561 q 549 585 529 561 q 578 655 568 609 q 492 751 578 751 q 415 647 415 751 q 488 561 415 561 m 482 530 q 408 530 482 530 q 237 484 334 530 q 115 325 140 439 l 12 325 l 12 252 l 106 252 l 106 246 q 345 0 106 0 q 500 63 446 0 q 555 17 513 33 q 646 0 597 0 q 812 49 740 0 q 884 178 884 98 q 835 329 884 283 q 680 374 787 374 q 524 283 524 374 q 643 195 524 195 q 736 222 709 195 l 736 161 q 711 90 736 116 q 639 63 686 63 q 571 91 592 63 q 550 178 550 120 l 444 178 q 422 95 444 126 q 351 63 400 63 q 281 108 302 63 q 261 234 261 153 l 261 252 l 482 252 l 482 325 l 273 325 q 342 434 288 404 q 482 465 397 465 q 675 395 660 465 l 828 395 q 714 505 811 477 q 482 530 630 530 z "},"ఊ":{"ha":1349,"x_min":12,"x_max":1316,"o":"m 1191 405 q 1085 325 1191 325 l 865 325 l 896 252 l 987 252 q 933 161 933 234 q 1116 48 933 48 q 1316 189 1316 48 q 1293 264 1316 232 q 1234 309 1270 297 q 1290 405 1290 347 q 1242 497 1290 463 q 1109 531 1194 531 q 981 503 1024 531 q 937 395 938 474 l 1050 395 q 1048 430 1048 410 q 1112 476 1048 476 q 1172 460 1153 476 q 1191 405 1191 444 m 635 285 q 678 334 635 334 q 722 294 722 334 q 710 259 722 272 q 678 246 698 246 q 647 256 659 246 q 635 285 635 267 m 1131 252 q 1186 234 1165 252 q 1206 183 1206 215 q 1131 99 1206 99 q 1063 168 1063 99 q 1131 252 1063 252 m 572 561 q 632 585 613 561 q 661 655 651 609 q 575 751 661 751 q 529 734 549 751 q 499 647 499 709 q 572 561 499 561 m 381 561 q 441 585 421 561 q 470 655 460 609 q 383 751 470 751 q 337 734 357 751 q 308 647 308 709 q 381 561 308 561 m 482 530 q 408 530 482 530 q 237 484 334 530 q 115 325 140 439 l 12 325 l 12 252 l 106 252 l 106 246 q 345 0 106 0 q 500 63 446 0 q 555 17 513 33 q 646 0 597 0 q 812 49 740 0 q 884 178 884 98 q 835 329 884 283 q 680 374 787 374 q 524 283 524 374 q 643 195 524 195 q 736 222 709 195 l 736 161 q 711 90 736 116 q 639 63 686 63 q 571 91 592 63 q 550 178 550 120 l 444 178 q 422 95 444 126 q 351 63 400 63 q 281 108 302 63 q 261 234 261 153 l 261 252 l 482 252 l 482 325 l 273 325 q 342 434 288 404 q 482 465 397 465 q 675 395 660 465 l 828 395 q 714 505 811 477 q 482 530 630 530 z "},"ఋ":{"ha":1704,"x_min":12,"x_max":1668,"o":"m 531 467 q 639 416 608 467 q 671 266 671 365 q 644 116 671 167 q 541 65 618 65 q 475 93 493 65 q 457 178 457 120 l 335 178 q 316 95 335 122 q 257 67 298 67 q 198 98 216 67 q 179 175 179 129 q 206 245 179 221 q 304 282 234 269 q 407 319 374 295 q 439 405 439 344 q 382 496 439 467 q 227 525 326 525 q 70 489 129 525 q 12 365 12 453 l 168 365 l 168 402 q 189 446 168 428 q 240 465 210 465 q 291 446 269 465 q 313 393 313 428 q 289 350 313 358 q 175 321 267 337 q 51 273 84 305 q 17 162 17 241 q 72 41 17 83 q 205 0 126 0 q 324 15 284 0 q 389 69 365 31 q 452 15 413 31 q 563 0 492 0 q 695 28 635 0 q 785 105 755 57 q 864 28 807 57 q 991 -1 922 -1 q 1115 30 1060 -1 q 1200 111 1170 62 q 1278 30 1220 62 q 1410 -1 1337 -1 q 1598 74 1529 -1 q 1668 268 1668 150 q 1602 455 1668 386 q 1425 525 1536 525 l 1372 525 l 1372 465 q 1472 407 1438 465 q 1506 265 1506 350 q 1477 120 1506 180 q 1389 61 1447 61 q 1289 95 1331 61 q 1228 178 1247 129 q 1249 272 1249 256 q 1183 456 1249 387 q 1006 525 1117 525 l 953 525 l 953 465 q 1053 407 1019 465 q 1087 265 1087 350 q 1058 120 1087 180 q 972 61 1028 61 q 874 91 916 61 q 813 168 832 122 q 833 284 833 236 q 759 467 833 399 q 567 535 686 535 q 498 530 526 535 l 498 465 q 531 467 510 467 z "},"ఌ":{"ha":1216,"x_min":12,"x_max":1175,"o":"m 238 544 q 75 507 138 544 q 12 390 12 470 q 19 335 12 366 l 22 315 l 185 315 q 174 390 174 345 q 196 458 174 435 q 258 482 219 482 q 321 460 297 482 q 346 402 346 439 l 346 350 l 455 350 l 455 399 q 535 477 455 477 q 628 369 628 477 q 554 200 628 305 q 481 35 481 95 q 563 -115 481 -56 q 751 -174 646 -174 q 1060 -67 945 -174 q 1175 224 1175 41 q 1097 439 1175 357 q 888 520 1019 520 l 888 451 q 1013 229 1013 428 q 950 -14 1013 84 q 766 -111 886 -111 q 659 -59 702 -111 q 617 61 617 -6 q 703 223 617 129 q 790 389 790 318 q 728 502 790 460 q 573 544 666 544 q 470 527 517 544 q 407 479 424 510 q 238 544 376 544 z "},"ఎ":{"ha":809,"x_min":12,"x_max":771,"o":"m 195 271 q 250 289 208 289 q 310 267 293 289 q 327 190 327 245 q 310 107 327 135 q 248 79 292 79 q 190 103 205 79 q 174 187 174 127 q 195 271 174 246 m 382 51 q 513 -2 421 -2 q 698 79 631 -2 q 767 302 764 161 q 693 534 771 444 q 471 624 614 624 l 471 561 q 552 520 520 561 q 595 425 584 479 q 605 280 605 371 q 581 127 605 190 q 516 63 557 63 q 463 85 474 63 q 452 159 452 108 q 402 319 452 268 q 249 371 352 371 q 79 319 146 371 q 12 184 12 268 q 71 50 12 100 q 227 0 130 0 q 382 51 324 0 z "},"ఏ":{"ha":809,"x_min":12,"x_max":771,"o":"m 195 271 q 250 289 208 289 q 310 266 292 289 q 327 188 327 242 q 310 107 327 135 q 248 79 292 79 q 190 103 205 79 q 174 187 174 127 q 195 271 174 246 m 382 51 q 513 -2 421 -2 q 698 79 631 -2 q 767 303 764 161 q 693 534 771 445 q 471 624 615 624 l 471 561 q 552 520 520 561 q 595 425 584 479 q 605 280 605 371 q 581 127 605 190 q 516 63 557 63 q 463 85 474 63 q 452 159 452 108 q 402 319 452 268 q 249 371 352 371 q 79 319 146 371 q 12 184 12 268 q 71 50 12 100 q 227 0 130 0 q 382 51 324 0 m 353 702 q 405 697 371 702 l 405 767 q 341 772 376 772 q 138 711 222 772 q 54 545 54 649 q 59 496 54 520 l 208 496 q 211 529 205 504 q 216 560 216 554 q 353 702 216 702 z "},"ఐ":{"ha":822,"x_min":14,"x_max":787,"o":"m 622 284 q 529 63 622 63 q 470 86 487 63 q 452 159 452 110 q 397 286 452 245 q 241 327 341 327 q 78 289 141 327 q 16 167 16 250 q 71 42 16 84 q 225 0 126 0 q 382 51 324 0 q 533 -2 416 -2 q 714 73 649 -2 q 783 281 780 148 q 717 477 787 414 q 549 531 659 531 q 402 474 440 531 q 342 517 389 503 q 238 531 294 531 q 77 492 141 531 q 22 376 14 453 l 178 376 q 194 449 178 428 q 252 470 210 470 q 318 442 294 470 q 341 376 341 415 l 450 376 q 470 442 450 415 q 523 468 489 468 q 601 420 581 468 q 622 284 622 372 m 178 166 q 178 192 178 166 q 190 242 178 219 q 246 264 203 264 q 307 245 289 264 q 325 178 325 226 q 304 98 325 130 q 243 67 283 67 q 190 90 203 67 q 178 166 178 112 z "},"ఒ":{"ha":795,"x_min":12,"x_max":776,"o":"m 389 69 q 454 14 413 30 q 575 -2 496 -2 q 715 37 655 -2 q 776 146 776 77 q 725 250 776 216 q 594 284 675 284 l 562 284 l 562 217 q 623 203 605 217 q 640 148 640 188 q 613 87 640 108 q 539 67 586 67 q 474 93 492 67 q 457 178 457 119 l 335 178 q 251 67 335 67 q 179 172 179 67 q 309 284 179 259 q 439 403 439 308 q 413 474 442 446 q 245 525 362 525 q 70 490 127 525 q 12 365 12 455 l 168 365 l 168 402 q 188 447 168 429 q 236 465 208 465 q 313 395 313 465 q 198 325 313 344 q 17 164 17 295 q 71 41 17 83 q 205 0 125 0 q 324 16 284 0 q 389 69 365 32 z "},"ఓ":{"ha":795,"x_min":12,"x_max":776,"o":"m 251 67 q 179 172 179 67 q 309 284 179 259 q 439 403 439 308 q 408 480 445 452 q 314 519 371 508 q 278 587 278 535 q 294 630 278 618 q 344 641 310 641 q 395 623 377 641 q 413 576 413 605 l 525 576 l 525 584 q 476 672 525 649 q 342 696 426 696 q 208 670 258 696 q 158 591 158 644 q 180 523 158 539 q 55 478 98 514 q 12 365 12 441 l 168 365 l 168 402 q 188 447 168 429 q 236 465 208 465 q 313 395 313 465 q 198 325 313 344 q 17 164 17 295 q 71 41 17 83 q 205 0 125 0 q 324 16 284 0 q 389 69 365 32 q 454 14 413 30 q 575 -2 496 -2 q 715 37 655 -2 q 776 146 776 77 q 725 250 776 216 q 594 284 675 284 l 562 284 l 562 217 q 623 203 605 217 q 640 148 640 188 q 613 87 640 108 q 539 67 586 67 q 474 93 492 67 q 457 178 457 119 l 335 178 q 251 67 335 67 z "},"ఔ":{"ha":901,"x_min":12,"x_max":887,"o":"m 704 508 q 765 450 765 508 q 751 395 765 413 q 704 378 738 378 q 646 437 646 378 q 659 492 646 476 q 704 508 671 508 m 389 69 q 454 14 413 30 q 575 -2 496 -2 q 715 37 655 -2 q 776 146 776 77 q 725 250 776 216 q 594 284 675 284 l 562 284 l 562 217 q 623 203 605 217 q 640 148 640 188 q 613 87 640 108 q 539 67 586 67 q 474 93 492 67 q 457 178 457 119 l 335 178 q 251 67 335 67 q 179 172 179 67 q 309 284 179 259 q 439 403 439 308 q 432 453 447 434 q 387 493 416 473 q 442 550 442 507 q 434 578 442 566 q 411 591 425 591 l 655 591 q 761 538 749 591 q 675 551 739 551 q 575 525 612 551 q 539 442 539 499 q 585 359 539 386 q 708 332 631 332 q 836 374 785 332 q 887 493 887 415 q 824 617 887 571 q 667 662 760 662 l 19 662 l 19 591 l 269 591 q 313 557 313 591 q 282 526 313 531 q 247 525 269 525 l 49 525 l 49 489 l 72 489 q 12 365 12 449 l 168 365 l 168 402 q 188 447 168 429 q 236 465 208 465 q 313 395 313 465 q 198 325 313 344 q 17 164 17 295 q 71 41 17 83 q 205 0 125 0 q 324 16 284 0 q 389 69 365 32 z "},"క":{"ha":709,"x_min":12,"x_max":746,"o":"m 360 332 q 183 384 183 332 q 226 449 183 432 q 329 465 269 465 q 444 440 389 465 q 499 374 499 415 l 662 374 q 614 458 659 424 q 505 510 568 492 q 746 687 622 562 l 591 728 q 465 593 540 652 q 344 526 390 534 l 319 526 q 271 563 289 531 q 252 631 252 594 l 116 631 q 174 507 116 550 q 20 371 20 470 q 74 282 20 305 q 222 258 127 258 l 350 258 q 489 238 461 258 q 519 165 519 217 q 474 90 519 112 q 347 67 429 67 q 226 96 266 67 q 185 198 185 126 l 12 198 q 96 41 12 82 q 340 0 179 0 q 629 82 538 0 q 681 198 681 129 q 612 309 681 282 q 442 332 552 332 l 360 332 z "},"ఖ":{"ha":959,"x_min":12,"x_max":881,"o":"m 276 283 q 348 258 323 283 q 374 185 374 232 q 271 67 374 80 q 197 96 220 73 q 174 172 174 120 q 276 283 174 283 m 374 -104 q 391 -163 374 -145 q 448 -182 408 -182 q 508 -161 488 -182 q 536 -98 528 -140 q 450 -11 536 -11 q 374 -104 374 -11 m 162 358 q 264 463 162 463 q 352 429 329 463 q 376 315 376 394 q 235 337 334 337 q 75 297 137 337 q 12 167 12 257 q 82 39 12 78 q 242 0 152 0 q 376 15 332 0 q 456 67 419 30 q 519 19 472 37 q 617 0 566 0 q 806 75 730 0 q 881 266 881 150 q 810 465 881 383 q 625 547 739 547 l 566 547 l 566 482 l 593 482 q 673 439 641 482 q 718 269 718 381 q 680 106 718 157 q 601 67 647 67 q 529 125 529 67 l 529 266 q 470 455 541 384 q 277 525 399 525 q 14 358 14 525 l 162 358 z "},"గ":{"ha":799,"x_min":12,"x_max":780,"o":"m 704 209 q 525 504 704 436 q 780 687 645 552 l 624 728 q 515 604 582 665 q 388 529 449 544 l 344 529 q 302 567 318 536 q 285 631 285 597 l 150 631 q 206 508 150 550 q 12 209 12 449 q 48 0 12 83 l 217 0 q 174 230 174 83 q 363 465 174 465 q 501 404 460 465 q 542 211 542 344 q 502 0 542 78 l 672 0 q 704 209 704 75 z "},"ఘ":{"ha":1238,"x_min":12,"x_max":1171,"o":"m 376 -180 q 437 -159 416 -180 q 465 -95 457 -137 q 378 -9 465 -9 q 322 -34 341 -9 q 303 -101 303 -59 q 376 -180 303 -180 m 605 276 q 513 63 605 63 q 463 85 474 63 q 452 159 452 108 q 402 319 452 268 q 249 371 352 371 q 79 319 146 371 q 12 184 12 268 q 71 50 12 100 q 227 0 130 0 q 382 51 324 0 q 513 -2 421 -2 q 715 88 650 -2 q 796 23 744 47 q 913 -1 849 -1 q 1102 75 1032 -1 q 1171 268 1171 151 q 1105 455 1171 386 q 927 525 1038 525 l 875 525 l 875 465 q 974 407 940 465 q 1008 264 1008 348 q 979 120 1008 180 q 888 61 950 61 q 806 85 845 61 q 746 147 766 110 q 767 263 766 205 q 700 458 770 384 q 512 531 630 531 l 476 531 l 476 463 q 573 410 540 463 q 605 276 605 356 m 20 623 q 201 457 20 457 q 403 538 302 457 q 573 718 468 591 l 419 755 q 332 604 367 650 q 232 531 277 531 q 171 553 187 531 q 156 623 156 575 l 20 623 m 195 271 q 250 289 208 289 q 310 267 293 289 q 327 190 327 245 q 310 107 327 135 q 248 79 292 79 q 190 103 205 79 q 174 187 174 127 q 195 271 174 246 z "},"ఙ":{"ha":846,"x_min":12,"x_max":777,"o":"m 389 69 q 454 14 413 30 q 575 -2 496 -2 q 715 37 655 -2 q 776 146 776 77 q 725 250 776 216 q 594 284 675 284 l 562 284 l 562 217 q 623 203 605 217 q 640 148 640 188 q 613 87 640 108 q 539 67 586 67 q 474 93 492 67 q 457 178 457 119 l 335 178 q 251 67 335 67 q 179 172 179 67 q 301 280 179 257 q 436 377 423 304 l 545 377 l 545 313 l 662 313 l 662 377 l 777 377 l 777 436 l 662 436 l 662 533 l 545 533 l 545 436 l 434 436 q 366 503 420 481 q 220 525 313 525 q 70 490 127 525 q 12 365 12 455 l 168 365 l 168 402 q 188 447 168 429 q 236 465 208 465 q 313 395 313 465 q 198 325 313 344 q 17 164 17 295 q 71 41 17 83 q 205 0 125 0 q 324 16 284 0 q 389 69 365 32 z "},"చ":{"ha":879,"x_min":12,"x_max":864,"o":"m 666 264 q 566 65 666 65 q 498 137 498 65 l 498 216 l 366 216 l 366 143 q 288 65 366 65 q 239 95 251 65 q 227 188 227 125 q 236 273 227 252 q 304 316 253 316 l 350 316 l 350 390 l 12 390 l 12 316 l 147 316 q 65 173 65 284 q 125 46 65 91 q 284 0 184 0 q 425 63 383 0 q 580 0 462 0 q 761 68 698 0 q 828 263 824 136 q 774 426 829 357 q 630 515 718 494 l 665 533 q 864 688 751 576 l 708 729 q 578 590 657 654 q 446 526 499 526 q 391 560 413 526 q 369 633 369 593 l 234 633 q 300 502 234 544 q 419 468 342 476 q 432 467 423 467 l 457 467 q 615 419 565 467 q 666 264 666 371 z "},"ఛ":{"ha":879,"x_min":12,"x_max":864,"o":"m 666 264 q 566 65 666 65 q 498 137 498 65 l 498 216 l 366 216 l 366 143 q 288 65 366 65 q 239 95 251 65 q 227 188 227 125 q 236 273 227 252 q 304 316 253 316 l 350 316 l 350 390 l 12 390 l 12 316 l 147 316 q 65 173 65 284 q 125 46 65 91 q 284 0 184 0 q 425 63 383 0 q 580 0 462 0 q 761 68 698 0 q 828 263 824 136 q 774 426 829 357 q 630 515 718 494 l 665 533 q 864 688 751 576 l 708 729 q 578 590 657 654 q 446 526 499 526 q 391 560 413 526 q 369 633 369 593 l 234 633 q 300 502 234 544 q 419 468 342 476 q 432 467 423 467 l 465 467 q 617 418 568 467 q 666 264 666 369 m 426 -182 q 487 -160 467 -182 q 517 -98 508 -138 q 430 -11 517 -11 q 353 -104 353 -11 q 426 -182 353 -182 z "},"జ":{"ha":865,"x_min":12,"x_max":790,"o":"m 389 69 q 454 14 413 30 q 574 -2 496 -2 q 714 33 652 -2 q 776 136 776 69 q 725 235 776 203 q 594 267 675 267 l 578 267 l 578 201 q 626 188 613 201 q 640 141 640 175 q 611 87 640 108 q 537 67 582 67 q 474 93 492 67 q 457 178 457 119 l 335 178 q 251 67 335 67 q 179 172 179 67 q 304 282 179 257 q 420 334 394 298 q 580 294 493 294 q 728 324 667 294 q 790 415 790 355 q 735 505 790 474 q 617 535 680 535 q 526 533 554 535 l 526 461 q 578 468 551 468 q 630 456 604 468 q 655 420 655 444 q 547 365 655 365 q 479 381 503 365 q 434 432 455 397 q 240 525 408 525 q 70 490 127 525 q 12 365 12 455 l 168 365 l 168 402 q 188 447 168 429 q 236 465 208 465 q 313 395 313 465 q 198 325 313 344 q 17 164 17 295 q 71 41 17 83 q 205 0 125 0 q 324 16 284 0 q 389 69 365 32 z "},"ఝ":{"ha":1579,"x_min":12,"x_max":1506,"o":"m 704 267 q 654 418 704 357 q 519 504 604 478 q 774 687 639 552 l 618 728 q 488 588 566 650 q 357 525 410 525 q 301 558 323 525 q 279 631 279 591 l 143 631 q 201 507 143 550 q 63 421 114 481 q 12 267 12 361 q 105 65 12 131 q 357 0 198 0 q 649 108 549 0 q 729 29 672 59 q 854 -1 786 -1 q 1033 73 969 -1 q 1048 91 1043 82 q 1128 24 1073 49 q 1248 -1 1183 -1 q 1436 75 1367 -1 q 1506 268 1506 151 q 1440 455 1506 386 q 1262 525 1373 525 l 1210 525 l 1210 465 q 1310 407 1276 465 q 1344 266 1344 350 q 1314 122 1344 183 q 1223 61 1284 61 q 1140 86 1180 61 q 1080 148 1100 112 q 1101 272 1101 204 q 850 525 1101 525 l 804 525 l 804 465 q 897 428 865 465 q 939 266 939 382 q 829 61 939 61 q 743 91 783 61 q 685 164 703 122 q 704 267 704 209 m 1031 -182 q 1120 -98 1103 -182 q 1099 -32 1120 -52 q 1038 -11 1079 -11 q 958 -104 958 -11 q 1031 -182 958 -182 m 174 260 q 174 312 174 260 q 217 415 174 363 q 357 467 259 467 q 499 420 455 467 q 542 273 542 373 q 356 61 542 61 q 218 109 262 61 q 174 260 174 157 z "},"ఞ":{"ha":1145,"x_min":12,"x_max":1110,"o":"m 605 208 q 548 122 598 153 q 428 91 498 91 q 251 111 308 91 q 195 171 195 130 q 238 232 195 213 q 420 251 280 251 q 605 208 559 251 m 261 529 q 12 376 12 529 q 14 346 12 352 l 171 346 l 174 388 q 201 444 174 421 q 269 467 229 467 q 328 452 310 467 q 346 394 346 436 l 346 358 l 455 358 l 455 390 q 526 462 455 462 q 596 426 573 462 q 619 331 619 389 q 617 283 619 320 q 363 321 540 321 q 109 284 185 321 q 32 156 32 246 q 63 79 32 111 q 146 31 94 47 q 346 0 247 0 q 547 27 445 0 q 687 104 649 54 q 709 45 709 78 q 706 -15 709 12 l 839 -15 l 839 22 q 815 124 839 74 q 757 204 791 174 q 774 300 771 255 l 877 300 l 877 189 l 995 189 l 995 300 l 1110 300 l 1110 358 l 995 358 l 995 476 l 877 476 l 877 358 l 774 358 q 566 529 753 529 q 407 471 442 529 q 261 529 381 529 z "},"ఠ":{"ha":774,"x_min":12,"x_max":774,"o":"m 704 267 q 654 418 704 356 q 521 505 604 479 q 774 687 649 562 l 618 728 q 488 588 566 650 q 357 525 410 525 q 301 558 323 525 q 279 631 279 591 l 143 631 q 204 505 143 547 q 64 420 115 479 q 12 267 12 361 q 104 65 12 131 q 352 0 196 0 q 605 69 507 0 q 704 267 703 138 m 174 261 q 174 313 174 261 q 219 416 174 365 q 360 467 263 467 q 500 419 457 467 q 542 273 542 371 q 356 61 542 61 q 218 109 262 61 q 174 261 174 157 m 313 263 q 313 246 313 263 q 323 216 313 229 q 364 204 334 204 q 404 217 394 204 q 414 264 414 230 q 403 310 414 298 q 361 321 392 321 q 321 309 330 321 q 313 263 313 297 z "},"డ":{"ha":859,"x_min":12,"x_max":817,"o":"m 734 395 q 586 514 714 486 l 618 531 q 817 687 712 582 l 661 728 q 555 607 619 666 q 430 530 491 547 l 377 530 q 337 570 352 541 q 323 631 323 598 l 187 631 q 235 514 187 556 q 12 246 12 467 q 251 0 12 0 q 340 18 298 0 q 407 63 382 36 q 460 17 419 33 q 551 0 502 0 q 712 49 645 0 q 790 178 780 98 q 741 329 790 283 q 586 374 693 374 q 430 283 430 374 q 549 195 430 195 q 643 222 615 195 l 643 161 q 617 90 643 117 q 544 63 591 63 q 477 91 498 63 q 456 178 456 119 l 350 178 q 328 95 350 126 q 258 63 306 63 q 192 107 210 63 q 174 234 174 151 q 224 417 174 367 q 409 467 274 467 q 522 449 471 467 q 581 395 573 431 l 734 395 m 582 334 q 628 294 628 334 q 582 246 628 246 q 552 257 563 246 q 541 285 541 268 q 582 334 541 334 z "},"ఢ":{"ha":859,"x_min":12,"x_max":817,"o":"m 734 395 q 586 514 714 486 l 618 531 q 817 687 712 582 l 661 728 q 555 607 619 666 q 430 530 491 547 l 377 530 q 337 570 352 541 q 323 631 323 598 l 187 631 q 235 514 187 556 q 12 246 12 467 q 251 0 12 0 q 340 18 298 0 q 407 63 382 36 q 460 17 419 33 q 551 0 502 0 q 712 49 645 0 q 790 178 780 98 q 741 329 790 283 q 586 374 693 374 q 430 283 430 374 q 549 195 430 195 q 643 222 615 195 l 643 161 q 617 90 643 117 q 544 63 591 63 q 477 91 498 63 q 456 178 456 119 l 350 178 q 328 95 350 126 q 258 63 306 63 q 192 107 210 63 q 174 234 174 151 q 224 415 174 366 q 409 465 274 465 q 523 448 472 465 q 581 395 573 431 l 734 395 m 402 -182 q 463 -160 442 -182 q 492 -98 483 -138 q 405 -11 492 -11 q 329 -104 329 -11 q 402 -182 329 -182 m 582 334 q 628 294 628 334 q 582 246 628 246 q 552 257 563 246 q 541 285 541 268 q 582 334 541 334 z "},"ణ":{"ha":906,"x_min":12,"x_max":816,"o":"m 542 185 q 587 267 539 267 q 651 248 635 267 q 666 172 666 230 q 652 85 666 115 q 591 56 638 56 q 544 130 544 56 l 544 154 l 542 185 m 573 -2 q 761 59 706 -2 q 816 256 816 120 q 757 462 816 393 q 576 530 699 530 q 418 451 452 530 q 350 509 402 488 q 222 530 298 530 q 82 489 147 530 q 17 376 17 447 q 38 312 17 342 q 86 277 59 282 q 12 147 12 242 q 65 41 12 80 q 197 1 117 1 q 302 26 277 1 l 302 84 q 257 80 284 80 q 179 168 187 80 q 204 235 185 219 q 277 251 222 251 l 277 306 q 179 377 179 306 q 253 467 179 467 q 335 438 306 467 q 365 357 365 409 l 461 357 q 494 435 461 403 q 575 467 526 467 q 652 421 624 467 q 680 308 680 376 q 560 334 643 334 q 429 287 477 334 q 382 162 382 241 q 434 40 382 83 q 573 -2 487 -2 z "},"త":{"ha":896,"x_min":12,"x_max":846,"o":"m 692 727 q 432 526 565 526 q 350 549 376 526 q 325 625 325 572 l 190 625 q 261 502 190 540 q 445 465 331 465 q 488 467 461 465 l 505 467 q 597 456 565 467 q 643 413 629 445 q 587 420 623 420 q 430 276 430 420 q 469 179 430 213 q 562 146 508 146 q 659 161 617 146 q 567 99 650 124 q 414 74 484 74 q 161 159 193 74 q 240 147 177 147 q 340 182 303 147 q 378 276 378 216 q 196 420 378 420 q 60 374 108 420 q 12 240 12 327 q 111 53 12 105 q 420 0 210 0 q 707 64 592 0 q 799 152 765 98 q 834 263 833 206 q 813 358 835 320 q 759 413 791 397 q 633 512 719 486 l 655 523 q 846 681 754 572 l 692 727 m 619 360 q 672 285 672 360 q 618 210 672 210 q 567 277 567 210 q 577 340 567 321 q 619 360 587 360 m 199 368 q 252 294 252 368 q 198 201 252 201 q 147 279 147 201 q 157 347 147 326 q 199 368 167 368 z "},"థ":{"ha":861,"x_min":12,"x_max":820,"o":"m 785 258 q 727 418 785 355 q 573 507 668 481 q 820 687 697 563 l 665 728 q 539 593 614 652 q 418 526 465 534 l 390 526 q 344 563 362 533 q 326 631 326 594 l 190 631 q 242 512 190 554 q 12 248 12 462 q 72 61 12 121 q 259 0 132 0 q 403 54 356 0 q 542 0 436 0 q 785 258 781 0 m 402 -180 q 463 -159 442 -180 q 492 -95 483 -137 q 405 -9 492 -9 q 348 -34 368 -9 q 329 -101 329 -59 q 402 -180 329 -180 m 242 430 q 411 467 292 467 q 577 415 531 467 q 623 257 623 363 q 539 63 623 63 q 478 95 494 63 q 462 187 462 126 l 345 187 q 331 95 345 124 q 269 65 316 65 q 198 112 222 65 q 174 224 174 159 q 242 430 174 377 m 337 292 q 402 241 337 241 q 467 298 467 241 q 453 342 467 330 q 403 353 440 353 q 352 340 367 353 q 337 292 337 327 z "},"ద":{"ha":861,"x_min":12,"x_max":820,"o":"m 785 258 q 727 418 785 355 q 573 507 668 481 q 820 687 697 563 l 665 728 q 539 593 614 652 q 418 526 465 534 l 390 526 q 344 563 362 533 q 326 631 326 594 l 190 631 q 242 512 190 554 q 12 248 12 462 q 72 61 12 121 q 259 0 132 0 q 403 54 356 0 q 542 0 436 0 q 785 258 781 0 m 242 430 q 411 467 292 467 q 577 415 531 467 q 623 257 623 363 q 539 63 623 63 q 478 95 494 63 q 462 187 462 126 l 345 187 q 331 95 345 124 q 269 65 316 65 q 198 112 222 65 q 174 224 174 159 q 242 430 174 377 z "},"ధ":{"ha":861,"x_min":12,"x_max":820,"o":"m 785 258 q 727 418 785 355 q 573 507 668 481 q 820 687 697 563 l 665 728 q 539 593 614 652 q 418 526 465 534 l 390 526 q 344 563 362 533 q 326 631 326 594 l 190 631 q 242 512 190 554 q 12 248 12 462 q 72 61 12 121 q 259 0 132 0 q 403 54 356 0 q 542 0 436 0 q 785 258 781 0 m 402 -180 q 463 -159 442 -180 q 492 -95 483 -137 q 405 -9 492 -9 q 348 -34 368 -9 q 329 -101 329 -59 q 402 -180 329 -180 m 242 430 q 411 467 292 467 q 577 415 531 467 q 623 257 623 363 q 539 63 623 63 q 478 95 494 63 q 462 187 462 126 l 345 187 q 331 95 345 124 q 269 65 316 65 q 198 112 222 65 q 174 224 174 159 q 242 430 174 377 z "},"న":{"ha":856,"x_min":12,"x_max":783,"o":"m 303 154 q 507 -2 303 -2 q 717 59 652 -2 q 782 256 781 120 q 705 459 783 392 q 488 526 626 526 l 483 526 q 687 681 589 586 l 547 718 q 434 588 497 644 q 305 530 365 530 q 216 560 245 530 q 193 625 193 580 l 57 625 q 252 467 57 467 l 430 467 q 568 410 517 467 q 619 264 619 353 q 514 62 619 62 q 452 88 474 62 q 437 142 439 105 q 436 215 436 179 q 381 331 436 290 q 225 371 325 371 q 69 321 125 371 q 12 158 12 271 q 67 0 12 44 l 210 0 q 174 164 174 56 l 174 173 q 242 292 174 292 q 292 281 280 292 q 303 234 303 271 l 303 154 z "},"ప":{"ha":835,"x_min":12,"x_max":771,"o":"m 195 271 q 250 289 208 289 q 310 267 293 289 q 327 190 327 245 q 310 107 327 135 q 248 79 292 79 q 190 103 205 79 q 174 187 174 127 q 195 271 174 246 m 605 276 q 513 63 605 63 q 463 85 474 63 q 452 159 452 108 q 402 319 452 268 q 249 371 352 371 q 79 319 146 371 q 12 184 12 268 q 71 50 12 100 q 227 0 130 0 q 382 51 324 0 q 513 -2 421 -2 q 699 67 635 -2 q 767 259 764 136 q 701 457 771 383 q 512 531 630 531 l 476 531 l 476 463 q 573 410 540 463 q 605 276 605 356 m 20 623 q 201 457 20 457 q 403 538 302 457 q 573 718 468 591 l 419 755 q 332 604 367 650 q 232 531 277 531 q 171 553 187 531 q 156 623 156 575 l 20 623 z "},"ఫ":{"ha":835,"x_min":12,"x_max":771,"o":"m 376 -180 q 437 -159 416 -180 q 465 -95 457 -137 q 378 -9 465 -9 q 322 -34 341 -9 q 303 -101 303 -59 q 376 -180 303 -180 m 195 271 q 250 289 208 289 q 310 267 293 289 q 327 190 327 245 q 310 107 327 135 q 248 79 292 79 q 190 103 205 79 q 174 187 174 127 q 195 271 174 246 m 605 276 q 513 63 605 63 q 463 85 474 63 q 452 159 452 108 q 402 319 452 268 q 249 371 352 371 q 79 319 146 371 q 12 184 12 268 q 71 50 12 100 q 227 0 130 0 q 382 51 324 0 q 513 -2 421 -2 q 699 67 635 -2 q 767 259 764 136 q 701 457 771 383 q 512 531 630 531 l 476 531 l 476 463 q 573 410 540 463 q 605 276 605 356 m 20 623 q 201 457 20 457 q 403 538 302 457 q 573 718 468 591 l 419 755 q 332 604 367 650 q 232 531 277 531 q 171 553 187 531 q 156 623 156 575 l 20 623 z "},"బ":{"ha":909,"x_min":12,"x_max":833,"o":"m 531 467 q 671 269 671 467 q 638 107 671 148 q 549 65 604 65 q 475 92 493 65 q 457 178 457 119 l 335 178 q 251 67 335 67 q 179 172 179 67 q 309 284 179 259 q 439 403 439 308 q 413 474 442 446 q 245 525 362 525 q 70 490 127 525 q 12 365 12 455 l 168 365 l 168 402 q 188 447 168 429 q 236 465 208 465 q 313 395 313 465 q 198 325 313 344 q 17 164 17 295 q 71 41 17 83 q 205 0 125 0 q 324 16 284 0 q 389 69 365 32 q 452 15 413 30 q 561 0 491 0 q 764 74 694 0 q 833 272 833 147 q 758 466 833 397 q 567 535 683 535 q 498 530 526 535 l 498 465 q 531 467 515 467 z "},"భ":{"ha":909,"x_min":12,"x_max":927,"o":"m 833 284 q 796 422 833 363 q 696 505 759 481 q 927 688 806 556 l 786 729 q 668 590 740 654 q 557 526 597 526 q 499 560 518 526 q 479 633 479 593 l 356 633 q 416 502 356 544 q 517 470 447 481 q 531 467 524 467 l 555 467 q 654 413 629 467 q 671 261 671 374 q 638 107 671 148 q 549 65 604 65 q 475 92 493 65 q 457 178 457 119 l 335 178 q 251 67 335 67 q 179 172 179 67 q 309 284 179 259 q 439 403 439 308 q 413 474 442 446 q 245 525 362 525 q 70 490 127 525 q 12 365 12 455 l 168 365 l 168 402 q 188 449 168 430 q 239 467 208 467 q 292 448 271 467 q 313 395 313 429 q 198 325 313 344 q 17 164 17 295 q 71 41 17 83 q 205 0 125 0 q 324 16 284 0 q 389 69 365 32 q 452 15 413 30 q 561 0 491 0 q 764 74 694 0 q 833 284 833 147 m 393 -182 q 453 -161 434 -182 q 482 -98 473 -140 q 395 -11 482 -11 q 339 -36 358 -11 q 320 -104 320 -62 q 393 -182 320 -182 z "},"మ":{"ha":1238,"x_min":12,"x_max":1173,"o":"m 605 276 q 513 63 605 63 q 463 85 474 63 q 452 159 452 108 q 402 319 452 268 q 249 371 352 371 q 79 319 146 371 q 12 184 12 268 q 71 50 12 100 q 227 0 130 0 q 382 51 324 0 q 513 -2 421 -2 q 702 65 643 -2 l 719 85 q 797 22 743 46 q 914 -1 851 -1 q 1103 75 1033 -1 q 1173 268 1173 151 q 1106 455 1173 386 q 928 525 1039 525 l 876 525 l 876 465 q 977 407 943 465 q 1011 266 1011 350 q 981 122 1011 183 q 890 61 950 61 q 809 85 848 61 q 749 143 771 109 q 767 263 767 195 q 700 456 767 386 q 512 526 633 526 l 470 526 q 673 681 576 586 l 533 718 q 420 588 484 645 q 300 530 351 530 q 203 560 230 530 q 179 625 179 580 l 43 625 q 238 467 43 467 l 452 467 q 567 415 529 467 q 605 276 605 362 m 195 271 q 250 289 208 289 q 310 267 293 289 q 327 190 327 245 q 310 107 327 135 q 248 79 292 79 q 190 103 205 79 q 174 187 174 127 q 195 271 174 246 z "},"య":{"ha":1609,"x_min":12,"x_max":1536,"o":"m 556 631 q 613 508 556 550 q 765 467 670 467 q 786 468 780 467 q 802 465 791 465 q 913 439 877 465 q 971 269 971 395 q 817 61 971 61 q 729 101 759 61 q 702 208 699 141 l 704 267 q 618 455 709 386 q 357 525 526 525 q 100 456 188 525 q 12 259 12 387 q 104 65 12 131 q 368 0 196 0 q 636 96 540 0 q 830 -1 670 -1 q 1078 93 991 -1 q 1155 24 1100 49 q 1278 -1 1211 -1 q 1466 75 1396 -1 q 1536 268 1536 151 q 1469 455 1536 386 q 1291 525 1402 525 l 1239 525 l 1239 465 q 1339 407 1305 465 q 1373 264 1373 348 q 1344 120 1373 180 q 1253 61 1315 61 q 1171 85 1210 61 q 1111 146 1132 110 q 1134 280 1134 198 q 1082 423 1134 363 q 942 508 1029 483 l 987 531 q 1186 687 1078 578 l 1031 728 q 903 592 979 651 q 770 525 822 525 q 714 558 735 525 q 692 631 692 591 l 556 631 m 366 467 q 542 273 542 467 q 356 61 542 61 q 218 109 262 61 q 174 261 174 157 q 219 416 174 365 q 366 467 263 467 z "},"ర":{"ha":774,"x_min":12,"x_max":774,"o":"m 704 267 q 654 418 704 357 q 519 504 604 478 q 774 687 639 552 l 618 728 q 488 588 566 650 q 357 525 410 525 q 301 558 323 525 q 279 631 279 591 l 143 631 q 201 507 143 550 q 63 421 114 481 q 12 267 12 361 q 105 65 12 131 q 353 0 198 0 q 605 69 508 0 q 704 267 703 138 m 174 260 q 174 312 174 260 q 217 415 174 363 q 357 467 259 467 q 499 420 455 467 q 542 273 542 373 q 356 61 542 61 q 218 109 262 61 q 174 260 174 157 z "},"ఱ":{"ha":927,"x_min":12,"x_max":845,"o":"m 216 463 q 261 402 261 463 q 250 353 261 369 q 214 337 240 337 q 168 400 168 337 q 216 463 168 463 m 572 0 q 845 255 820 0 q 785 448 845 372 q 625 524 724 524 q 476 478 526 524 q 426 358 426 432 q 477 242 426 283 l 266 242 l 266 185 l 604 185 l 604 242 q 553 268 567 242 q 539 342 539 293 q 555 428 539 392 q 601 463 571 463 q 647 445 630 463 q 671 393 664 426 q 683 250 683 336 q 655 116 683 164 q 557 67 626 67 q 481 164 481 67 l 371 164 q 276 62 371 62 q 167 113 198 62 q 137 264 137 164 q 142 314 137 295 q 237 263 166 263 q 348 298 308 263 q 388 397 388 334 q 342 494 388 461 q 222 526 297 526 q 12 255 12 526 q 75 62 12 125 q 269 0 138 0 q 364 18 321 0 q 421 67 407 36 q 572 0 451 0 z "},"ల":{"ha":875,"x_min":12,"x_max":802,"o":"m 240 470 q 298 399 298 470 q 240 329 298 329 q 188 345 208 329 q 168 395 168 362 q 187 449 168 428 q 240 470 206 470 m 415 0 q 685 72 582 0 q 802 282 787 143 q 736 472 802 403 q 551 541 670 541 q 487 535 514 541 l 487 462 q 524 470 494 470 q 610 431 581 470 q 640 285 640 393 q 582 121 640 177 q 408 65 524 65 q 220 116 293 65 q 147 271 147 166 q 150 314 147 292 q 247 272 169 272 q 367 305 325 272 q 409 403 409 337 q 361 502 409 468 q 236 535 313 535 q 71 469 130 535 q 12 292 12 403 q 110 68 12 136 q 415 0 204 0 z "},"ళ":{"ha":778,"x_min":12,"x_max":793,"o":"m 702 164 q 675 241 702 215 q 597 279 649 267 q 677 321 634 284 q 720 407 720 358 q 689 483 720 455 q 607 519 657 512 l 626 533 q 793 688 713 593 l 662 729 q 555 590 620 654 q 453 526 489 526 q 399 560 416 526 q 382 633 382 593 l 269 633 q 303 521 269 563 q 400 472 337 479 q 419 467 407 467 l 473 467 q 586 402 586 467 q 374 300 586 300 q 201 331 258 300 q 300 358 263 331 q 337 434 337 384 q 291 509 337 483 q 177 535 245 535 q 61 500 109 535 q 12 405 12 466 q 56 310 12 344 q 166 272 100 276 q 93 162 93 245 q 397 0 93 0 q 702 164 702 0 m 397 247 q 502 228 465 247 q 539 162 539 209 q 496 92 539 115 q 395 69 453 69 q 295 91 336 69 q 255 156 255 114 q 397 247 255 247 m 127 424 q 175 467 127 467 q 222 425 222 467 q 173 374 222 374 q 127 424 127 374 z "},"ఴ":{"ha":875,"x_min":12,"x_max":832,"o":"m 269 0 q 362 17 320 0 q 420 64 404 33 l 420 62 l 423 64 q 424 62 424 63 l 424 64 q 482 17 440 33 q 575 0 524 0 q 769 62 706 0 q 832 255 832 125 q 622 526 832 526 q 502 494 547 526 q 456 397 456 461 q 496 298 456 334 q 607 263 536 263 q 702 314 678 263 q 707 264 707 295 q 677 113 707 164 q 568 62 646 62 q 473 164 473 62 l 371 164 q 276 62 371 62 q 167 113 198 62 q 137 264 137 164 q 142 314 137 295 q 237 263 166 263 q 348 298 308 263 q 388 397 388 334 q 342 494 388 461 q 222 526 297 526 q 12 255 12 526 q 75 62 12 125 q 269 0 138 0 m 630 337 q 594 353 604 337 q 583 402 583 369 q 628 463 583 463 q 676 400 676 463 q 630 337 676 337 m 216 463 q 261 402 261 463 q 250 353 261 369 q 214 337 240 337 q 168 400 168 337 q 216 463 168 463 z "},"వ":{"ha":835,"x_min":12,"x_max":767,"o":"m 605 276 q 513 63 605 63 q 463 85 474 63 q 452 159 452 108 q 402 319 452 268 q 249 371 352 371 q 79 319 146 371 q 12 184 12 268 q 71 50 12 100 q 227 0 130 0 q 382 51 324 0 q 513 -2 421 -2 q 702 67 638 -2 q 767 261 767 136 q 700 456 767 386 q 512 526 633 526 l 470 526 q 673 681 576 586 l 533 718 q 420 588 484 645 q 300 530 351 530 q 203 560 230 530 q 179 625 179 580 l 43 625 q 238 467 43 467 l 452 467 q 567 415 529 467 q 605 276 605 362 m 195 271 q 250 289 208 289 q 310 267 293 289 q 327 190 327 245 q 310 107 327 135 q 248 79 292 79 q 190 103 205 79 q 174 187 174 127 q 195 271 174 246 z "},"శ":{"ha":872,"x_min":12,"x_max":876,"o":"m 720 363 q 762 389 751 373 q 774 441 774 404 q 741 497 774 477 q 664 524 709 518 l 677 531 q 876 687 772 583 l 720 728 q 593 592 668 651 q 458 525 512 525 q 403 559 425 525 q 382 631 382 592 l 246 631 q 302 508 246 549 q 455 467 358 467 q 496 470 468 467 q 510 467 503 467 l 603 467 q 638 456 622 467 q 654 426 654 445 q 631 395 654 408 q 381 424 550 424 q 112 353 213 424 q 12 154 12 282 l 173 154 q 244 307 173 250 q 416 365 315 365 q 542 353 517 365 q 339 310 418 353 q 259 177 259 266 q 335 43 259 88 q 519 -1 411 -1 q 749 57 665 -1 q 825 199 832 111 q 720 363 837 302 m 592 308 q 648 272 634 300 q 662 187 662 245 q 625 98 662 130 q 530 65 588 65 q 434 93 472 65 q 397 180 397 121 q 444 266 397 240 q 592 308 492 293 z "},"ష":{"ha":840,"x_min":12,"x_max":786,"o":"m 195 271 q 250 289 208 289 q 310 267 293 289 q 327 190 327 245 q 310 107 327 135 q 248 79 292 79 q 190 103 205 79 q 174 187 174 127 q 195 271 174 246 m 605 276 q 513 63 605 63 q 463 85 474 63 q 452 159 452 108 q 402 319 452 268 q 249 371 352 371 q 79 319 146 371 q 12 184 12 268 q 71 50 12 100 q 227 0 130 0 q 382 51 324 0 q 513 -2 421 -2 q 604 10 571 -2 q 598 -42 598 -17 q 662 -143 598 -121 l 786 -82 q 727 30 727 -65 q 735 127 727 94 q 767 263 750 167 q 690 468 767 399 q 512 531 622 531 l 476 531 l 476 463 q 573 410 540 463 q 605 276 605 356 m 20 623 q 201 457 20 457 q 403 538 302 457 q 573 718 468 591 l 419 755 q 332 604 367 650 q 232 531 277 531 q 171 553 187 531 q 156 623 156 575 l 20 623 z "},"స":{"ha":860,"x_min":12,"x_max":782,"o":"m 507 -2 q 718 59 654 -2 q 782 253 782 120 q 709 452 782 386 q 510 519 636 519 l 482 519 l 482 445 q 580 414 549 445 q 619 264 619 371 q 514 62 619 62 q 452 88 474 62 q 437 142 439 105 q 436 215 436 179 q 381 331 436 290 q 225 371 325 371 q 69 321 125 371 q 12 158 12 271 q 67 0 12 44 l 210 0 q 174 164 174 56 l 174 173 q 242 292 174 292 q 292 281 280 292 q 303 234 303 271 l 303 154 q 507 -2 303 -2 m 12 623 q 193 457 12 457 q 395 538 294 457 q 566 718 461 591 l 411 755 q 325 604 360 650 q 224 531 269 531 q 164 553 179 531 q 148 623 148 575 l 12 623 z "},"హ":{"ha":1260,"x_min":12,"x_max":1200,"o":"m 1013 357 q 1075 275 1075 357 q 1014 193 1075 193 q 953 267 953 193 q 964 336 953 315 q 1013 357 976 357 m 195 271 q 250 289 208 289 q 310 267 293 289 q 327 190 327 245 q 310 107 327 135 q 248 79 292 79 q 190 103 205 79 q 174 187 174 127 q 195 271 174 246 m 605 276 q 513 63 605 63 q 463 85 474 63 q 452 159 452 108 q 402 319 452 268 q 249 371 352 371 q 79 319 146 371 q 12 184 12 268 q 71 50 12 100 q 227 0 130 0 q 382 51 324 0 q 513 -2 421 -2 q 767 263 755 -2 q 692 467 771 378 l 947 467 q 1048 445 1021 467 q 1073 394 1063 431 q 976 411 1047 411 q 867 376 906 411 q 828 271 828 340 q 877 169 828 203 q 1014 135 926 135 q 1151 183 1102 135 q 1200 326 1200 232 q 1140 473 1200 419 q 981 526 1080 526 l 476 526 l 476 467 q 573 412 541 467 q 605 276 605 357 m 20 623 q 201 457 20 457 q 403 538 302 457 q 573 718 468 591 l 419 755 q 332 604 367 650 q 232 531 277 531 q 171 553 187 531 q 156 623 156 575 l 20 623 z "},"ఽ":{"ha":961,"x_min":42,"x_max":953,"o":"m 205 395 q 205 407 205 395 q 232 435 205 419 q 303 451 258 451 q 376 424 347 451 q 405 350 405 398 q 374 278 405 302 q 245 240 344 255 q 95 193 146 225 q 46 98 46 159 q 99 7 46 37 q 240 -23 153 -23 l 953 -23 l 953 38 l 311 38 q 238 57 268 38 q 209 109 209 75 q 240 164 209 143 q 362 202 272 184 q 492 252 452 220 q 533 359 533 284 q 468 473 533 434 q 287 513 404 513 q 42 374 42 513 q 67 319 42 342 q 127 297 93 297 l 259 297 l 259 344 l 237 344 q 214 357 224 344 q 205 395 205 371 z "},"ా":{"ha":890,"x_min":-363,"x_max":851,"o":"m 662 337 q 725 255 725 337 q 662 172 725 172 q 612 192 630 172 q 594 247 594 213 q 662 337 594 337 m 722 374 q 628 392 696 392 q 514 355 560 392 q 468 249 468 319 q 522 146 468 179 q 663 112 576 112 q 801 167 750 112 q 851 314 851 221 q 791 457 851 408 q 630 507 732 507 l -363 507 l -363 446 l 596 446 q 717 386 690 446 l 722 374 z "},"ి":{"ha":0,"x_min":-205,"x_max":297,"o":"m -73 655 q -22 697 -73 697 q 32 656 28 697 q -20 609 32 609 q -73 655 -73 609 m -141 456 q -14 446 -101 446 q 139 462 74 446 q 250 518 204 478 q 297 612 297 559 q 255 697 297 665 q 32 755 183 755 q -205 644 -205 755 q -155 578 -205 603 q -48 552 -105 552 q 58 573 9 552 q 108 635 108 594 q 77 692 108 675 q 143 670 114 692 q 173 618 173 649 q 103 523 173 552 q -7 502 54 502 q -141 528 -68 502 l -141 456 z "},"ీ":{"ha":0,"x_min":-205,"x_max":297,"o":"m -73 655 q -22 697 -73 697 q 32 656 28 697 q -20 609 32 609 q -73 655 -73 609 m -141 456 q -14 446 -101 446 q 139 462 74 446 q 250 518 204 478 q 297 615 297 559 q 54 755 297 741 q 6 807 6 755 q 23 850 6 838 q 72 861 40 861 q 124 843 105 861 q 142 797 142 825 l 256 797 l 256 804 q 205 892 256 867 q 64 917 154 917 q -115 809 -115 917 q -80 745 -115 759 q -205 644 -205 725 q -155 578 -205 603 q -48 552 -105 552 q 58 573 9 552 q 108 635 108 594 q 77 692 108 675 q 143 670 114 692 q 173 618 173 649 q 103 523 173 552 q -7 502 54 502 q -141 528 -68 502 l -141 456 z "},"ు":{"ha":407,"x_min":-114,"x_max":365,"o":"m 104 -26 q 293 51 222 -26 q 365 246 365 127 q 297 435 365 365 q 119 505 230 505 l 65 505 l 65 445 q 167 386 132 445 q 201 243 201 327 q 171 98 201 159 q 78 37 141 37 q -32 83 15 37 q -90 194 -78 130 l -114 112 q -40 12 -103 51 q 104 -26 23 -26 z "},"ూ":{"ha":854,"x_min":-111,"x_max":818,"o":"m 630 336 q 692 253 692 336 q 631 171 692 171 q 570 245 570 171 q 581 315 570 294 q 630 336 593 336 m 106 -26 q 300 50 227 -26 q 373 245 373 126 q 314 435 373 363 l 563 435 q 664 418 636 435 q 690 373 685 408 q 595 390 664 390 q 485 350 526 390 q 444 245 444 310 q 496 146 444 180 q 632 111 547 111 q 767 166 717 111 q 818 313 818 220 q 758 456 818 407 q 597 505 698 505 l 64 505 l 64 445 q 210 241 210 445 q 82 37 210 37 q -29 83 17 37 q -88 194 -75 130 l -111 112 q -37 12 -100 51 q 106 -26 26 -26 z "},"ృ":{"ha":305,"x_min":-196,"x_max":295,"o":"m -101 -159 q -92 -115 -101 -129 q -61 -101 -83 -101 q -27 -114 -38 -101 q -15 -148 -15 -127 q -58 -206 -15 -206 q -101 -159 -101 -206 m 12 -335 q 295 -91 295 -335 q 224 114 295 48 q 9 180 152 180 l 9 121 q 132 88 95 121 q 187 -98 187 40 q 146 -238 187 -187 q 26 -290 106 -290 q -51 -276 -14 -290 q -89 -236 -89 -261 q -22 -250 -64 -250 q 51 -226 20 -250 q 83 -157 83 -203 q 45 -89 83 -111 q -52 -67 7 -67 q -196 -194 -196 -67 q -137 -300 -196 -264 q 12 -335 -78 -335 z "},"ౄ":{"ha":699,"x_min":-196,"x_max":680,"o":"m -101 -159 q -92 -115 -101 -129 q -61 -101 -83 -101 q -27 -114 -38 -101 q -15 -148 -15 -127 q -58 -206 -15 -206 q -101 -159 -101 -206 m 515 31 q 570 -42 570 31 q 515 -115 570 -115 q 461 -49 461 -115 q 473 11 461 -9 q 515 31 484 31 m 12 -335 q 295 -91 295 -335 q 219 117 295 48 l 456 117 q 541 105 521 117 q 566 63 560 93 q 481 79 547 79 q 347 -49 347 79 q 395 -135 347 -105 q 517 -166 442 -166 q 635 -119 591 -166 q 680 11 680 -72 q 627 137 680 93 q 486 180 575 180 l 9 180 l 9 121 q 132 88 95 121 q 187 -98 187 40 q 146 -238 187 -187 q 26 -290 106 -290 q -51 -276 -14 -290 q -89 -236 -89 -261 q -22 -250 -64 -250 q 51 -226 20 -250 q 83 -157 83 -203 q 45 -89 83 -111 q -52 -67 7 -67 q -196 -194 -196 -67 q -137 -300 -196 -264 q 12 -335 -78 -335 z "},"ె":{"ha":0,"x_min":-365,"x_max":325,"o":"m 205 446 q 292 479 259 446 q 325 563 325 512 q 292 648 325 614 q 211 692 258 682 l -365 692 l -365 620 l 135 620 q 185 566 185 620 q 163 524 185 544 q 140 507 158 519 l -153 507 l -153 446 l 205 446 z "},"ే":{"ha":0,"x_min":-360,"x_max":432,"o":"m 217 446 q 302 482 267 446 q 337 570 337 518 q 307 657 337 623 q 225 692 277 692 q 192 706 200 696 q 184 746 184 717 q 201 787 184 775 q 250 798 217 798 q 301 780 283 798 q 319 733 319 762 l 432 733 q 382 827 432 801 q 247 853 332 853 q 62 745 62 853 q 79 692 62 714 l -360 692 l -360 620 l 148 620 q 198 570 198 598 q 186 524 198 541 q 153 507 174 507 l -156 507 l -156 446 l 217 446 z "},"ై":{"ha":982,"x_min":78,"x_max":905,"o":"m 785 445 q 869 474 834 445 q 905 551 905 504 q 872 630 905 598 q 791 661 840 661 l 215 661 l 215 589 l 714 589 q 765 550 765 589 q 751 519 765 531 q 719 507 738 507 l 318 507 l 318 445 l 785 445 m 180 -308 q 196 -268 180 -282 q 238 -253 211 -253 q 281 -268 264 -253 q 298 -308 298 -283 q 239 -362 298 -362 q 180 -308 180 -362 m 78 -326 q 120 -405 78 -377 q 224 -432 162 -432 l 864 -432 l 864 -362 l 383 -362 q 400 -301 400 -345 q 355 -234 400 -257 q 247 -211 309 -211 q 78 -326 78 -211 z "},"ొ":{"ha":891,"x_min":-320,"x_max":853,"o":"m 722 549 q 630 566 698 566 q 515 535 561 566 q 468 438 468 504 q 519 330 468 372 q 655 288 570 288 q 796 344 740 288 q 853 489 853 400 q 549 704 853 704 q 304 619 378 704 q 26 703 235 703 q -230 661 -141 703 q -320 544 -320 619 q -187 446 -320 446 l 38 446 l 38 505 l -75 505 q -135 518 -108 505 q -163 554 -163 530 q -110 608 -163 588 q 49 628 -54 628 q 264 521 264 628 l 346 521 q 404 610 346 583 q 541 636 462 636 q 670 615 619 636 q 722 549 722 594 m 594 436 q 609 495 594 478 q 657 512 623 512 q 727 429 727 512 q 662 346 727 346 q 594 436 594 346 z "},"ో":{"ha":921,"x_min":-313,"x_max":881,"o":"m 654 512 q 725 446 725 512 q 654 346 725 346 q 593 421 593 346 q 605 489 593 467 q 654 512 618 512 m 722 549 q 628 566 694 566 q 516 534 562 566 q 470 436 470 502 q 520 329 470 369 q 656 288 571 288 q 796 344 740 288 q 851 483 851 399 q 793 623 851 567 q 656 696 735 678 q 633 746 633 715 q 701 807 633 807 q 749 789 732 807 q 767 741 767 771 l 881 741 q 825 832 881 803 q 693 861 770 861 q 563 835 615 861 q 512 755 512 809 q 521 704 512 724 q 396 679 453 704 q 304 612 339 654 q 47 703 224 703 q -221 664 -130 703 q -313 552 -313 625 q -171 446 -313 446 l 38 446 l 38 505 l -68 505 q -128 518 -100 505 q -156 554 -156 530 q -103 608 -156 588 q 54 628 -47 628 q 263 521 263 628 l 346 521 q 404 610 346 583 q 541 636 462 636 q 670 615 619 636 q 722 549 722 594 z "},"ౌ":{"ha":874,"x_min":-294,"x_max":835,"o":"m 708 534 q 614 547 686 547 q 505 526 541 547 q 468 444 468 504 q 520 353 468 384 q 651 321 571 321 q 783 363 732 321 q 835 483 835 404 q 770 610 835 561 q 614 660 704 660 l -294 660 l -294 586 l 162 586 q 205 549 205 586 q 194 515 205 524 q 156 505 183 505 l -200 505 l -200 446 l 232 446 q 306 470 277 446 q 336 535 336 493 q 305 592 336 577 l 602 592 q 708 534 694 592 m 651 502 q 712 446 712 502 q 652 372 712 372 q 592 430 592 372 q 604 486 592 470 q 651 502 617 502 z "},"్":{"ha":0,"x_min":-203,"x_max":431,"o":"m 9 644 q -23 654 -9 644 q -37 681 -37 664 q -20 709 -37 698 q 20 720 -2 720 l 431 720 l 431 792 l -83 792 q -163 762 -129 792 q -198 683 -198 733 q -145 603 -198 633 q -187 581 -171 602 q -203 528 -203 560 q -174 471 -203 496 q -106 446 -145 446 l 74 446 l 74 507 l 15 507 q -21 518 -5 507 q -37 545 -37 529 q -22 570 -37 561 q 12 578 -6 578 l 255 578 l 255 644 l 9 644 z "},"ౕ":{"ha":371,"x_min":0,"x_max":371,"o":"m 179 848 q 0 740 0 848 q 23 677 0 697 l 157 678 q 121 739 121 691 q 138 781 121 769 q 188 793 156 793 q 239 775 221 793 q 257 728 257 757 l 371 728 q 322 822 371 797 q 179 848 273 848 z "},"ౖ":{"ha":19,"x_min":161,"x_max":935,"o":"m 329 -220 q 374 -236 356 -220 q 392 -278 392 -252 q 331 -335 392 -335 q 269 -278 269 -335 q 285 -235 269 -251 q 329 -220 302 -220 m 161 -297 q 205 -379 161 -350 q 314 -408 250 -408 l 935 -408 l 935 -335 l 481 -335 q 499 -271 499 -316 q 451 -201 499 -226 q 339 -177 403 -177 q 161 -297 161 -177 z "},"ౘ":{"ha":879,"x_min":12,"x_max":864,"o":"m 234 631 q 290 508 234 549 q 447 467 346 467 q 657 528 549 467 q 864 687 765 588 l 708 728 q 578 589 657 652 q 446 525 499 525 q 391 559 413 525 q 369 631 369 592 l 234 631 m 666 264 q 566 65 666 65 q 498 137 498 65 l 498 216 l 366 216 l 366 143 q 288 65 366 65 q 239 95 251 65 q 227 188 227 125 q 236 273 227 252 q 304 316 253 316 l 350 316 l 350 390 l 12 390 l 12 316 l 147 316 q 65 173 65 284 q 125 46 65 91 q 284 0 184 0 q 425 63 383 0 q 580 0 462 0 q 761 68 698 0 q 828 263 824 136 q 755 447 829 368 q 538 525 681 525 l 432 525 q 403 496 403 525 q 432 467 403 467 l 457 467 q 615 419 565 467 q 666 264 666 371 z "},"ౙ":{"ha":865,"x_min":12,"x_max":790,"o":"m 389 69 q 454 14 413 30 q 574 -2 496 -2 q 714 33 652 -2 q 776 136 776 69 q 725 235 776 203 q 594 267 675 267 l 578 267 l 578 201 q 626 188 613 201 q 640 141 640 175 q 611 87 640 108 q 537 67 582 67 q 474 93 492 67 q 457 178 457 119 l 335 178 q 251 67 335 67 q 179 172 179 67 q 304 282 179 257 q 420 334 394 298 q 580 294 493 294 q 728 324 667 294 q 790 415 790 355 q 735 505 790 474 q 617 535 680 535 q 526 533 554 535 l 526 461 q 578 468 551 468 q 630 456 604 468 q 655 420 655 444 q 547 365 655 365 q 479 381 503 365 q 434 432 455 397 q 240 525 408 525 q 70 490 127 525 q 12 365 12 455 l 168 365 l 168 402 q 188 447 168 429 q 236 465 208 465 q 313 395 313 465 q 198 325 313 344 q 17 164 17 295 q 71 41 17 83 q 205 0 125 0 q 324 16 284 0 q 389 69 365 32 z "},"ౠ":{"ha":1814,"x_min":12,"x_max":1795,"o":"m 1705 240 q 1687 198 1705 215 q 1645 180 1669 180 q 1603 198 1620 180 q 1585 240 1585 215 q 1603 282 1585 264 q 1645 300 1620 300 q 1687 282 1669 300 q 1705 240 1705 264 m 130 320 q 108 316 130 320 q 49 269 86 313 q 12 161 12 226 q 71 48 12 95 q 208 0 130 0 q 298 19 257 0 q 358 68 339 38 q 500 0 405 0 q 602 41 560 0 q 667 142 645 83 q 732 41 680 83 q 853 0 785 0 q 971 41 921 0 q 1048 143 1021 82 q 1111 42 1063 84 q 1225 0 1160 0 q 1384 73 1317 0 q 1451 247 1451 146 q 1383 450 1451 403 l 1585 450 q 1661 424 1629 450 q 1698 360 1694 398 q 1629 376 1674 376 q 1546 338 1584 376 q 1509 245 1509 300 q 1554 148 1509 190 q 1659 105 1600 105 q 1757 158 1719 105 q 1795 278 1795 211 q 1735 450 1795 376 q 1585 525 1674 525 l 1194 525 l 1194 450 l 1247 450 q 1340 389 1305 450 q 1375 256 1375 329 q 1329 130 1375 184 q 1217 75 1283 75 q 1140 117 1179 75 q 1069 229 1101 158 l 1070 263 q 1010 445 1074 365 q 853 525 945 525 l 801 525 l 801 450 l 829 450 q 947 394 900 450 q 995 263 995 337 q 953 132 995 189 q 845 75 911 75 q 765 119 809 75 q 687 236 722 163 l 687 255 q 628 447 687 368 q 486 525 570 525 l 425 525 l 425 450 l 486 450 q 578 392 544 450 q 613 259 613 334 q 583 130 613 185 q 493 75 552 75 q 430 103 457 75 q 403 166 403 130 l 403 226 l 327 226 l 327 187 q 291 108 327 141 q 208 75 255 75 q 125 101 162 75 q 88 165 88 127 q 117 232 88 203 q 190 272 147 261 q 265 320 232 284 q 298 406 298 356 q 256 491 298 456 q 161 525 215 525 q 68 491 108 525 q 28 405 28 456 l 28 376 l 103 376 l 103 397 q 120 439 103 421 q 161 457 137 457 q 204 442 185 457 q 222 401 222 428 q 198 351 222 374 q 130 320 173 327 z "},"ౡ":{"ha":1339,"x_min":37,"x_max":1321,"o":"m 1231 240 q 1213 198 1231 215 q 1171 180 1196 180 q 1129 198 1147 180 q 1111 240 1111 215 q 1129 282 1111 264 q 1171 300 1147 300 q 1213 282 1196 300 q 1231 240 1231 264 m 376 473 q 201 541 336 541 q 86 492 136 541 q 37 368 37 442 q 61 285 37 320 l 142 285 q 112 365 112 319 q 146 437 112 410 q 225 465 180 465 q 300 434 269 465 q 331 360 331 403 l 331 315 l 405 315 l 405 360 q 441 434 405 404 q 525 465 477 465 q 609 439 572 465 q 646 376 646 414 q 533 211 646 299 q 420 16 420 122 q 479 -128 420 -69 q 623 -187 538 -187 q 825 -57 741 -187 q 908 255 908 72 q 879 450 908 348 l 1111 450 q 1186 424 1154 450 q 1223 360 1217 398 q 1154 376 1199 376 q 1073 338 1110 376 q 1035 246 1035 300 q 1076 152 1035 192 q 1175 112 1116 112 q 1278 162 1234 112 q 1321 278 1321 211 q 1260 450 1321 376 q 1111 525 1200 525 l 766 525 q 833 255 833 376 q 739 -52 833 63 q 630 -112 690 -112 q 533 -77 571 -112 q 496 2 496 -42 q 608 180 496 91 q 720 368 720 268 q 661 491 720 440 q 525 541 602 541 q 435 523 476 541 q 376 473 394 504 z "},"ౢ":{"ha":0,"x_min":-718,"x_max":-77,"o":"m -589 -21 q -680 -51 -643 -21 q -718 -120 -718 -82 q -698 -185 -718 -159 l -639 -185 q -661 -137 -661 -172 q -635 -85 -661 -103 q -578 -67 -609 -67 q -523 -86 -546 -67 q -500 -135 -500 -105 l -500 -167 l -446 -167 l -446 -135 q -420 -86 -446 -105 q -359 -67 -393 -67 q -298 -82 -325 -67 q -272 -125 -272 -98 q -352 -235 -272 -182 q -410 -288 -386 -256 q -434 -367 -434 -320 q -389 -452 -434 -414 q -285 -489 -345 -489 q -135 -400 -194 -489 q -77 -205 -77 -310 q -109 -31 -77 -99 l -164 -31 q -132 -198 -132 -105 q -174 -368 -132 -292 q -285 -445 -215 -445 q -351 -421 -323 -445 q -379 -363 -379 -398 q -297 -258 -379 -308 q -216 -130 -216 -205 q -260 -52 -216 -83 q -371 -21 -304 -21 q -467 -62 -437 -21 q -589 -21 -500 -21 z "},"ౣ":{"ha":0,"x_min":-1023,"x_max":-77,"o":"m -189 -179 q -180 -179 -189 -179 q -158 -188 -171 -179 q -146 -214 -146 -198 q -158 -245 -146 -231 q -190 -258 -171 -258 q -221 -245 -209 -258 q -234 -215 -234 -232 q -221 -188 -234 -198 q -189 -179 -208 -179 m -895 -21 q -985 -51 -948 -21 q -1023 -120 -1023 -82 q -1003 -185 -1023 -159 l -944 -185 q -966 -137 -966 -172 q -940 -85 -966 -103 q -883 -67 -914 -67 q -829 -86 -851 -67 q -806 -135 -806 -105 l -806 -167 l -751 -167 l -751 -135 q -725 -86 -751 -105 q -664 -67 -698 -67 q -604 -82 -630 -67 q -577 -125 -577 -98 q -657 -235 -577 -182 q -715 -288 -691 -256 q -739 -367 -739 -320 q -694 -452 -739 -414 q -591 -489 -650 -489 q -441 -400 -499 -489 q -382 -200 -382 -310 q -402 -77 -382 -145 l -234 -77 q -177 -93 -201 -77 q -148 -135 -153 -109 q -198 -125 -166 -125 q -259 -150 -231 -125 q -288 -210 -288 -174 q -258 -271 -288 -246 q -186 -297 -229 -297 q -110 -266 -143 -297 q -77 -180 -77 -235 q -122 -78 -77 -125 q -234 -31 -168 -31 l -486 -31 q -437 -215 -437 -138 q -479 -368 -437 -292 q -591 -445 -520 -445 q -656 -421 -628 -445 q -685 -363 -685 -398 q -602 -258 -685 -308 q -521 -130 -521 -205 q -565 -52 -521 -83 q -676 -21 -609 -21 q -772 -62 -743 -21 q -895 -21 -806 -21 z "},"౦":{"ha":793,"x_min":69,"x_max":730,"o":"m 399 570 q 435 570 399 570 q 517 488 472 570 q 561 326 561 407 q 543 185 561 246 q 487 80 525 125 q 398 36 449 36 q 280 122 324 36 q 237 308 237 209 q 281 488 237 407 q 399 570 325 570 m 69 307 q 69 242 69 307 q 166 85 69 178 q 399 -7 262 -7 q 633 85 536 -7 q 730 306 730 178 q 633 525 730 435 q 398 615 535 615 q 165 526 261 615 q 69 307 69 436 z "},"౧":{"ha":792,"x_min":63,"x_max":735,"o":"m 539 -6 q 680 127 624 43 q 735 325 735 211 q 637 527 735 439 q 399 615 539 615 q 161 527 259 615 q 63 325 63 439 q 117 128 63 211 q 253 -2 171 44 l 326 37 q 261 141 282 63 q 241 316 241 220 q 284 491 241 411 q 399 570 326 570 q 514 491 471 570 q 557 316 557 413 q 470 37 557 109 l 539 -6 z "},"౨":{"ha":792,"x_min":83,"x_max":714,"o":"m 269 556 q 279 556 269 556 q 301 536 289 556 q 313 491 313 515 q 301 446 313 466 q 269 426 289 426 q 238 446 250 426 q 226 491 226 466 q 238 536 226 515 q 269 556 250 556 m 373 561 q 490 486 445 552 q 535 331 535 419 q 444 134 535 214 q 222 54 353 54 l 83 54 l 83 0 l 288 0 q 655 143 541 0 q 714 323 714 217 q 610 539 714 462 q 347 615 505 615 q 187 585 255 615 q 119 489 119 555 q 165 406 119 440 q 268 372 211 372 q 368 405 325 372 q 411 488 411 439 q 373 561 411 538 z "},"౩":{"ha":792,"x_min":103,"x_max":694,"o":"m 529 182 q 529 152 529 182 q 495 85 529 122 q 405 48 461 48 q 309 84 348 48 q 269 173 269 120 l 103 173 q 190 44 103 96 q 403 -7 277 -7 q 612 38 530 -7 q 693 183 693 84 q 661 258 693 220 q 572 323 629 295 l 572 329 q 657 379 620 344 q 694 461 694 414 q 615 569 694 523 q 412 615 535 615 q 196 568 289 615 q 103 456 103 521 l 268 456 q 310 533 268 503 q 400 563 351 563 q 486 534 450 563 q 521 456 521 504 q 477 380 521 408 q 368 352 432 352 l 310 352 l 310 309 l 369 309 q 483 275 436 309 q 529 182 529 241 z "},"౪":{"ha":792,"x_min":74,"x_max":724,"o":"m 405 264 q 545 156 545 210 q 502 79 545 110 q 404 48 458 48 q 306 76 350 48 q 263 150 263 104 q 300 209 263 179 q 405 264 337 240 m 238 467 q 257 530 238 502 q 304 575 276 559 l 267 607 q 128 543 182 586 q 74 457 74 500 q 125 369 74 413 q 258 295 175 326 q 129 226 174 264 q 84 150 84 188 q 177 38 84 84 q 402 -7 271 -7 q 630 41 534 -7 q 724 156 724 89 q 675 225 724 188 q 539 295 626 262 q 668 371 618 325 q 718 465 718 418 q 660 552 718 513 q 518 607 603 592 l 486 575 q 557 470 557 530 q 509 373 557 410 q 397 325 461 336 q 287 377 335 340 q 238 467 238 415 z "},"౫":{"ha":792,"x_min":47,"x_max":750,"o":"m 517 492 q 530 542 517 521 q 569 563 544 563 q 610 539 594 563 q 626 482 626 515 q 586 346 626 387 q 517 492 517 408 m 206 304 q 47 37 206 48 l 47 -5 q 323 67 178 -5 q 591 266 468 138 q 620 182 620 241 q 580 86 620 122 q 483 41 539 49 l 483 -6 q 656 44 578 -6 q 734 176 734 94 q 640 310 734 258 q 720 393 691 347 q 750 489 750 439 q 694 578 750 540 q 570 615 638 615 q 453 578 503 615 q 403 489 403 540 q 439 389 403 437 q 539 304 476 340 q 313 125 457 208 l 310 133 q 373 314 373 196 q 279 521 373 431 q 51 610 185 610 l 51 567 q 166 484 126 560 q 206 304 206 408 z "},"౬":{"ha":792,"x_min":65,"x_max":732,"o":"m 65 158 q 125 41 65 82 q 276 0 185 0 l 732 0 l 732 65 l 356 65 q 271 90 304 65 q 237 162 237 114 q 271 244 237 211 q 360 277 305 277 l 410 277 l 410 335 l 353 335 q 277 365 309 335 q 245 442 245 395 q 282 525 245 488 q 369 562 319 562 l 425 562 l 425 610 l 335 610 q 154 563 236 610 q 72 437 72 515 q 112 358 72 392 q 205 309 153 324 l 205 303 q 107 251 148 289 q 65 158 65 213 z "},"౭":{"ha":792,"x_min":80,"x_max":718,"o":"m 340 353 q 162 303 245 347 q 80 193 80 258 q 129 82 80 129 q 388 -7 224 -7 q 602 41 508 -7 q 718 172 697 89 l 660 189 q 580 93 644 130 q 440 57 517 57 q 304 94 363 57 q 245 187 245 131 q 303 276 245 242 q 441 318 362 310 q 585 368 520 325 q 650 458 650 410 q 570 576 650 538 q 382 615 491 615 q 109 524 204 615 l 148 482 q 341 560 243 560 q 442 531 397 560 q 487 458 487 503 q 442 386 487 414 q 340 353 397 358 z "},"౮":{"ha":793,"x_min":38,"x_max":761,"o":"m 279 612 q 108 479 178 565 q 38 278 38 394 q 140 77 38 162 q 384 -7 242 -7 q 625 77 526 -7 q 724 283 724 162 q 685 437 724 368 q 582 550 645 505 l 588 556 l 639 550 l 761 550 l 761 605 l 452 605 l 452 561 q 527 462 503 542 q 551 285 551 381 q 505 116 551 190 q 384 42 460 42 q 261 122 309 42 q 213 298 213 203 q 237 470 213 393 q 310 573 262 547 l 279 612 z "},"౯":{"ha":792,"x_min":53,"x_max":744,"o":"m 201 292 q 98 232 142 271 q 53 137 53 194 q 116 40 53 80 q 256 0 179 0 l 393 0 l 393 53 l 329 53 q 258 82 287 53 q 230 156 230 110 q 274 235 230 201 q 374 269 318 269 l 429 269 l 429 326 l 374 326 q 269 361 316 326 q 221 445 221 395 q 277 523 221 494 q 400 551 334 551 l 744 551 l 744 604 l 256 604 q 115 559 177 604 q 53 453 53 514 q 98 355 53 393 q 201 300 142 316 l 201 292 z "},"౸":{"ha":603,"x_min":33,"x_max":576,"o":"m 297 683 q 324 683 297 683 q 395 639 351 683 q 440 523 440 594 q 397 413 440 452 q 297 374 353 374 q 196 415 240 374 q 152 525 152 455 q 197 639 152 594 q 297 683 242 683 m 248 -36 q 310 -12 267 -28 q 451 54 400 22 q 576 195 576 129 q 542 261 576 229 q 453 314 509 293 q 559 523 559 398 q 484 695 559 622 q 297 769 410 769 q 108 694 183 769 q 33 519 33 620 q 106 342 33 418 q 295 266 179 266 q 324 267 318 266 q 348 261 332 264 q 371 256 363 258 q 392 251 379 255 q 410 246 404 248 q 425 240 416 243 q 439 232 434 236 q 447 222 444 227 q 456 193 456 211 q 431 150 456 174 q 369 106 407 126 q 295 69 331 85 q 229 41 259 53 q 196 28 198 30 l 248 -36 z "},"౹":{"ha":347,"x_min":127,"x_max":246,"o":"m 127 9 l 246 9 l 246 757 l 127 757 l 127 9 z "},"౺":{"ha":546,"x_min":57,"x_max":478,"o":"m 478 757 l 358 757 l 358 409 q 272 386 315 386 q 175 493 175 386 l 175 757 l 57 757 l 57 483 q 114 352 57 404 q 251 299 171 299 q 342 309 278 299 l 358 313 l 358 9 l 478 9 l 478 757 z "},"౻":{"ha":849,"x_min":57,"x_max":780,"o":"m 780 757 l 662 757 l 662 409 q 566 386 619 386 q 478 476 478 388 l 478 757 l 358 757 l 358 472 q 323 400 358 416 q 263 386 297 389 q 203 409 230 386 q 175 493 175 432 l 175 757 l 57 757 l 57 483 q 114 352 57 404 q 259 299 171 299 q 418 342 347 299 q 476 313 432 326 q 549 299 520 299 q 602 303 577 299 q 644 310 628 306 q 662 313 661 313 l 662 9 l 780 9 l 780 757 z "},"౼":{"ha":809,"x_min":46,"x_max":790,"o":"m 790 334 l 790 421 l 46 421 l 46 334 l 790 334 z "},"౽":{"ha":933,"x_min":101,"x_max":923,"o":"m 923 117 l 393 117 q 282 122 319 117 q 222 161 222 130 q 243 195 222 183 q 275 212 263 206 q 310 224 287 217 q 347 233 334 230 q 388 242 360 236 q 571 306 514 267 q 629 410 629 346 q 576 511 629 474 q 428 547 524 547 l 119 547 l 119 463 l 428 463 q 491 453 472 463 q 509 413 509 444 q 483 363 505 376 q 386 329 460 350 q 280 300 311 309 q 208 274 248 290 q 148 242 168 258 q 104 152 101 206 q 128 78 101 109 q 201 35 154 48 q 394 9 285 9 l 923 9 l 923 117 z "},"౾":{"ha":1014,"x_min":100,"x_max":1003,"o":"m 252 150 q 277 171 252 171 q 393 181 332 171 q 472 201 453 192 q 512 224 491 210 q 547 306 550 250 q 492 385 552 357 q 351 411 432 413 q 246 415 269 409 q 222 440 222 421 q 233 459 221 455 q 280 464 245 463 q 342 470 316 465 q 517 596 524 481 q 464 675 521 649 q 305 702 407 702 l 110 702 l 110 617 l 305 617 q 386 608 374 617 q 398 581 398 599 q 382 558 398 563 q 321 551 367 552 q 226 542 276 550 q 140 507 175 535 q 104 423 104 479 q 146 361 100 387 q 247 329 193 336 q 332 325 300 321 q 357 323 341 324 q 384 321 373 323 q 405 318 394 320 q 428 293 428 313 q 376 262 428 264 q 292 257 315 259 q 175 219 215 247 q 133 142 135 192 q 156 67 131 93 q 226 30 180 41 q 410 9 305 9 l 1003 9 l 1003 117 l 409 117 q 318 120 337 117 q 291 124 299 124 q 279 125 283 125 q 270 127 276 126 q 262 130 264 129 q 257 135 259 132 q 252 150 252 140 z "},"౿":{"ha":1078,"x_min":0,"x_max":1034,"o":"m 112 502 q 167 416 124 445 q 267 387 211 387 q 373 427 323 387 q 423 538 423 467 q 387 644 423 608 q 261 696 335 696 q 136 675 187 696 q 0 432 0 599 q 36 259 0 340 q 124 137 72 179 q 303 38 211 67 q 500 10 394 10 q 875 142 699 10 q 1031 330 965 210 l 1034 340 l 932 389 l 921 373 q 838 274 888 327 q 589 125 739 164 q 500 119 521 119 q 224 187 330 119 q 139 288 172 220 q 106 432 106 356 q 112 502 106 471 m 261 623 q 271 623 261 623 q 300 597 282 623 q 318 538 318 572 q 302 484 318 504 q 261 463 285 463 q 221 484 237 463 q 204 539 204 505 q 222 597 204 572 q 261 623 240 623 z "},"Ẁ":{"ha":730,"x_min":14,"x_max":718,"o":"m 430 610 l 457 641 l 351 807 l 273 717 l 430 610 m 718 568 l 635 568 l 559 169 l 460 568 l 332 568 l 230 167 l 151 568 l 14 568 l 130 0 l 262 0 l 372 414 l 476 0 l 601 0 l 718 568 z "},"ẁ":{"ha":614,"x_min":4,"x_max":610,"o":"m 344 487 l 371 518 l 264 685 l 185 593 l 344 487 m 610 445 l 533 445 l 460 105 l 398 445 l 276 445 l 204 108 l 143 445 l 4 445 l 95 0 l 250 0 l 304 231 l 351 0 l 504 0 l 610 445 z "},"Ẃ":{"ha":730,"x_min":14,"x_max":718,"o":"m 362 610 l 519 717 l 440 807 l 335 641 l 362 610 m 718 568 l 635 568 l 559 169 l 460 568 l 332 568 l 230 167 l 151 568 l 14 568 l 130 0 l 262 0 l 372 414 l 476 0 l 601 0 l 718 568 z "},"ẃ":{"ha":614,"x_min":4,"x_max":610,"o":"m 274 487 l 432 593 l 353 685 l 248 518 l 274 487 m 610 445 l 533 445 l 460 105 l 398 445 l 276 445 l 204 108 l 143 445 l 4 445 l 95 0 l 250 0 l 304 231 l 351 0 l 504 0 l 610 445 z "},"Ẅ":{"ha":730,"x_min":14,"x_max":718,"o":"m 298 617 q 314 617 298 617 q 350 638 329 617 q 372 690 372 660 q 350 742 372 720 q 298 764 329 764 q 247 742 268 764 q 226 691 226 720 q 247 639 226 661 q 298 617 268 617 m 496 617 q 511 617 496 617 q 548 638 526 617 q 570 690 570 660 q 548 742 570 720 q 496 764 526 764 q 444 742 466 764 q 423 691 423 720 q 444 639 423 661 q 496 617 466 617 m 718 568 l 635 568 l 559 169 l 460 568 l 332 568 l 230 167 l 151 568 l 14 568 l 130 0 l 262 0 l 372 414 l 476 0 l 601 0 l 718 568 z "},"ẅ":{"ha":614,"x_min":4,"x_max":610,"o":"m 211 493 q 226 493 211 493 q 263 515 241 493 q 284 567 284 536 q 263 618 284 597 q 211 640 241 640 q 160 618 180 640 q 140 567 140 597 q 161 515 140 538 q 211 493 182 493 m 409 493 q 424 493 409 493 q 461 515 439 493 q 483 567 483 536 q 461 618 483 597 q 409 640 439 640 q 358 618 379 640 q 336 567 336 597 q 358 515 336 538 q 409 493 379 493 m 610 445 l 533 445 l 460 105 l 398 445 l 276 445 l 204 108 l 143 445 l 4 445 l 95 0 l 250 0 l 304 231 l 351 0 l 504 0 l 610 445 z "},"Ỳ":{"ha":463,"x_min":-14,"x_max":476,"o":"m 266 610 l 293 641 l 187 807 l 108 717 l 266 610 m 302 196 l 476 568 l 395 568 l 256 273 l 126 568 l -14 568 l 162 195 l 162 0 l 302 0 l 302 196 z "},"ỳ":{"ha":430,"x_min":1,"x_max":430,"o":"m 278 487 l 305 518 l 199 685 l 120 593 l 278 487 m 430 445 l 351 445 l 257 154 l 138 445 l 1 445 l 198 -15 l 117 -177 l 219 -188 l 430 445 z "},"‌":{"ha":288,"x_min":219,"x_max":294,"o":"m 294 -14 l 294 825 l 219 825 l 219 -14 l 294 -14 z "},"‍":{"ha":918,"x_min":200,"x_max":924,"o":"m 851 492 l 924 552 l 626 817 l 911 1097 l 846 1164 l 561 886 l 280 1153 l 209 1089 l 488 823 l 200 565 l 261 491 l 513 712 l 513 -14 l 603 -14 l 603 712 l 851 492 z "},"–":{"ha":430,"x_min":44,"x_max":387,"o":"m 387 293 l 44 293 l 44 204 l 387 204 l 387 293 z "},"—":{"ha":690,"x_min":44,"x_max":646,"o":"m 646 293 l 44 293 l 44 204 l 646 204 l 646 293 z "},"‘":{"ha":393,"x_min":93,"x_max":304,"o":"m 93 721 q 93 687 93 721 q 125 620 93 654 q 205 587 157 587 q 278 613 252 587 q 304 680 304 639 q 280 746 304 720 q 221 772 257 772 q 157 750 184 772 q 193 829 157 793 q 271 874 229 864 l 252 909 q 136 842 179 896 q 93 721 93 788 z "},"’":{"ha":393,"x_min":93,"x_max":304,"o":"m 304 790 q 272 875 304 841 q 193 909 241 909 q 119 883 146 909 q 93 816 93 856 q 116 750 93 776 q 177 724 140 724 q 241 746 214 724 q 206 668 241 703 q 126 623 171 633 l 145 587 q 261 653 219 601 q 304 790 304 706 z "},"‚":{"ha":184,"x_min":19,"x_max":157,"o":"m 92 140 q 78 140 92 140 q 46 120 64 140 q 27 79 27 101 q 37 31 27 57 q 47 -6 47 5 q 19 -72 47 -42 l 43 -100 q 157 67 157 -36 q 138 119 157 99 q 92 140 120 140 z "},"“":{"ha":612,"x_min":93,"x_max":524,"o":"m 374 656 q 395 567 374 609 q 447 525 415 525 q 501 541 478 525 q 524 579 524 556 q 496 637 524 602 q 467 693 467 672 q 524 862 467 797 l 487 881 q 374 656 374 790 m 93 656 q 113 567 93 609 q 166 525 133 525 q 220 541 198 525 q 242 580 242 556 q 215 638 242 603 q 187 693 187 672 q 242 862 187 801 l 205 881 q 93 656 93 790 z "},"”":{"ha":612,"x_min":93,"x_max":524,"o":"m 524 656 q 504 745 524 703 q 452 787 483 787 q 397 771 420 787 q 374 731 374 755 q 402 673 374 707 q 430 619 430 640 q 374 450 430 512 l 411 431 q 524 656 524 523 m 242 656 q 222 745 242 703 q 171 787 201 787 q 116 771 140 787 q 93 732 93 755 q 121 675 93 709 q 150 619 150 640 q 93 450 150 515 l 130 431 q 242 656 242 523 z "},"„":{"ha":368,"x_min":19,"x_max":341,"o":"m 92 140 q 78 140 92 140 q 46 120 64 140 q 27 79 27 101 q 37 31 27 57 q 47 -6 47 5 q 19 -72 47 -42 l 43 -100 q 157 67 157 -36 q 138 119 157 99 q 92 140 120 140 m 276 140 q 262 140 276 140 q 230 120 248 140 q 211 79 211 101 q 221 31 211 57 q 231 -6 231 5 q 204 -72 231 -43 l 227 -100 q 341 67 341 -35 q 322 119 341 99 q 276 140 303 140 z "},"†":{"ha":384,"x_min":6,"x_max":379,"o":"m 379 348 l 379 451 l 261 442 l 266 568 l 117 568 l 124 442 l 6 451 l 6 348 l 127 357 l 142 0 l 242 0 l 257 357 l 379 348 z "},"‡":{"ha":384,"x_min":6,"x_max":379,"o":"m 242 284 l 248 358 l 379 348 l 379 451 l 256 442 l 266 568 l 117 568 l 129 442 l 6 451 l 6 348 l 136 358 l 142 284 l 136 210 l 6 220 l 6 117 l 129 126 l 117 0 l 266 0 l 256 126 l 379 117 l 379 220 l 248 210 l 242 284 z "},"•":{"ha":645,"x_min":0,"x_max":0,"o":""},"…":{"ha":614,"x_min":20,"x_max":594,"o":"m 92 -6 q 107 -6 92 -6 q 143 15 122 -6 q 164 67 164 37 q 143 119 164 98 q 92 140 122 140 q 41 119 62 140 q 20 67 20 98 q 41 15 20 37 q 92 -6 62 -6 m 308 -6 q 323 -6 308 -6 q 360 15 339 -6 q 381 67 381 37 q 360 119 381 98 q 308 140 339 140 q 256 119 277 140 q 236 67 236 98 q 257 15 236 37 q 308 -6 278 -6 m 522 -6 q 537 -6 522 -6 q 573 15 552 -6 q 594 67 594 37 q 573 119 594 98 q 521 140 552 140 q 470 119 491 140 q 450 67 450 98 q 471 15 450 37 q 522 -6 492 -6 z "},"‰":{"ha":980,"x_min":38,"x_max":942,"o":"m 177 580 q 138 580 177 580 q 69 537 99 580 q 38 416 38 494 q 68 296 38 339 q 177 253 98 253 q 287 296 256 253 q 318 416 318 339 q 287 537 318 494 q 177 580 256 580 m 496 568 l 439 568 l 289 0 l 345 0 l 496 568 m 141 418 q 148 514 141 487 q 177 541 156 541 q 207 514 199 541 q 215 418 215 487 q 178 294 215 294 q 141 418 141 294 m 704 289 q 598 319 668 319 q 497 277 528 319 q 467 156 467 235 q 497 36 467 78 q 598 -6 528 -6 q 704 23 668 -6 q 809 -6 738 -6 q 911 36 880 -6 q 942 156 942 78 q 911 276 942 234 q 809 319 880 319 q 704 289 738 319 m 570 157 q 576 255 570 229 q 606 282 583 282 q 636 254 629 282 q 644 157 644 226 q 607 33 644 33 q 570 157 570 33 m 764 157 q 771 255 764 227 q 801 282 778 282 q 831 255 823 282 q 839 157 839 227 q 801 33 839 33 q 764 157 764 33 z "},"‹":{"ha":226,"x_min":17,"x_max":208,"o":"m 208 127 l 125 246 l 208 363 l 166 407 l 17 268 l 17 222 l 166 84 l 208 127 z "},"›":{"ha":226,"x_min":17,"x_max":208,"o":"m 17 363 l 101 246 l 17 127 l 61 84 l 208 222 l 208 268 l 61 407 l 17 363 z "},"⁄":{"ha":229,"x_min":11,"x_max":217,"o":"m 217 568 l 162 568 l 11 0 l 67 0 l 217 568 z "},"⁰":{"ha":356,"x_min":38,"x_max":318,"o":"m 177 305 q 216 305 177 305 q 287 347 256 305 q 318 467 318 389 q 287 588 318 545 q 177 630 256 630 q 68 588 98 630 q 38 468 38 546 q 68 347 38 389 q 177 305 98 305 m 141 468 q 148 566 141 539 q 177 593 156 593 q 207 566 199 593 q 215 468 215 539 q 178 345 215 345 q 141 468 141 345 z "},"₀":{"ha":356,"x_min":38,"x_max":318,"o":"m 177 -151 q 216 -151 177 -151 q 287 -109 256 -151 q 318 11 318 -67 q 287 132 318 89 q 177 174 256 174 q 68 132 98 174 q 38 12 38 90 q 68 -109 38 -67 q 177 -151 98 -151 m 141 12 q 148 110 141 83 q 177 137 156 137 q 207 110 199 137 q 215 12 215 83 q 178 -111 215 -111 q 141 12 141 -111 z "},"₁":{"ha":347,"x_min":57,"x_max":290,"o":"m 290 -106 l 229 -106 l 229 168 l 187 168 q 57 131 119 135 l 57 95 l 127 96 l 127 -106 l 58 -106 l 58 -145 l 290 -145 l 290 -106 z "},"₂":{"ha":356,"x_min":49,"x_max":306,"o":"m 140 54 q 175 133 141 133 q 205 96 205 133 q 196 38 205 58 q 159 -4 188 17 l 49 -82 l 49 -145 l 305 -145 l 305 -69 l 158 -69 l 251 -4 q 306 83 306 36 q 175 173 306 173 q 85 148 115 173 q 51 67 56 122 l 140 54 z "},"₃":{"ha":356,"x_min":46,"x_max":309,"o":"m 305 95 q 271 151 305 130 q 175 173 236 173 q 85 151 114 173 q 51 75 56 130 l 140 64 q 173 133 143 133 q 197 126 190 133 q 204 89 204 119 q 195 46 204 59 q 148 33 185 33 l 122 33 l 122 -14 l 147 -14 q 157 -13 148 -14 q 169 -13 166 -12 q 181 -15 173 -14 q 193 -20 189 -16 q 201 -30 196 -23 q 210 -67 210 -38 q 173 -110 210 -110 q 135 -46 136 -110 l 46 -58 q 80 -130 49 -110 q 174 -151 110 -151 q 273 -125 237 -151 q 309 -67 309 -100 q 215 11 309 -1 q 305 95 305 25 z "},"₄":{"ha":356,"x_min":28,"x_max":314,"o":"m 314 -95 l 314 -20 l 288 -20 l 288 168 l 137 168 l 28 -32 l 28 -95 l 188 -95 l 188 -145 l 288 -145 l 288 -95 l 314 -95 m 188 -20 l 109 -20 l 188 130 l 188 -20 z "},"₅":{"ha":356,"x_min":47,"x_max":306,"o":"m 47 -42 q 171 -151 54 -151 q 271 -121 235 -151 q 306 -51 306 -91 q 270 19 306 -11 q 164 48 234 48 l 106 48 l 111 93 l 280 93 l 280 168 l 75 168 l 64 7 l 112 7 q 204 -54 204 7 q 170 -111 204 -111 q 136 -35 136 -111 l 47 -42 z "},"₆":{"ha":356,"x_min":40,"x_max":313,"o":"m 140 40 q 149 114 141 93 q 180 135 157 135 q 217 65 217 135 l 305 73 q 180 173 300 173 q 70 127 101 173 q 40 7 40 80 q 74 -108 40 -65 q 179 -151 108 -151 q 313 -49 313 -151 q 285 23 313 0 q 214 46 258 46 q 140 40 169 46 m 140 1 q 166 5 154 5 q 215 -53 215 5 q 179 -111 215 -111 q 148 -90 157 -111 q 140 1 140 -68 z "},"₇":{"ha":356,"x_min":43,"x_max":298,"o":"m 220 90 l 73 -145 l 162 -145 l 298 105 l 298 168 l 43 168 l 43 90 l 220 90 z "},"₈":{"ha":356,"x_min":40,"x_max":316,"o":"m 263 16 q 311 80 311 36 q 277 148 311 124 q 178 173 243 173 q 78 148 112 173 q 43 85 43 124 q 101 12 43 33 q 40 -61 40 -9 q 77 -125 40 -100 q 178 -151 115 -151 q 279 -125 241 -151 q 316 -54 316 -99 q 263 16 316 -10 m 193 35 l 184 35 q 146 85 146 35 q 177 135 146 135 q 209 91 209 135 q 193 35 209 47 m 178 -111 q 142 -59 142 -111 q 168 -2 142 -7 l 173 -4 l 175 -4 q 203 -19 192 -5 q 214 -61 214 -33 q 206 -100 214 -89 q 178 -111 198 -111 z "},"₉":{"ha":356,"x_min":38,"x_max":316,"o":"m 38 64 q 156 -25 38 -25 q 214 -17 195 -25 q 205 -89 213 -67 q 173 -111 196 -111 q 135 -42 132 -111 l 46 -52 q 173 -151 51 -151 q 284 -108 252 -151 q 316 40 316 -65 q 283 136 316 99 q 182 173 250 173 q 76 143 114 173 q 38 64 38 114 m 182 135 q 214 17 214 135 q 189 14 200 14 q 141 74 141 14 q 182 135 141 135 z "},"₣":{"ha":395,"x_min":22,"x_max":387,"o":"m 204 491 l 387 491 l 387 568 l 64 568 l 64 184 l 22 184 l 22 106 l 64 106 l 64 0 l 204 0 l 204 106 l 294 106 l 294 184 l 204 184 l 204 251 l 355 251 l 355 327 l 204 327 l 204 491 z "},"₤":{"ha":491,"x_min":40,"x_max":470,"o":"m 470 106 l 187 106 q 226 152 217 129 l 373 152 l 373 234 l 230 234 l 230 277 l 373 277 l 373 358 l 230 358 l 230 404 q 242 494 230 463 q 287 525 253 525 q 345 390 345 525 l 465 400 q 425 534 465 489 q 287 580 386 580 q 90 404 90 580 l 90 358 l 42 358 l 42 277 l 90 277 l 90 234 l 42 234 l 42 152 l 89 152 q 74 111 86 132 q 40 80 62 90 l 40 0 l 470 0 l 470 106 z "},"€":{"ha":491,"x_min":10,"x_max":481,"o":"m 360 157 q 287 43 360 43 q 198 179 214 43 l 314 179 l 314 261 l 194 261 l 194 308 l 314 308 l 314 389 l 199 389 q 287 525 213 525 q 339 496 320 525 q 358 411 358 466 l 479 421 q 289 580 476 580 q 64 389 103 580 l 10 389 l 10 308 l 56 308 l 56 261 l 10 261 l 10 179 l 64 179 q 290 -11 103 -11 q 481 150 478 -11 l 360 157 z "},"₹":{"ha":854,"x_min":0,"x_max":0,"o":""},"ℓ":{"ha":290,"x_min":67,"x_max":304,"o":"m 287 78 q 237 64 255 64 q 205 108 205 64 l 205 568 l 67 568 l 67 135 q 96 22 67 52 q 192 -11 130 -11 q 304 16 255 -11 l 287 78 z "},"™":{"ha":774,"x_min":21,"x_max":735,"o":"m 21 620 l 21 568 l 103 568 l 103 279 l 217 279 l 217 568 l 298 568 l 298 620 l 21 620 m 622 279 l 735 279 l 718 620 l 577 620 l 520 376 l 462 620 l 330 620 l 316 279 l 384 279 l 393 542 l 455 279 l 552 279 l 614 529 l 622 279 z "},"Ω":{"ha":612,"x_min":30,"x_max":583,"o":"m 458 88 l 458 132 q 552 226 521 168 q 583 340 583 284 q 518 512 583 442 q 306 581 452 581 q 95 512 161 581 q 30 340 30 442 q 61 226 30 284 q 154 132 91 168 l 154 88 l 53 88 l 53 0 l 256 0 l 256 150 q 159 339 159 208 q 306 525 159 525 q 452 339 452 525 q 357 150 452 206 l 357 0 l 559 0 l 559 88 l 458 88 z "},"℮":{"ha":467,"x_min":35,"x_max":437,"o":"m 122 201 l 122 62 q 235 15 169 15 q 386 108 331 15 l 413 93 q 332 11 371 35 q 235 -14 294 -14 q 88 48 142 -14 q 35 204 35 110 q 88 358 35 298 q 236 418 142 418 q 381 358 330 418 q 437 201 432 298 l 122 201 m 122 230 l 350 230 l 350 342 q 233 389 299 389 q 122 342 167 389 l 122 230 z "},"←":{"ha":808,"x_min":0,"x_max":0,"o":""},"↑":{"ha":444,"x_min":0,"x_max":0,"o":""},"→":{"ha":809,"x_min":0,"x_max":0,"o":""},"↓":{"ha":446,"x_min":0,"x_max":0,"o":""},"∂":{"ha":457,"x_min":16,"x_max":441,"o":"m 313 596 l 236 518 q 274 473 263 487 q 321 372 308 429 q 238 394 303 394 q 77 329 138 394 q 16 156 16 263 q 65 35 16 80 q 194 -11 114 -11 q 373 71 305 -11 q 441 287 441 153 q 393 492 441 411 q 313 596 358 547 m 213 89 q 154 173 154 89 q 179 258 154 220 q 235 295 203 295 q 298 221 298 295 q 276 125 298 161 q 213 89 253 89 z "},"∆":{"ha":544,"x_min":1,"x_max":544,"o":"m 544 0 l 348 568 l 195 568 l 1 0 l 544 0 m 377 88 l 112 88 l 245 496 l 377 88 z "},"∏":{"ha":601,"x_min":30,"x_max":571,"o":"m 571 481 l 571 568 l 30 568 l 30 481 l 80 481 l 80 -125 l 217 -125 l 217 481 l 382 481 l 382 -125 l 519 -125 l 519 481 l 571 481 z "},"∑":{"ha":461,"x_min":22,"x_max":447,"o":"m 447 481 l 447 568 l 22 568 l 22 481 l 195 211 l 22 -37 l 22 -125 l 447 -125 l 447 -37 l 171 -37 l 342 211 l 164 481 l 447 481 z "},"−":{"ha":451,"x_min":63,"x_max":388,"o":"m 388 293 l 63 293 l 63 204 l 388 204 l 388 293 z "},"√":{"ha":457,"x_min":-10,"x_max":507,"o":"m 507 482 l 507 568 l 284 568 l 179 178 l 129 340 l -10 340 l 106 0 l 259 0 l 398 482 l 507 482 z "},"∞":{"ha":456,"x_min":10,"x_max":446,"o":"m 227 373 q 133 409 195 409 q 41 373 72 409 q 10 248 10 337 q 41 122 10 158 q 136 86 72 86 q 229 124 200 86 q 321 86 258 86 q 415 122 384 86 q 446 248 446 158 q 415 373 446 337 q 320 409 384 409 q 227 373 256 409 m 148 192 q 118 203 127 192 q 109 248 109 214 q 118 293 109 282 q 150 304 127 304 q 190 268 173 304 l 185 256 q 148 192 175 192 m 264 226 l 271 245 q 308 304 283 304 q 338 293 329 304 q 347 248 347 282 q 338 203 347 214 q 306 192 329 192 q 264 226 284 192 z "},"∫":{"ha":362,"x_min":-42,"x_max":419,"o":"m 117 -22 q 57 -95 117 -95 q -6 -77 22 -95 l -42 -171 q 89 -204 6 -204 q 259 -22 259 -204 l 259 397 q 320 472 259 472 q 383 452 351 472 l 419 546 q 288 580 371 580 q 117 397 117 580 l 117 -22 z "},"≈":{"ha":451,"x_min":63,"x_max":388,"o":"m 63 282 q 129 263 91 263 q 226 280 166 263 q 323 297 285 297 q 388 282 360 297 l 388 371 q 323 384 360 384 q 226 368 285 384 q 127 351 166 351 q 63 371 89 351 l 63 282 m 63 126 q 129 108 91 108 q 226 124 166 108 q 323 141 285 141 q 388 126 360 141 l 388 215 q 323 229 360 229 q 226 212 285 229 q 127 195 166 195 q 63 215 89 195 l 63 126 z "},"≠":{"ha":451,"x_min":65,"x_max":392,"o":"m 266 293 l 392 293 l 392 381 l 289 381 l 329 531 l 273 531 l 232 381 l 65 381 l 65 293 l 210 293 l 187 204 l 65 204 l 65 116 l 163 116 l 124 -37 l 179 -37 l 219 116 l 392 116 l 392 204 l 242 204 l 266 293 z "},"≤":{"ha":451,"x_min":63,"x_max":388,"o":"m 383 110 l 383 206 l 150 302 l 383 394 l 383 493 l 69 357 l 69 246 l 383 110 m 388 89 l 63 89 l 63 0 l 388 0 l 388 89 z "},"≥":{"ha":451,"x_min":63,"x_max":388,"o":"m 383 246 l 383 357 l 69 493 l 69 394 l 303 302 l 69 206 l 69 110 l 383 246 m 388 89 l 63 89 l 63 0 l 388 0 l 388 89 z "},"◊":{"ha":424,"x_min":-2,"x_max":428,"o":"m 428 261 l 288 599 l 136 599 l -2 261 l 136 -78 l 288 -78 l 428 261 m 289 261 l 213 58 l 136 261 l 213 462 l 289 261 z "},"":{"ha":697,"x_min":68,"x_max":630,"o":"m 350 -79 l 386 -86 q 405 -78 393 -86 q 423 -69 416 -70 l 449 -69 q 471 -59 461 -69 q 486 -46 482 -48 q 503 -40 489 -43 q 522 -32 517 -36 q 534 -15 528 -28 q 545 1 541 -2 q 559 9 549 5 q 573 17 568 12 q 580 39 577 23 q 586 57 583 54 q 601 70 588 61 q 613 94 613 80 l 612 117 q 621 138 612 129 q 630 156 630 148 l 622 190 l 630 220 q 621 243 630 229 q 612 268 612 258 l 613 287 q 601 311 613 300 q 584 326 588 321 q 583 342 583 330 q 578 361 582 355 q 559 374 575 367 q 539 386 544 382 q 531 402 535 390 q 521 418 526 413 q 504 423 515 421 q 487 428 492 425 q 472 444 482 431 q 450 456 462 456 l 428 453 q 407 463 419 453 q 384 473 394 473 l 348 463 l 314 473 q 293 465 305 473 q 272 456 282 456 l 251 457 q 228 443 240 456 q 212 428 216 430 q 193 422 208 425 q 173 414 179 419 q 164 399 169 410 q 154 382 158 387 q 138 373 150 378 q 123 363 126 368 q 118 347 120 358 q 114 331 116 335 q 99 316 112 327 q 86 293 86 304 l 88 273 q 78 250 88 266 q 68 226 68 235 l 77 194 l 68 159 q 78 137 68 151 q 88 116 88 124 l 84 96 q 98 72 84 84 l 111 59 q 117 41 115 52 q 123 22 119 30 q 138 11 127 15 q 153 4 150 7 q 162 -14 157 0 q 175 -32 168 -28 q 193 -37 183 -36 q 209 -41 204 -38 q 227 -58 214 -44 q 252 -72 241 -72 l 272 -69 q 294 -79 282 -69 q 314 -89 306 -89 l 350 -79 m 421 2 l 409 4 q 391 -3 402 4 q 376 -10 381 -10 l 350 -5 l 321 -12 q 308 -4 318 -11 q 290 2 299 2 l 279 1 q 260 11 267 1 q 249 23 253 21 q 237 25 245 25 q 224 28 229 25 q 215 43 220 32 q 207 56 210 53 q 196 62 204 58 q 182 78 184 67 q 179 93 180 90 q 167 105 177 96 q 158 124 158 114 l 159 136 l 146 168 l 152 194 l 146 217 l 159 252 l 158 264 q 167 282 158 273 q 179 293 177 290 q 182 306 180 297 q 184 318 183 315 q 195 323 187 320 q 207 329 204 326 q 214 342 210 332 q 222 354 219 351 q 237 359 226 357 q 251 362 248 361 q 262 374 255 363 q 278 384 269 384 l 292 383 q 308 389 299 383 q 324 395 318 395 l 350 389 l 374 395 q 390 389 382 395 q 407 383 399 383 l 423 384 q 439 374 432 384 q 449 363 446 365 q 461 360 452 361 q 474 355 470 358 q 481 344 478 352 q 487 334 484 336 q 501 325 489 331 q 515 314 513 319 q 518 302 518 310 q 521 289 519 293 q 528 282 523 285 q 540 261 540 271 l 540 248 q 547 230 540 241 q 554 213 554 219 l 547 192 l 554 166 q 546 153 552 161 q 540 138 540 146 l 540 122 q 532 105 540 111 q 521 95 524 99 q 518 81 520 93 q 512 66 515 69 q 502 60 509 63 q 491 54 494 57 q 483 41 488 51 q 474 30 478 32 q 460 24 470 27 q 448 19 451 21 q 438 10 445 17 q 421 2 431 2 m 350 325 q 323 325 350 325 q 256 286 295 325 q 217 192 217 247 q 256 99 217 137 q 350 61 295 61 q 443 99 404 61 q 482 192 482 137 q 443 286 482 247 q 350 325 404 325 m 424 280 l 424 227 l 384 227 l 384 91 l 318 91 l 318 227 l 274 227 l 274 280 l 424 280 z "},"ﬀ":{"ha":566,"x_min":4,"x_max":643,"o":"m 410 584 q 278 612 344 612 q 70 445 74 612 l 4 445 l 4 374 l 70 374 l 70 0 l 208 0 l 208 374 l 352 374 l 352 0 l 491 0 l 491 374 l 573 374 l 573 445 l 491 445 l 491 479 q 502 515 491 500 q 536 529 514 529 q 603 484 572 529 l 643 583 q 518 612 582 612 q 410 584 455 612 m 352 445 l 208 445 l 208 450 q 226 505 208 482 q 285 529 243 529 q 360 508 326 529 q 352 450 352 482 l 352 445 z "},"ﬁ":{"ha":551,"x_min":4,"x_max":486,"o":"m 486 445 l 208 445 l 208 450 q 226 505 208 482 q 278 529 243 529 q 402 470 352 529 l 451 562 q 278 612 373 612 q 70 445 74 612 l 4 445 l 4 374 l 70 374 l 70 0 l 208 0 l 208 374 l 348 374 l 348 0 l 486 0 l 486 445 z "},"ﬂ":{"ha":551,"x_min":4,"x_max":484,"o":"m 484 599 l 398 588 q 278 612 341 612 q 70 445 74 612 l 4 445 l 4 374 l 70 374 l 70 0 l 208 0 l 208 374 l 292 374 l 292 445 l 208 445 l 208 450 q 226 505 208 482 q 282 529 243 529 q 347 515 320 529 l 347 0 l 484 0 l 484 599 z "},"ﬃ":{"ha":833,"x_min":4,"x_max":767,"o":"m 767 445 l 491 445 l 491 450 q 508 505 491 482 q 561 529 526 529 q 685 470 635 529 l 733 562 q 563 612 655 612 q 420 578 472 612 q 278 612 350 612 q 70 445 74 612 l 4 445 l 4 374 l 70 374 l 70 0 l 208 0 l 208 374 l 352 374 l 352 0 l 491 0 l 491 374 l 629 374 l 629 0 l 767 0 l 767 445 m 208 445 l 208 450 q 226 505 208 482 q 285 529 243 529 q 363 505 327 529 q 352 445 353 477 l 208 445 z "},"ﬄ":{"ha":833,"x_min":4,"x_max":769,"o":"m 769 599 l 682 588 q 547 612 622 612 q 420 578 472 612 q 278 612 350 612 q 70 445 74 612 l 4 445 l 4 374 l 70 374 l 70 0 l 208 0 l 208 374 l 352 374 l 352 0 l 491 0 l 491 374 l 573 374 l 573 445 l 491 445 l 491 450 q 508 505 491 482 q 564 529 526 529 q 630 514 602 529 l 630 0 l 769 0 l 769 599 m 208 445 l 208 450 q 226 505 208 482 q 285 529 243 529 q 363 505 327 529 q 352 445 353 477 l 208 445 z "}}}
